<svg xmlns="http://www.w3.org/2000/svg" fill="none" viewBox="0 0 464 578"><path fill="#FAB600" d="M10 418a32 32 0 0 1-1-45L341 10c12-13 32-13 45-1s13 32 1 45L55 417a32 32 0 0 1-45 1zm186-40a32 32 0 0 1-3-45l188-212c12-13 32-14 46-3 13 12 14 32 3 45L241 375a32 32 0 0 1-45 3zM15 570a32 32 0 0 1-3-45l120-126c12-14 32-15 45-3 13 11 15 31 3 45L60 567a32 32 0 0 1-45 3zm9-320a32 32 0 0 1-3-45L141 79c11-14 32-15 45-3 13 11 15 31 3 44L69 247a32 32 0 0 1-45 3zm186 289a32 32 0 0 1-3-45l201-233c12-13 32-14 45-3a32 32 0 0 1 3 45L255 536a32 32 0 0 1-45 3z"/></svg>