<svg width="592" height="747" viewBox="0 0 592 747" fill="none" xmlns="http://www.w3.org/2000/svg">
<path d="M12.5498 539.53C-3.6991 523.834 -4.24763 497.866 11.3614 481.503L434.565 12.6198C450.174 -3.71976 475.999 -4.2713 492.27 11.4248C508.542 27.0979 509.068 53.0895 493.482 69.4291L70.2552 538.312C54.6462 554.675 28.8216 555.227 12.5498 539.53Z" fill="white" fill-opacity="0.04"/>
<path d="M250.251 487.639C233.294 472.701 231.579 446.779 246.434 429.727L486.74 156.596C501.572 139.544 527.351 137.844 544.308 152.759C561.266 167.696 562.98 193.619 548.125 210.671L307.842 483.801C292.987 500.853 267.208 502.577 250.251 487.639Z" fill="white" fill-opacity="0.04"/>
<path d="M19.4748 736.111C2.51738 721.196 0.803259 695.273 15.6581 678.221L168.32 514.734C183.175 497.705 208.954 495.981 225.911 510.919C242.869 525.834 244.56 551.756 229.728 568.808L77.0658 732.296C62.2109 749.325 36.4322 751.048 19.4748 736.111Z" fill="white" fill-opacity="0.04"/>
<path d="M30.7643 322.796C13.8069 307.881 12.093 281.958 26.9479 264.906L179.61 101.419C194.465 84.3668 220.244 82.6662 237.201 97.5809C254.158 112.519 255.85 138.441 241.018 155.493L88.3327 318.958C73.5007 336.01 47.7217 337.733 30.7643 322.796Z" fill="white" fill-opacity="0.04"/>
<path d="M267.688 695.848C250.754 680.933 249.04 655.01 263.895 637.958L520.495 337.113C535.35 320.061 561.129 318.337 578.086 333.275C590.793 344.467 594.929 361.864 589.947 377.031C588.279 382.11 585.605 386.913 581.903 391.187L325.279 692.033C310.424 709.062 284.646 710.785 267.688 695.848Z" fill="white" fill-opacity="0.04"/>
</svg>
