<svg width="1100" height="1100" viewBox="0 0 1100 1100" fill="none" xmlns="http://www.w3.org/2000/svg">
<g clip-path="url(#clip0_29_68)">
<rect width="1100" height="1100" fill="#03568E"/>
<g opacity="0.64">
<rect width="1651" height="1651" transform="translate(-247 -220)" fill="#03568E"/>
<g filter="url(#filter0_i_29_68)">
<rect width="1074.2" height="1074.2" rx="120" transform="matrix(0.707108 -0.707106 0.707108 0.707106 -985.529 620.382)" fill="#03568E"/>
</g>
<g filter="url(#filter1_bd_29_68)">
<rect x="-158.289" y="471.613" width="1396.27" height="1396.27" rx="200" transform="rotate(-45 -158.289 471.613)" fill="white" fill-opacity="0.05" shape-rendering="crispEdges"/>
</g>
<g filter="url(#filter2_di_29_68)">
<path d="M772.115 628.48C659.622 515.987 659.622 333.6 772.115 221.107L1312.84 -319.622C1425.34 -432.115 1607.72 -432.115 1720.22 -319.622L2260.95 221.107C2373.44 333.6 2373.44 515.987 2260.95 628.48L1720.22 1169.21C1607.72 1281.7 1425.34 1281.7 1312.84 1169.21L772.115 628.48Z" fill="#03568E"/>
</g>
<g filter="url(#filter3_f_29_68)">
<path d="M535.149 260.447C534.912 260.684 534.912 261.068 535.149 261.306L538.87 265.027C539.107 265.264 539.492 265.264 539.729 265.027C539.966 264.789 539.966 264.405 539.729 264.168L536.008 260.447C535.771 260.21 535.386 260.21 535.149 260.447Z" fill="#00D1FF"/>
<path d="M529.138 255.295C528.901 255.058 528.901 254.673 529.138 254.436C529.376 254.199 529.76 254.199 529.997 254.436C530.234 254.673 530.234 255.058 529.997 255.295C529.76 255.532 529.376 255.532 529.138 255.295Z" fill="#00D1FF"/>
<path d="M525.99 252.146C525.753 251.909 525.753 251.525 525.99 251.287C526.227 251.05 526.611 251.05 526.849 251.287C527.086 251.525 527.086 251.909 526.849 252.146C526.611 252.383 526.227 252.383 525.99 252.146Z" fill="#00D1FF"/>
<path d="M518.548 244.704C518.311 244.467 518.311 244.083 518.548 243.845C518.785 243.608 519.17 243.608 519.407 243.845C519.644 244.083 519.644 244.467 519.407 244.704C519.17 244.941 518.785 244.941 518.548 244.704Z" fill="#00D1FF"/>
<path d="M515.399 241.556C515.162 241.318 515.162 240.934 515.399 240.697C515.637 240.46 516.021 240.46 516.258 240.697C516.495 240.934 516.495 241.318 516.258 241.556C516.021 241.793 515.637 241.793 515.399 241.556Z" fill="#00D1FF"/>
<path d="M539.847 280.415C539.609 280.652 539.225 280.652 538.988 280.415L528.397 269.824C528.16 269.587 528.16 269.203 528.397 268.966C528.634 268.729 529.019 268.729 529.256 268.966L539.847 279.556C540.084 279.793 540.084 280.178 539.847 280.415Z" fill="#00D1FF"/>
<path d="M518.665 259.234C518.428 259.471 518.044 259.471 517.807 259.234L514.372 255.799C514.135 255.562 514.135 255.178 514.372 254.94C514.609 254.703 514.993 254.703 515.23 254.94L518.665 258.375C518.902 258.612 518.902 258.997 518.665 259.234Z" fill="#00D1FF"/>
<path d="M542.422 283.85C542.659 284.087 543.044 284.087 543.281 283.85C543.518 283.613 543.518 283.228 543.281 282.991C543.044 282.754 542.659 282.754 542.422 282.991C542.185 283.228 542.185 283.613 542.422 283.85Z" fill="#00D1FF"/>
<path d="M520.955 262.382C521.192 262.62 521.576 262.62 521.813 262.382C522.051 262.145 522.051 261.761 521.813 261.524C521.576 261.287 521.192 261.287 520.955 261.524C520.718 261.761 520.718 262.145 520.955 262.382Z" fill="#00D1FF"/>
<path d="M524.103 265.531C524.341 265.768 524.725 265.768 524.962 265.531C525.199 265.294 525.199 264.909 524.962 264.672C524.725 264.435 524.341 264.435 524.103 264.672C523.866 264.909 523.866 265.294 524.103 265.531Z" fill="#00D1FF"/>
<path d="M519.249 285.752C519.486 285.515 519.871 285.515 520.108 285.752L522.397 288.042C522.635 288.279 522.635 288.664 522.397 288.901C522.16 289.138 521.776 289.138 521.539 288.901L519.249 286.611C519.012 286.374 519.012 285.99 519.249 285.752Z" fill="#00D1FF"/>
<path d="M508.086 274.589C508.323 274.352 508.708 274.352 508.945 274.589L512.666 278.31C512.903 278.548 512.903 278.932 512.666 279.169C512.429 279.406 512.044 279.406 511.807 279.169L508.086 275.448C507.849 275.211 507.849 274.827 508.086 274.589Z" fill="#00D1FF"/>
<path d="M516.959 282.604C516.722 282.367 516.338 282.367 516.1 282.604C515.863 282.841 515.863 283.225 516.1 283.463C516.338 283.7 516.722 283.7 516.959 283.463C517.196 283.225 517.196 282.841 516.959 282.604Z" fill="#00D1FF"/>
<path d="M500.93 266.575C500.693 266.338 500.309 266.338 500.072 266.575C499.834 266.812 499.834 267.197 500.072 267.434C500.309 267.671 500.693 267.671 500.93 267.434C501.167 267.197 501.167 266.812 500.93 266.575Z" fill="#00D1FF"/>
<path d="M494.919 260.564C494.682 260.327 494.298 260.327 494.061 260.564C493.824 260.801 493.824 261.186 494.061 261.423C494.298 261.66 494.682 261.66 494.919 261.423C495.156 261.186 495.156 260.801 494.919 260.564Z" fill="#00D1FF"/>
<path d="M529.321 284.42C529.559 284.182 529.943 284.182 530.18 284.42L550.789 305.028C551.026 305.265 551.026 305.65 550.789 305.887C550.552 306.124 550.167 306.124 549.93 305.887L529.321 285.278C529.084 285.041 529.084 284.657 529.321 284.42Z" fill="#00D1FF"/>
<path d="M525.6 279.84C525.363 279.603 524.979 279.603 524.742 279.84C524.505 280.077 524.505 280.461 524.742 280.699C524.979 280.936 525.363 280.936 525.6 280.699C525.838 280.461 525.838 280.077 525.6 279.84Z" fill="#00D1FF"/>
<path d="M520.305 274.545C520.068 274.308 519.684 274.308 519.446 274.545C519.209 274.782 519.209 275.166 519.446 275.403C519.684 275.64 520.068 275.64 520.305 275.403C520.542 275.166 520.542 274.782 520.305 274.545Z" fill="#00D1FF"/>
</g>
<g filter="url(#filter4_d_29_68)">
<rect x="-59" y="786.652" width="88.6045" height="88.6046" rx="14" transform="rotate(-45 -59 786.652)" fill="white"/>
</g>
<g filter="url(#filter5_bd_29_68)">
<rect x="741.957" y="172.565" width="136.986" height="136.986" rx="18" transform="rotate(-45 741.957 172.565)" fill="#E0E0E0" fill-opacity="0.16" shape-rendering="crispEdges"/>
</g>
<g opacity="0.32" filter="url(#filter6_f_29_68)">
<g filter="url(#filter7_f_29_68)">
<path d="M35.153 301.972C32.1228 302.076 29.5815 299.698 29.4769 296.658L28.9721 281.984C28.8675 278.945 31.2393 276.396 34.2695 276.291L48.9009 275.785C51.9311 275.68 54.4724 278.058 54.5769 281.098L55.0818 295.772C55.1864 298.812 52.8146 301.36 49.7844 301.465L35.153 301.972Z" fill="#00FFF0"/>
<path d="M112.853 355.97C113.563 355.258 113.563 354.103 112.853 353.391L72.5626 312.981C71.8524 312.269 70.701 312.269 69.9908 312.981C69.2806 313.693 69.2806 314.848 69.9908 315.56L110.281 355.97C110.992 356.682 112.143 356.682 112.853 355.97Z" fill="#00FFF0"/>
<path d="M126.568 367.147C127.279 367.86 127.279 369.014 126.568 369.727C125.858 370.439 124.707 370.439 123.997 369.727C123.287 369.014 123.287 367.86 123.997 367.147C124.707 366.435 125.858 366.435 126.568 367.147Z" fill="#00FFF0"/>
<path d="M135.999 376.605C136.709 377.317 136.709 378.472 135.999 379.184C135.289 379.896 134.137 379.896 133.427 379.184C132.717 378.472 132.717 377.317 133.427 376.605C134.137 375.893 135.289 375.893 135.999 376.605Z" fill="#00FFF0"/>
<path d="M61.4865 324.347C62.1967 323.634 62.1967 322.48 61.4865 321.767L54.6286 314.889C53.9184 314.177 52.767 314.177 52.0568 314.889C51.3466 315.601 51.3466 316.756 52.0568 317.468L58.9148 324.347C59.625 325.059 60.7764 325.059 61.4865 324.347Z" fill="#00FFF0"/>
<path d="M67.4882 327.786C68.1984 328.498 68.1984 329.653 67.4882 330.365C66.7781 331.078 65.6267 331.078 64.9165 330.365C64.2063 329.653 64.2063 328.498 64.9165 327.786C65.6267 327.074 66.7781 327.074 67.4882 327.786Z" fill="#00FFF0"/>
<path d="M92.6951 310.051C93.4053 309.339 93.4053 308.184 92.6951 307.471L78.1219 292.855C77.4118 292.143 76.2604 292.143 75.5502 292.855C74.84 293.567 74.84 294.722 75.5502 295.434L90.1234 310.051C90.8335 310.763 91.985 310.763 92.6951 310.051Z" fill="#00FFF0"/>
<path d="M102.123 316.929C102.833 317.641 102.833 318.796 102.123 319.508C101.413 320.221 100.261 320.221 99.5512 319.508C98.8411 318.796 98.8411 317.641 99.5512 316.929C100.261 316.217 101.413 316.217 102.123 316.929Z" fill="#00FFF0"/>
<path d="M113.696 328.536C114.406 329.248 114.406 330.403 113.696 331.115C112.986 331.828 111.835 331.828 111.125 331.115C110.414 330.403 110.414 329.248 111.125 328.536C111.835 327.824 112.986 327.824 113.696 328.536Z" fill="#00FFF0"/>
</g>
<path d="M35.3731 302.053C32.3522 302.157 29.8189 299.792 29.7146 296.772L29.2113 282.186C29.1071 279.165 31.4715 276.631 34.4923 276.527L49.0783 276.024C52.0992 275.92 54.6326 278.284 54.7368 281.305L55.2401 295.891C55.3443 298.912 52.98 301.445 49.9591 301.549L35.3731 302.053Z" fill="url(#paint0_linear_29_68)" fill-opacity="0.88"/>
<path d="M112.832 355.725C113.54 355.017 113.54 353.869 112.832 353.161L72.6667 312.995C71.9587 312.287 70.8109 312.287 70.1029 312.995C69.3949 313.703 69.3949 314.851 70.1029 315.559L110.269 355.725C110.977 356.433 112.124 356.433 112.832 355.725Z" fill="url(#paint1_linear_29_68)" fill-opacity="0.88"/>
<path d="M126.505 366.835C127.213 367.542 127.213 368.69 126.505 369.398C125.797 370.106 124.649 370.106 123.941 369.398C123.233 368.69 123.233 367.542 123.941 366.835C124.649 366.127 125.797 366.127 126.505 366.835Z" fill="url(#paint2_linear_29_68)" fill-opacity="0.88"/>
<path d="M135.906 376.235C136.614 376.943 136.614 378.091 135.906 378.799C135.198 379.507 134.051 379.507 133.343 378.799C132.635 378.091 132.635 376.943 133.343 376.235C134.051 375.527 135.198 375.527 135.906 376.235Z" fill="url(#paint3_linear_29_68)" fill-opacity="0.88"/>
<path d="M61.625 324.293C62.3329 323.585 62.3329 322.437 61.625 321.729L54.7883 314.892C54.0803 314.184 52.9325 314.184 52.2245 314.892C51.5165 315.6 51.5165 316.748 52.2245 317.456L59.0612 324.293C59.7692 325.001 60.917 325.001 61.625 324.293Z" fill="url(#paint4_linear_29_68)" fill-opacity="0.88"/>
<path d="M67.6081 327.711C68.316 328.419 68.316 329.567 67.6081 330.275C66.9001 330.983 65.7523 330.983 65.0443 330.275C64.3363 329.567 64.3363 328.419 65.0443 327.711C65.7523 327.003 66.9001 327.003 67.6081 327.711Z" fill="url(#paint5_linear_29_68)" fill-opacity="0.88"/>
<path d="M92.7368 310.083C93.4448 309.375 93.4448 308.227 92.7368 307.519L78.2088 292.991C77.5008 292.283 76.353 292.283 75.645 292.991C74.9371 293.699 74.9371 294.847 75.645 295.555L90.173 310.083C90.881 310.791 92.0288 310.791 92.7368 310.083Z" fill="url(#paint6_linear_29_68)" fill-opacity="0.88"/>
<path d="M102.135 316.92C102.843 317.628 102.843 318.775 102.135 319.483C101.427 320.191 100.28 320.191 99.5717 319.483C98.8637 318.775 98.8637 317.628 99.5717 316.92C100.28 316.212 101.427 316.212 102.135 316.92Z" fill="url(#paint7_linear_29_68)" fill-opacity="0.88"/>
<path d="M113.673 328.457C114.381 329.165 114.381 330.312 113.673 331.02C112.965 331.728 111.817 331.728 111.109 331.02C110.401 330.312 110.401 329.165 111.109 328.457C111.817 327.749 112.965 327.749 113.673 328.457Z" fill="url(#paint8_linear_29_68)" fill-opacity="0.88"/>
</g>
<g filter="url(#filter8_bd_29_68)">
<path d="M-220.067 629.315C-255.978 593.243 -255.978 534.757 -220.067 498.685L-90.0223 368.054C-54.1115 331.982 4.11147 331.982 40.0223 368.054L170.067 498.685C205.978 534.757 205.978 593.243 170.067 629.315L40.0223 759.946C4.11147 796.018 -54.1115 796.018 -90.0223 759.946L-220.067 629.315Z" fill="#E0E0E0" fill-opacity="0.16" shape-rendering="crispEdges"/>
</g>
<line x1="164.884" y1="-9.53183" x2="-66.1164" y2="426.468" stroke="url(#paint9_linear_29_68)" stroke-width="2"/>
</g>
<rect x="-14" width="1164" height="1092" fill="url(#paint10_linear_29_68)"/>
<rect x="-14" width="1164" height="1092" fill="url(#paint11_linear_29_68)"/>
<g filter="url(#filter9_b_29_68)">
<path d="M273.413 675.564H202V407.222H371.678V465.405H273.413V516.614H364.886V574.798H273.413V675.564Z" fill="white" fill-opacity="0.06"/>
<path d="M273.413 675.564H202V407.222H371.678V465.405H273.413V516.614H364.886V574.798H273.413V675.564Z" fill="url(#paint12_linear_29_68)"/>
<path d="M590.367 675.564L577.149 625.273H489.949L476.364 675.564H396.69L484.258 406.12H581.004L669.674 675.564H590.367ZM562.096 565.804L550.53 521.754C547.838 511.965 544.533 499.3 540.617 483.76C536.823 468.22 534.314 457.085 533.09 450.355C531.989 456.595 529.786 466.874 526.481 481.19C523.299 495.507 516.14 523.711 505.002 565.804H562.096Z" fill="white" fill-opacity="0.06"/>
<path d="M590.367 675.564L577.149 625.273H489.949L476.364 675.564H396.69L484.258 406.12H581.004L669.674 675.564H590.367ZM562.096 565.804L550.53 521.754C547.838 511.965 544.533 499.3 540.617 483.76C536.823 468.22 534.314 457.085 533.09 450.355C531.989 456.595 529.786 466.874 526.481 481.19C523.299 495.507 516.14 523.711 505.002 565.804H562.096Z" fill="url(#paint13_linear_29_68)"/>
<path fill-rule="evenodd" clip-rule="evenodd" d="M950 541.026C950 586.178 938.924 620.501 916.772 643.994C915.96 644.855 915.135 645.701 914.295 646.53L930.727 665.348L893.529 698L870.907 672.094C855.846 676.855 838.702 679.235 819.475 679.235C777.374 679.235 745.064 667.427 722.545 643.811C700.148 620.195 688.949 585.811 688.949 540.659C688.949 495.996 700.087 461.918 722.361 438.424C744.758 414.808 777.251 403 819.842 403C862.555 403 894.926 414.686 916.956 438.057C938.985 461.428 950 495.751 950 541.026ZM819.475 618.849C783.371 618.849 765.319 592.908 765.319 541.026C765.319 488.654 783.493 462.469 819.842 462.469C837.71 462.469 851.112 468.893 860.046 481.741C869.102 494.467 873.631 514.228 873.631 541.026C873.631 561.841 870.911 578.372 865.471 590.619L848.885 571.625L811.686 604.277L824.279 618.698C822.716 618.799 821.114 618.849 819.475 618.849Z" fill="white" fill-opacity="0.06"/>
<path fill-rule="evenodd" clip-rule="evenodd" d="M950 541.026C950 586.178 938.924 620.501 916.772 643.994C915.96 644.855 915.135 645.701 914.295 646.53L930.727 665.348L893.529 698L870.907 672.094C855.846 676.855 838.702 679.235 819.475 679.235C777.374 679.235 745.064 667.427 722.545 643.811C700.148 620.195 688.949 585.811 688.949 540.659C688.949 495.996 700.087 461.918 722.361 438.424C744.758 414.808 777.251 403 819.842 403C862.555 403 894.926 414.686 916.956 438.057C938.985 461.428 950 495.751 950 541.026ZM819.475 618.849C783.371 618.849 765.319 592.908 765.319 541.026C765.319 488.654 783.493 462.469 819.842 462.469C837.71 462.469 851.112 468.893 860.046 481.741C869.102 494.467 873.631 514.228 873.631 541.026C873.631 561.841 870.911 578.372 865.471 590.619L848.885 571.625L811.686 604.277L824.279 618.698C822.716 618.799 821.114 618.849 819.475 618.849Z" fill="url(#paint14_linear_29_68)"/>
<path d="M273.413 675.564H202V407.222H371.678V465.405H273.413V516.614H364.886V574.798H273.413V675.564Z" stroke="white" stroke-opacity="0.08"/>
<path d="M590.367 675.564L577.149 625.273H489.949L476.364 675.564H396.69L484.258 406.12H581.004L669.674 675.564H590.367ZM562.096 565.804L550.53 521.754C547.838 511.965 544.533 499.3 540.617 483.76C536.823 468.22 534.314 457.085 533.09 450.355C531.989 456.595 529.786 466.874 526.481 481.19C523.299 495.507 516.14 523.711 505.002 565.804H562.096Z" stroke="white" stroke-opacity="0.08"/>
<path fill-rule="evenodd" clip-rule="evenodd" d="M950 541.026C950 586.178 938.924 620.501 916.772 643.994C915.96 644.855 915.135 645.701 914.295 646.53L930.727 665.348L893.529 698L870.907 672.094C855.846 676.855 838.702 679.235 819.475 679.235C777.374 679.235 745.064 667.427 722.545 643.811C700.148 620.195 688.949 585.811 688.949 540.659C688.949 495.996 700.087 461.918 722.361 438.424C744.758 414.808 777.251 403 819.842 403C862.555 403 894.926 414.686 916.956 438.057C938.985 461.428 950 495.751 950 541.026ZM819.475 618.849C783.371 618.849 765.319 592.908 765.319 541.026C765.319 488.654 783.493 462.469 819.842 462.469C837.71 462.469 851.112 468.893 860.046 481.741C869.102 494.467 873.631 514.228 873.631 541.026C873.631 561.841 870.911 578.372 865.471 590.619L848.885 571.625L811.686 604.277L824.279 618.698C822.716 618.799 821.114 618.849 819.475 618.849Z" stroke="white" stroke-opacity="0.08"/>
</g>
</g>
<defs>
<filter id="filter0_i_29_68" x="-943.823" y="-94.4849" width="1427.74" height="1424.73" filterUnits="userSpaceOnUse" color-interpolation-filters="sRGB">
<feFlood flood-opacity="0" result="BackgroundImageFix"/>
<feBlend mode="normal" in="SourceGraphic" in2="BackgroundImageFix" result="shape"/>
<feColorMatrix in="SourceAlpha" type="matrix" values="0 0 0 0 0 0 0 0 0 0 0 0 0 0 0 0 0 0 127 0" result="hardAlpha"/>
<feOffset dx="-9" dy="-5"/>
<feGaussianBlur stdDeviation="4"/>
<feComposite in2="hardAlpha" operator="arithmetic" k2="-1" k3="1"/>
<feColorMatrix type="matrix" values="0 0 0 0 0 0 0 0 0 0 0 0 0 0 0 0 0 0 0.1 0"/>
<feBlend mode="normal" in2="shape" result="effect1_innerShadow_29_68"/>
</filter>
<filter id="filter1_bd_29_68" x="-88.4463" y="-443.858" width="1832.94" height="1832.94" filterUnits="userSpaceOnUse" color-interpolation-filters="sRGB">
<feFlood flood-opacity="0" result="BackgroundImageFix"/>
<feGaussianBlur in="BackgroundImage" stdDeviation="4"/>
<feComposite in2="SourceAlpha" operator="in" result="effect1_backgroundBlur_29_68"/>
<feColorMatrix in="SourceAlpha" type="matrix" values="0 0 0 0 0 0 0 0 0 0 0 0 0 0 0 0 0 0 127 0" result="hardAlpha"/>
<feOffset dx="-1" dy="1"/>
<feGaussianBlur stdDeviation="6"/>
<feComposite in2="hardAlpha" operator="out"/>
<feColorMatrix type="matrix" values="0 0 0 0 0 0 0 0 0 0 0 0 0 0 0 0 0 0 0.12 0"/>
<feBlend mode="normal" in2="effect1_backgroundBlur_29_68" result="effect2_dropShadow_29_68"/>
<feBlend mode="normal" in="SourceGraphic" in2="effect2_dropShadow_29_68" result="shape"/>
</filter>
<filter id="filter2_di_29_68" x="671.745" y="-403.992" width="1689.57" height="1689.57" filterUnits="userSpaceOnUse" color-interpolation-filters="sRGB">
<feFlood flood-opacity="0" result="BackgroundImageFix"/>
<feColorMatrix in="SourceAlpha" type="matrix" values="0 0 0 0 0 0 0 0 0 0 0 0 0 0 0 0 0 0 127 0" result="hardAlpha"/>
<feOffset dy="16"/>
<feGaussianBlur stdDeviation="8"/>
<feComposite in2="hardAlpha" operator="out"/>
<feColorMatrix type="matrix" values="0 0 0 0 0 0 0 0 0 0 0 0 0 0 0 0 0 0 0.44 0"/>
<feBlend mode="normal" in2="BackgroundImageFix" result="effect1_dropShadow_29_68"/>
<feBlend mode="normal" in="SourceGraphic" in2="effect1_dropShadow_29_68" result="shape"/>
<feColorMatrix in="SourceAlpha" type="matrix" values="0 0 0 0 0 0 0 0 0 0 0 0 0 0 0 0 0 0 127 0" result="hardAlpha"/>
<feOffset dx="2"/>
<feComposite in2="hardAlpha" operator="arithmetic" k2="-1" k3="1"/>
<feColorMatrix type="matrix" values="0 0 0 0 1 0 0 0 0 1 0 0 0 0 1 0 0 0 0.6 0"/>
<feBlend mode="normal" in2="shape" result="effect2_innerShadow_29_68"/>
</filter>
<filter id="filter3_f_29_68" x="477.883" y="224.519" width="89.084" height="97.5459" filterUnits="userSpaceOnUse" color-interpolation-filters="sRGB">
<feFlood flood-opacity="0" result="BackgroundImageFix"/>
<feBlend mode="normal" in="SourceGraphic" in2="BackgroundImageFix" result="shape"/>
<feGaussianBlur stdDeviation="8" result="effect1_foregroundBlur_29_68"/>
</filter>
<filter id="filter4_d_29_68" x="-61.2012" y="725.799" width="129.708" height="129.707" filterUnits="userSpaceOnUse" color-interpolation-filters="sRGB">
<feFlood flood-opacity="0" result="BackgroundImageFix"/>
<feColorMatrix in="SourceAlpha" type="matrix" values="0 0 0 0 0 0 0 0 0 0 0 0 0 0 0 0 0 0 127 0" result="hardAlpha"/>
<feOffset dy="4"/>
<feGaussianBlur stdDeviation="4"/>
<feComposite in2="hardAlpha" operator="out"/>
<feColorMatrix type="matrix" values="0 0 0 0 0 0 0 0 0 0 0 0 0 0 0 0 0 0 0.25 0"/>
<feBlend mode="normal" in2="BackgroundImageFix" result="effect1_dropShadow_29_68"/>
<feBlend mode="normal" in="SourceGraphic" in2="effect1_dropShadow_29_68" result="shape"/>
</filter>
<filter id="filter5_bd_29_68" x="741.413" y="75.1572" width="194.816" height="198.816" filterUnits="userSpaceOnUse" color-interpolation-filters="sRGB">
<feFlood flood-opacity="0" result="BackgroundImageFix"/>
<feGaussianBlur in="BackgroundImage" stdDeviation="4"/>
<feComposite in2="SourceAlpha" operator="in" result="effect1_backgroundBlur_29_68"/>
<feColorMatrix in="SourceAlpha" type="matrix" values="0 0 0 0 0 0 0 0 0 0 0 0 0 0 0 0 0 0 127 0" result="hardAlpha"/>
<feOffset dx="2" dy="6"/>
<feGaussianBlur stdDeviation="3"/>
<feComposite in2="hardAlpha" operator="out"/>
<feColorMatrix type="matrix" values="0 0 0 0 0 0 0 0 0 0 0 0 0 0 0 0 0 0 0.12 0"/>
<feBlend mode="normal" in2="effect1_backgroundBlur_29_68" result="effect2_dropShadow_29_68"/>
<feBlend mode="normal" in="SourceGraphic" in2="effect2_dropShadow_29_68" result="shape"/>
</filter>
<filter id="filter6_f_29_68" x="22.9688" y="269.781" width="119.562" height="115.937" filterUnits="userSpaceOnUse" color-interpolation-filters="sRGB">
<feFlood flood-opacity="0" result="BackgroundImageFix"/>
<feBlend mode="normal" in="SourceGraphic" in2="BackgroundImageFix" result="shape"/>
<feGaussianBlur stdDeviation="3" result="effect1_foregroundBlur_29_68"/>
</filter>
<filter id="filter7_f_29_68" x="16.9688" y="263.781" width="131.562" height="127.937" filterUnits="userSpaceOnUse" color-interpolation-filters="sRGB">
<feFlood flood-opacity="0" result="BackgroundImageFix"/>
<feBlend mode="normal" in="SourceGraphic" in2="BackgroundImageFix" result="shape"/>
<feGaussianBlur stdDeviation="6" result="effect1_foregroundBlur_29_68"/>
</filter>
<filter id="filter8_bd_29_68" x="-255" y="330" width="466" height="468" filterUnits="userSpaceOnUse" color-interpolation-filters="sRGB">
<feFlood flood-opacity="0" result="BackgroundImageFix"/>
<feGaussianBlur in="BackgroundImage" stdDeviation="4"/>
<feComposite in2="SourceAlpha" operator="in" result="effect1_backgroundBlur_29_68"/>
<feColorMatrix in="SourceAlpha" type="matrix" values="0 0 0 0 0 0 0 0 0 0 0 0 0 0 0 0 0 0 127 0" result="hardAlpha"/>
<feOffset dx="3"/>
<feGaussianBlur stdDeviation="5.5"/>
<feComposite in2="hardAlpha" operator="out"/>
<feColorMatrix type="matrix" values="0 0 0 0 0 0 0 0 0 0 0 0 0 0 0 0 0 0 0.13 0"/>
<feBlend mode="normal" in2="effect1_backgroundBlur_29_68" result="effect2_dropShadow_29_68"/>
<feBlend mode="normal" in="SourceGraphic" in2="effect2_dropShadow_29_68" result="shape"/>
</filter>
<filter id="filter9_b_29_68" x="190.5" y="391.5" width="771" height="318.206" filterUnits="userSpaceOnUse" color-interpolation-filters="sRGB">
<feFlood flood-opacity="0" result="BackgroundImageFix"/>
<feGaussianBlur in="BackgroundImage" stdDeviation="5.5"/>
<feComposite in2="SourceAlpha" operator="in" result="effect1_backgroundBlur_29_68"/>
<feBlend mode="normal" in="SourceGraphic" in2="effect1_backgroundBlur_29_68" result="shape"/>
</filter>
<linearGradient id="paint0_linear_29_68" x1="28.9684" y1="275.781" x2="136.531" y2="385.761" gradientUnits="userSpaceOnUse">
<stop stop-color="white"/>
<stop offset="0.391402" stop-color="white" stop-opacity="0.52"/>
<stop offset="1" stop-color="white" stop-opacity="0"/>
</linearGradient>
<linearGradient id="paint1_linear_29_68" x1="28.9684" y1="275.781" x2="136.531" y2="385.761" gradientUnits="userSpaceOnUse">
<stop stop-color="white"/>
<stop offset="0.391402" stop-color="white" stop-opacity="0.52"/>
<stop offset="1" stop-color="white" stop-opacity="0"/>
</linearGradient>
<linearGradient id="paint2_linear_29_68" x1="28.9684" y1="275.781" x2="136.531" y2="385.761" gradientUnits="userSpaceOnUse">
<stop stop-color="white"/>
<stop offset="0.391402" stop-color="white" stop-opacity="0.52"/>
<stop offset="1" stop-color="white" stop-opacity="0"/>
</linearGradient>
<linearGradient id="paint3_linear_29_68" x1="28.9684" y1="275.781" x2="136.531" y2="385.761" gradientUnits="userSpaceOnUse">
<stop stop-color="white"/>
<stop offset="0.391402" stop-color="white" stop-opacity="0.52"/>
<stop offset="1" stop-color="white" stop-opacity="0"/>
</linearGradient>
<linearGradient id="paint4_linear_29_68" x1="28.9684" y1="275.781" x2="136.531" y2="385.761" gradientUnits="userSpaceOnUse">
<stop stop-color="white"/>
<stop offset="0.391402" stop-color="white" stop-opacity="0.52"/>
<stop offset="1" stop-color="white" stop-opacity="0"/>
</linearGradient>
<linearGradient id="paint5_linear_29_68" x1="28.9684" y1="275.781" x2="136.531" y2="385.761" gradientUnits="userSpaceOnUse">
<stop stop-color="white"/>
<stop offset="0.391402" stop-color="white" stop-opacity="0.52"/>
<stop offset="1" stop-color="white" stop-opacity="0"/>
</linearGradient>
<linearGradient id="paint6_linear_29_68" x1="28.9684" y1="275.781" x2="136.531" y2="385.761" gradientUnits="userSpaceOnUse">
<stop stop-color="white"/>
<stop offset="0.391402" stop-color="white" stop-opacity="0.52"/>
<stop offset="1" stop-color="white" stop-opacity="0"/>
</linearGradient>
<linearGradient id="paint7_linear_29_68" x1="28.9684" y1="275.781" x2="136.531" y2="385.761" gradientUnits="userSpaceOnUse">
<stop stop-color="white"/>
<stop offset="0.391402" stop-color="white" stop-opacity="0.52"/>
<stop offset="1" stop-color="white" stop-opacity="0"/>
</linearGradient>
<linearGradient id="paint8_linear_29_68" x1="28.9684" y1="275.781" x2="136.531" y2="385.761" gradientUnits="userSpaceOnUse">
<stop stop-color="white"/>
<stop offset="0.391402" stop-color="white" stop-opacity="0.52"/>
<stop offset="1" stop-color="white" stop-opacity="0"/>
</linearGradient>
<linearGradient id="paint9_linear_29_68" x1="164" y1="-10" x2="-38.6293" y2="372.457" gradientUnits="userSpaceOnUse">
<stop stop-color="white" stop-opacity="0"/>
<stop offset="0.302083" stop-color="white" stop-opacity="0.55"/>
<stop offset="1" stop-color="white" stop-opacity="0"/>
</linearGradient>
<linearGradient id="paint10_linear_29_68" x1="568" y1="0" x2="568" y2="1092" gradientUnits="userSpaceOnUse">
<stop offset="0.03663" stop-color="#03568E"/>
<stop offset="0.115385" stop-color="#03568E" stop-opacity="0.7"/>
<stop offset="0.186813" stop-color="#03568E" stop-opacity="0"/>
<stop offset="0.736264" stop-color="#03568E" stop-opacity="0.12"/>
<stop offset="0.875458" stop-color="#03568E"/>
<stop offset="1" stop-color="#03568E"/>
</linearGradient>
<linearGradient id="paint11_linear_29_68" x1="1094" y1="516" x2="1.99996" y2="520" gradientUnits="userSpaceOnUse">
<stop stop-color="#03568E"/>
<stop offset="0.0752247" stop-color="#03568E" stop-opacity="0.4"/>
<stop offset="0.137522" stop-color="#03568E" stop-opacity="0"/>
<stop offset="0.805944" stop-color="#03568E" stop-opacity="0"/>
<stop offset="0.899349" stop-color="#03568E" stop-opacity="0.44"/>
<stop offset="0.990937" stop-color="#03568E"/>
</linearGradient>
<linearGradient id="paint12_linear_29_68" x1="648.539" y1="403" x2="575.938" y2="697.985" gradientUnits="userSpaceOnUse">
<stop offset="0.0315186" stop-color="#79C9FF" stop-opacity="0.15"/>
<stop offset="1" stop-color="#024675" stop-opacity="0.15"/>
</linearGradient>
<linearGradient id="paint13_linear_29_68" x1="648.539" y1="403" x2="575.938" y2="697.985" gradientUnits="userSpaceOnUse">
<stop offset="0.0315186" stop-color="#79C9FF" stop-opacity="0.15"/>
<stop offset="1" stop-color="#024675" stop-opacity="0.15"/>
</linearGradient>
<linearGradient id="paint14_linear_29_68" x1="648.539" y1="403" x2="575.938" y2="697.985" gradientUnits="userSpaceOnUse">
<stop offset="0.0315186" stop-color="#79C9FF" stop-opacity="0.15"/>
<stop offset="1" stop-color="#024675" stop-opacity="0.15"/>
</linearGradient>
<clipPath id="clip0_29_68">
<rect width="1100" height="1100" fill="white"/>
</clipPath>
</defs>
</svg>
