<svg xmlns="http://www.w3.org/2000/svg" fill="none" viewBox="0 0 1100 360"><g clip-path="url(#a)"><path fill="#03568E" d="M0 0h1100v360H0z"/><g filter="url(#b)"><rect width="440.22" height="440.22" fill="#03568E" rx="120" transform="rotate(-45 171.64 230.9)"/></g><g filter="url(#c)"><rect width="849.94" height="849.94" x="291" y="198" fill="#E0E0E0" fill-opacity=".16" rx="200" shape-rendering="crispEdges" transform="rotate(-45 291 198)"/></g><g filter="url(#d)"><path fill="#03568E" d="M857.36 293.49c-68.48-68.48-68.48-179.5 0-247.98l329.15-329.15c68.48-68.48 179.5-68.48 247.98 0L1763.64 45.5c68.48 68.48 68.48 179.5 0 247.98l-329.15 329.15c-68.48 68.48-179.5 68.48-247.98 0L857.36 293.5Z"/></g><g fill="#00D1FF" filter="url(#e)"><path d="M1019.15 257.45a.6.6 0 0 0 0 .86l3.72 3.72a.6.6 0 0 0 .86-.86l-3.72-3.72a.6.6 0 0 0-.86 0Zm-6.01-5.15a.6.6 0 0 1 .86-.86c.23.23.23.62 0 .85a.6.6 0 0 1-.86 0Zm-3.15-3.15a.6.6 0 1 1 .86-.86.6.6 0 0 1-.86.86Zm-7.44-7.45a.6.6 0 1 1 .86-.86c.23.24.23.63 0 .86a.6.6 0 0 1-.86 0Zm-3.15-3.14a.6.6 0 1 1 .86-.86.6.6 0 0 1 0 .86.61.61 0 0 1-.86 0Zm24.45 38.86a.6.6 0 0 1-.86 0l-10.59-10.6a.6.6 0 0 1 .86-.86l10.59 10.6c.23.23.23.62 0 .86Zm-21.18-21.19a.6.6 0 0 1-.86 0l-3.44-3.43a.6.6 0 1 1 .86-.86l3.44 3.44c.23.23.23.62 0 .85Zm23.75 24.62a.6.6 0 0 0 .86-.86.6.6 0 0 0-.86 0 .62.62 0 0 0 0 .86Zm-21.47-21.47a.6.6 0 0 0 .86-.86.6.6 0 0 0-.86 0 .62.62 0 0 0 0 .86Zm3.15 3.15a.6.6 0 0 0 .86-.86.6.6 0 0 0-.86 0 .62.62 0 0 0 0 .86Zm-4.85 20.22a.6.6 0 0 1 .86 0l2.29 2.3c.23.23.23.61 0 .85a.6.6 0 0 1-.86 0l-2.29-2.29a.6.6 0 0 1 0-.86Zm-11.16-11.16a.6.6 0 0 1 .86 0l3.72 3.72a.6.6 0 1 1-.86.86l-3.72-3.72a.6.6 0 0 1 0-.86Zm8.87 8.01a.6.6 0 0 0-.86.86.6.6 0 0 0 .86-.86Zm-16.03-16.03a.6.6 0 1 0-.86.86.6.6 0 0 0 .86-.86Zm-6.01-6.01a.6.6 0 1 0-.86.86.6.6 0 0 0 .86-.86Zm34.4 23.86a.6.6 0 0 1 .86 0l20.61 20.6a.6.6 0 0 1-.86.86l-20.61-20.6a.6.6 0 0 1 0-.86Zm-3.72-4.58a.6.6 0 0 0-.86.86.6.6 0 0 0 .86-.86Zm-5.29-5.29a.6.6 0 0 0-.86 0 .6.6 0 1 0 .86.86.62.62 0 0 0 0-.86Z"/></g><path fill="url(#f)" fill-opacity=".4" d="M1018.73 257.05a.61.61 0 0 0 .03.85l3.84 3.6a.6.6 0 0 0 .86-.02.61.61 0 0 0-.03-.86l-3.84-3.6a.6.6 0 0 0-.86.03Z"/><path fill="url(#g)" fill-opacity=".4" d="M1012.56 252.09a.61.61 0 0 1-.03-.86.6.6 0 0 1 .86-.03.6.6 0 0 1 .03.86.6.6 0 0 1-.86.03Z"/><path fill="url(#h)" fill-opacity=".4" d="M1009.31 249.04a.62.62 0 0 1-.03-.85.6.6 0 0 1 .89.83.6.6 0 0 1-.86.02Z"/><path fill="url(#i)" fill-opacity=".4" d="M1001.64 241.84a.6.6 0 0 1-.03-.85.6.6 0 0 1 .86-.03.6.6 0 0 1 .02.85.6.6 0 0 1-.85.03Z"/><path fill="url(#j)" fill-opacity=".4" d="M998.39 238.8a.6.6 0 1 1 .83-.88.6.6 0 0 1-.83.88Z"/><path fill="url(#k)" fill-opacity=".4" d="M1024.07 276.85a.6.6 0 0 1-.86.03l-10.93-10.25a.61.61 0 0 1-.02-.85.6.6 0 0 1 .85-.03l10.93 10.25a.6.6 0 0 1 .03.85Z"/><path fill="url(#l)" fill-opacity=".4" d="M1002.22 256.36a.6.6 0 0 1-.86.03l-3.54-3.32a.6.6 0 1 1 .83-.89l3.54 3.32a.6.6 0 0 1 .03.86Z"/><path fill="url(#m)" fill-opacity=".4" d="M1026.75 280.2a.6.6 0 0 0 .86-.02.6.6 0 0 0-.89-.83.61.61 0 0 0 .03.86Z"/><path fill="url(#n)" fill-opacity=".4" d="M1004.61 259.44a.6.6 0 0 0 .86-.03.62.62 0 0 0-.03-.86.6.6 0 0 0-.86.03.6.6 0 0 0 .03.86Z"/><path fill="url(#o)" fill-opacity=".4" d="M1007.85 262.48a.61.61 0 0 0 .84-.88.6.6 0 0 0-.84.88Z"/><path fill="url(#p)" fill-opacity=".4" d="M1003.65 282.85a.6.6 0 0 1 .86-.03l2.36 2.22c.24.22.26.6.03.85a.6.6 0 0 1-.86.03l-2.36-2.21a.6.6 0 0 1-.03-.86Z"/><path fill="url(#q)" fill-opacity=".4" d="M992.13 272.05a.6.6 0 0 1 .86-.03l3.84 3.6a.6.6 0 0 1-.83.89l-3.84-3.6a.6.6 0 0 1-.02-.86Z"/><path fill="url(#r)" fill-opacity=".4" d="M1001.26 279.77a.6.6 0 0 0-.86.03.6.6 0 0 0 .89.83.61.61 0 0 0-.03-.86Z"/><path fill="url(#s)" fill-opacity=".4" d="M984.73 264.27a.6.6 0 1 0-.83.88.6.6 0 0 0 .83-.88Z"/><path fill="url(#t)" fill-opacity=".4" d="M978.53 258.45a.6.6 0 1 0-.83.89.6.6 0 0 0 .83-.89Z"/><path fill="url(#u)" fill-opacity=".4" d="M1013.67 281.2a.61.61 0 0 1 .86-.03l21.26 19.94c.24.22.26.6.03.85a.6.6 0 0 1-.86.03l-21.26-19.94a.61.61 0 0 1-.03-.86Z"/><path fill="url(#v)" fill-opacity=".4" d="M1009.81 276.74a.6.6 0 0 0-.86.02.6.6 0 0 0 .89.83.61.61 0 0 0-.03-.86Z"/><path fill="url(#w)" fill-opacity=".4" d="M1004.35 271.61a.61.61 0 0 0-.86.03.6.6 0 0 0 .03.86.6.6 0 0 0 .85-.03.61.61 0 0 0-.02-.86Z"/><g opacity=".56"><g filter="url(#x)"><rect width="28.68" height="28.68" stroke="url(#y)" stroke-opacity=".48" stroke-width="2" rx="4" transform="rotate(-87.86 603 -373.67)"/></g><rect width="26.68" height="26.68" x="1.02" y="-.98" stroke="#fff" stroke-opacity=".19" stroke-width="2" rx="3" transform="rotate(-88.91 601.99 -365.61)"/></g><g filter="url(#z)"><rect width="9.23" height="9.23" stroke="url(#A)" stroke-opacity=".48" stroke-width="2" rx="4" transform="rotate(-87.86 573 -375.7)"/></g><g filter="url(#B)"><rect width="53.94" height="53.94" x="176.04" y="292.14" fill="#fff" rx="14" transform="rotate(-45 176.04 292.14)"/></g><g filter="url(#C)"><rect width="83.39" height="83.39" x="839" y="15.96" fill="#E0E0E0" fill-opacity=".16" rx="18" shape-rendering="crispEdges" transform="rotate(-45 839 15.96)"/></g><g filter="url(#D)" opacity=".32"><g fill="#00FFF0" filter="url(#E)"><path d="M519.15 298.97a5.5 5.5 0 0 1-5.67-5.31l-.5-14.68a5.5 5.5 0 0 1 5.29-5.69l14.63-.5a5.5 5.5 0 0 1 5.68 5.3l.5 14.68a5.5 5.5 0 0 1-5.3 5.7l-14.63.5Zm77.7 54c.71-.71.71-1.87 0-2.58L556.56 310a1.82 1.82 0 0 0-2.57 0 1.83 1.83 0 0 0 0 2.57l40.3 40.41c.7.71 1.85.71 2.56 0Zm13.72 11.18c.7.71.7 1.87 0 2.58-.71.7-1.86.7-2.57 0a1.83 1.83 0 0 1 0-2.58 1.81 1.81 0 0 1 2.57 0Zm9.43 9.45c.7.72.7 1.87 0 2.58a1.8 1.8 0 0 1-2.57 0 1.83 1.83 0 0 1 0-2.57 1.82 1.82 0 0 1 2.57 0Zm-74.51-52.25c.7-.72.7-1.87 0-2.58l-6.86-6.88a1.82 1.82 0 0 0-2.57 0 1.83 1.83 0 0 0 0 2.58l6.86 6.88c.7.7 1.86.7 2.57 0Zm6 3.44c.7.7.7 1.86 0 2.57a1.8 1.8 0 0 1-2.57 0 1.83 1.83 0 0 1 0-2.57 1.81 1.81 0 0 1 2.57 0Zm25.21-17.74c.7-.71.7-1.87 0-2.58l-14.58-14.62a1.82 1.82 0 0 0-2.57 0 1.83 1.83 0 0 0 0 2.58l14.57 14.62c.71.71 1.87.71 2.58 0Zm9.42 6.88a1.82 1.82 0 1 1-2.57 2.58 1.83 1.83 0 0 1 0-2.58 1.82 1.82 0 0 1 2.57 0Zm11.58 11.61c.7.7.7 1.86 0 2.58-.71.7-1.87.7-2.58 0a1.83 1.83 0 0 1 0-2.58 1.81 1.81 0 0 1 2.58 0Z"/></g><path fill="url(#F)" fill-opacity=".88" d="M519.37 299.05a5.47 5.47 0 0 1-5.65-5.28l-.5-14.58a5.47 5.47 0 0 1 5.27-5.66l14.59-.5a5.47 5.47 0 0 1 5.66 5.28l.5 14.58a5.47 5.47 0 0 1-5.28 5.66l-14.59.5Z"/><path fill="url(#G)" fill-opacity=".88" d="M596.83 352.73c.71-.71.71-1.86 0-2.57L556.67 310a1.81 1.81 0 0 0-2.57 2.56l40.17 40.17c.7.7 1.85.7 2.56 0Z"/><path fill="url(#H)" fill-opacity=".88" d="M610.5 363.83a1.81 1.81 0 1 1-2.56 2.57 1.81 1.81 0 0 1 2.56-2.56Z"/><path fill="url(#I)" fill-opacity=".88" d="M619.9 373.24a1.81 1.81 0 1 1-2.56 2.56 1.81 1.81 0 0 1 2.57-2.56Z"/><path fill="url(#J)" fill-opacity=".88" d="M545.63 321.3c.7-.72.7-1.86 0-2.57l-6.84-6.84a1.81 1.81 0 0 0-2.57 2.57l6.84 6.83c.7.71 1.86.71 2.57 0Z"/><path fill="url(#K)" fill-opacity=".88" d="M551.6 324.71a1.81 1.81 0 1 1-2.56 2.56 1.81 1.81 0 0 1 2.57-2.56Z"/><path fill="url(#L)" fill-opacity=".88" d="M576.74 307.08c.7-.7.7-1.85 0-2.56l-14.53-14.53a1.81 1.81 0 0 0-2.57 2.56l14.53 14.53c.71.71 1.86.71 2.57 0Z"/><path fill="url(#M)" fill-opacity=".88" d="M586.13 313.92a1.81 1.81 0 1 1-2.56 2.56 1.81 1.81 0 0 1 2.56-2.56Z"/><path fill="url(#N)" fill-opacity=".88" d="M597.67 325.46a1.81 1.81 0 1 1-2.56 2.56 1.81 1.81 0 0 1 2.56-2.56Z"/></g><g filter="url(#O)"><path fill="#E0E0E0" fill-opacity=".16" d="M72.34 375.53a39.08 39.08 0 0 1 0-55.06l54.77-55.07a38.59 38.59 0 0 1 54.78 0l54.77 55.07a39.08 39.08 0 0 1 0 55.06l-54.77 55.07a38.59 38.59 0 0 1-54.78 0l-54.77-55.07Z" shape-rendering="crispEdges"/></g><g filter="url(#P)"><path fill="#fff" d="M849.23 256.8c14.67 4.68 18.78 23.47 7.4 33.85l-42.24 38.5c-11.37 10.38-29.71 4.54-33-10.5l-12.23-55.83c-3.3-15.04 10.93-28 25.6-23.34l54.47 17.33Z"/></g><g filter="url(#Q)" opacity=".64"><g filter="url(#R)"><rect width="20.1" height="20.1" x="756.32" y="28.1" fill="#00A3FF" rx="4" transform="rotate(15.03 756.32 28.1)"/></g><rect width="20.1" height="20.1" x="756.32" y="28.1" fill="url(#S)" rx="4" transform="rotate(15.03 756.32 28.1)"/></g><g filter="url(#T)"><path fill="#00A3FF" d="M225.67 220.51a7 7 0 0 1-9.86 7.05l-26.88-12.21a7 7 0 0 1-1.17-12.07l24.02-17.17a7 7 0 0 1 11.03 5.02l2.86 29.38Z"/></g><path fill="url(#U)" d="M225.67 220.51a7 7 0 0 1-9.86 7.05l-26.88-12.21a7 7 0 0 1-1.17-12.07l24.02-17.17a7 7 0 0 1 11.03 5.02l2.86 29.38Z"/><path stroke="url(#V)" stroke-width="2" d="m648.88-12.53-231 436"/><g filter="url(#W)"><path xmlns="http://www.w3.org/2000/svg" fill="#FFF" fill-opacity=".4" d="M637.6 98.96c41.07 13.07 52.6 65.71 20.74 94.75l-92.75 84.56c-31.86 29.04-83.21 12.7-92.43-29.4L446.3 126.25c-9.22-42.12 30.6-78.42 71.68-65.35l119.6 38.05Z"/></g><g filter="url(#X)"><circle cx="550" cy="164" r="66" fill="#fff"/></g><g filter="url(#Y)"><circle cx="550" cy="164" r="66" fill="#fff"/></g><mask id="Z" width="135" height="134" x="481" y="98" maskUnits="userSpaceOnUse" style="mask-type:alpha"><path fill="#C4C4C4" d="M548.5 98c-37.28 0-67.5 30-67.5 67a66.36 66.36 0 0 0 12.38 38.69c-10.25 12.87-6.07 23.42-5.02 25.59l.08.13.03.08c.29.88 1.58.52 4.69-.32h.02c4.58-1.26 11.35-7.43 19.4-7.43A67.38 67.38 0 0 0 548.5 232a69.13 69.13 0 0 0 15.34-1.74 67.08 67.08 0 0 0 6.06-1.7c26.79-8.88 46.1-33.98 46.1-63.56 0-37-30.22-67-67.5-67Z"/></mask><g mask="url(#Z)"><mask id="aa" fill="#fff"><path d="M551.35 227.25h-3.7s-2.94.46-3.48 2.54a68.18 68.18 0 0 0 10.66 0s-2.56-2.54-3.48-2.54Zm-37.23-7.35a66.35 66.35 0 0 0 11.91 5.87l.31-2.05.02-.13c-3.96-3.4-8.7-3.7-12.24-3.7ZM549.5 98c-36.73 0-66.5 29.55-66.5 66 0 14.2 4.52 27.35 12.2 38.11l.71-.87c3.62-4.45 8.28-8.67 13.2-13.11 5.62-5.08 11.38-10.29 16.3-16.44a11.42 11.42 0 0 1-1.46-3.25c-1.33-2.61-3.2-6.84-4.02-10.41a47.13 47.13 0 0 1 1.55-27.2 1.2 1.2 0 0 0-.18.04c1.07-7.17 5.46-13.74 13.16-19.7 4.91-4.31 9.43-6.23 13.55-5.77 1.08.12 1.95.91 2.25 1.93l.06.22c.26.89-2.8 4.74-3.43 5.43.41.02.78.13 1.08.4 1.05.92.1 2.12-2.86 3.6l-.03.03c-2.78 2.9-6.02 6.64-9.73 11.25-4.77 8.15-6.02 16.43-5.2 23.22.08.11.14.25.17.4l.59 2.92c.44-.26 1.06-.05 1.15.42l.64 3.2c.2.07.4.2.56.38a9.92 9.92 0 0 1-.2-2.2l.18-7.91a10.6 10.6 0 0 1 3.38-7.27s3.54-5.46 9.96-6.26c2.64-.34 5.86.42 8.7 1.1 2.7.63 5.26 1.23 6.5.69 2.63-1.15 5.14-4.12 5.17-4.15l.5-.6.29.72c.1.27 2.6 6.68-1.25 10.4a7.01 7.01 0 0 1-2.66 1.5 9.44 9.44 0 0 1 1.04 4.53l-.17 7.92a9.45 9.45 0 0 1-1.4 4.76c.46.02.88.08 1.23.15.8.15 1.49.54 1.95 1.09.36.42.58.9.7 1.38a39.8 39.8 0 0 1 9.82.65c.43.08.8.38.99.77.16.36.16.77 0 1.13 1.99.67 3.76 1.56 4 2.5.1.42-.36 1.2-.9 1.92 1.32 1 3 2.37 3.6 2.86 1.8 1.3 3.5 2.73 5.15 4.42a13.37 13.37 0 0 1 3.88 9.91 13.64 13.64 0 0 1-.7 3.99c.68.24 1.36.53 2.03.87.39.19.63.58.63 1 0 .44-.24.83-.62 1.03-3.87 2-16.68 8.78-20.42 11.22-.22.14-.65.69-.65.69l-.42 1.57c-.25.92-2.76 1.57-2.76 1.57h-.48c.1 1.58.3 3.8.3 3.8s-.26 1.64-.2 4.44c.05 2.36.14 5.22.15 7.63C596.98 217.87 616 193.14 616 164c0-36.45-29.77-66-66.5-66Z"/></mask><path fill="#03568E" fill-opacity=".11" d="m582.64 185.68 1.43-1.4-1.43 1.4Zm1.12 2.77 2 .08v-.02l-2-.06Zm-5.5 4.08 1.04 1.7-1.04-1.7Zm-40.05-7.51 1.9-.65-.14-.4-.28-.3-1.48 1.35Zm-7.42-8.11 1.48-1.35-.3-.32-.4-.18-.78 1.85Zm35.3-.3-.2-1.99-.94.1-.52.78 1.66 1.11Zm-5.6 8.37-1.67-1.11-.15.22-.08.25 1.9.64Zm6.33-14.1 1.36-1.46-.52-.5-.73-.03-.11 2Zm-10.97-.61.11-2-.78-.05-.6.5 1.27 1.55Zm-6.09 5.02-1.14 1.64 1.25.87 1.17-.97-1.28-1.54Zm-7.23-5.03 1.14-1.65-.5-.36h-.64v2Zm1.5 39.55v-2h-2v2h2Zm11.47 0h2v-2h-2v2Zm29.38-35.18-1.27 1.55.02.01.02.02 1.23-1.58Zm.16.36-2-.1v.1h2Zm-.18.35 1.18 1.61.03-.01.02-.02-1.23-1.58Zm-49.73 22.75 1.01-1.72-.11-.06-.12-.06-.78 1.84Zm2.76 3.84 1.98-.3-.01-.05-.01-.05-1.96.4Zm23.7 0 1.95.46v-.05l-1.95-.4Zm2.76-3.84 1.01 1.73.13-.08.12-.09-1.26-1.56Zm-24.4-28.48 1.95.45.01-.06.01-.06-1.97-.33Zm-.15.64v2-2Zm19.74.22-.12 2 .12-2Zm0-.9h2v-.1l-.01-.1-2 .2Zm-4.9-2.38.03-2-.04 2Zm-11.49-.24-.04 2 .04-2Zm8.61-23.53-.88 1.8.88-1.8Zm1.16 9.6a2 2 0 0 0 4 0h-4Zm3.01 0a2 2 0 1 0 4 0h-4Zm-16.47 0a2 2 0 0 0 4 0h-4Zm3.02 0a2 2 0 1 0 4 0h-4Zm7.54 28.86-1.8.9 1.8-.9Zm2.6 5.2-1.78.9 1.79-.9Zm.8.56-.3 1.98h.01l.28-1.98Zm6.42 2.6 1.38 1.44-1.38-1.44Zm-4.23 4.04-1.38-1.45-.01.01-.01.01 1.4 1.43Zm-.3.91-1.98.31v.04l1.98-.35Zm1 5.71 1.97-.33v-.01l-1.97.34Zm-1.52 1.1-.92 1.77.92-1.78Zm-5.23-2.7-.92 1.77.92-1.78Zm-.98 0-.9-1.79h-.02l.92 1.78Zm-5.22 2.7.91 1.77-.9-1.78Zm-1.52-1.1 1.97.35-1.97-.35Zm1-5.7-1.98-.35 1.97.34Zm-.31-.92 1.38-1.44-1.38 1.44Zm-4.22-4.04-1.4 1.44h.01l1.39-1.44Zm.58-1.76.28 1.98-.28-1.98Zm5.84-.84.28 1.98h.02l-.3-1.98Zm.79-.56 1.78.9-1.78-.9Zm2.61-5.2 1.79.9-1.79-.9Zm-6.07-67.12.24 1.98-.24-1.98Zm-2.69 73.65.28 1.98-.28-1.98Zm19.92.07-.35 1.97.35-1.97Zm-.04 0-.28 1.98.28-1.98Zm4.4 26.7.1 2h.08l-.19-2Zm-8.15 1.32v2h2v-2h-2Zm-11.48 0h-2v2h2v-2Zm-8.75-1.35-.11 2 .12-2Zm-2.77 11.14 1.93-.55-1.93.55Zm32.63-.15-1.92-.55 1.92.55Zm4.72-6.76.9 1.79.11-.06.1-.08-1.1-1.66Zm.96-2.84a2 2 0 1 0-.36-3.98l.36 3.98ZM565 163.08a2 2 0 1 0-3.41-2.1l3.4 2.1Zm-.54-16.35a2 2 0 0 0-1.26-3.8l1.26 3.8Zm-30.15 13.88 1.78-.92-1.78.92Zm-.94-1.67 1.68-1.07-1.68 1.07Zm-5.21 41.84-2-.03v.08l2-.05Zm-1.14-30.29a2 2 0 0 0-3.2 2.4l3.2-2.4Zm1.14 30.3 2-.06-2 .05Zm.01.62 2-.05-2 .04Zm34.49-38.47-1.57-1.23 1.57 1.23Zm-1.24 1.31-1.32-1.5 1.32 1.5Zm-.46.38-1.23-1.57 1.23 1.57Zm-2.43 1.4-.74-1.86.74 1.86Zm.16.43-1.87.7 1.87-.7Zm.73 2.36 1.96-.4-1.96.4Zm20.38-.77a2 2 0 0 0-3.62-1.7l3.62 1.7Zm-10.68-3.88a2 2 0 0 0-3.88.96l3.88-.96Zm-1.82 1.4-2 .04 2-.05Zm10.63 1.74-1.72-1.02 1.72 1.02Zm-10.66-1.12 2 .2-2-.2Zm10.25 1.82-1.72-1.03 1.72 1.03Zm-1 1.6 1.7 1.08-1.7-1.08Zm3.71 3.06 1.47 1.36v-.01l-1.47-1.35Zm-.07.07-1.47-1.35 1.47 1.35Zm-8.6 4.2v2-2Zm-.03 0v2-2Zm4.5-6.57 1.65 1.12-1.65-1.12Zm-4.01 4.56 1.02 1.72.15-.09.13-.11-1.3-1.52Zm-5.63-5.84 1.8.88-1.8-.88Zm-.64.9-1.7-1.07-.02.04-.02.04 1.74.99Zm-36.4 5.79.53 1.93-.52-1.93Zm-.22.06.49 1.94-.5-1.94Zm-.1.02.49 1.94-.49-1.94Zm11.15-8.84-2-.04 2 .05Zm0-.49.13-2-2.15-.13.02 2.15 2-.02ZM528.5 152.6a2 2 0 1 0 3.3-2.25l-3.3 2.25Zm.33-1.55.65 1.89-.65-1.9Zm-4.88 17.39-1.9.61 3.84-1.12-1.94.5Zm6.77-13.51 1.17 1.62-1.17-1.62Zm.14-.1 1.15 1.63h.01l-1.16-1.63Zm-3.53 14.35h-2 2Zm2.5-8.52 1.66 1.1-1.67-1.1Zm1.34-1.86 1.47 1.36.16-.18.12-.21-1.75-.97Zm-1.3 1.78-1.67-1.1 1.67 1.1Zm-2.48 10.06 2-.17-2 .17Zm.88 4.42-1.95-.46-.27 1.12.84.79 1.38-1.45Zm4.42-16.64-.64 1.9.64-1.9Zm-.63 1.9a2 2 0 1 0 1.28-3.8l-1.28 3.8Zm-.12-3.8a2 2 0 1 0-2.06-3.44l2.06 3.44Zm2.83.97a2 2 0 0 0-3.03 2.6l3.03-2.6Zm1.46 8.33 1.94-.47-1.94.47Zm.23 1.06 1.96-.38-1.96.38Zm2.78 43.87-.06 2 .06-2Zm31.05-1.17h2v-.02l-2 .02Zm-6.13.88-.11-2 .1 2Zm5.67-33.66-2 .02 2-.02Zm22.32 15.7-.6 1.91.6-1.9Zm-6.9-1.12.08-2-.07 2Zm-.66-15.84-1.16-1.63 1.16 1.63Zm7.75 19.14a2 2 0 1 0 1.36-3.76l-1.36 3.76Zm-16.6 7.21a2 2 0 1 0-3.51 1.9l3.52-1.9Zm10.22-28.96a2 2 0 0 0-2.53 3.1l2.53-3.1Zm-3.26-.12a2 2 0 0 0-3.2-2.39l3.2 2.39Zm-61.52-43.96a2 2 0 1 0 .6 3.96l-.6-3.96Zm23.9-11.83-1.44-1.39-.03.02-.02.03 1.49 1.33Zm-10.62-5.86-1.23-1.58-.05.04-.04.04 1.32 1.5Zm37.09 109.49a2 2 0 0 0-2.24-3.32l2.24 3.31Zm-3.21-9.78a2 2 0 1 0 3.99-.24l-4 .24Zm-13.67 16.93a2 2 0 0 0 .32 3.98l-.32-3.98Zm-10.66 3.98a2 2 0 0 0 .31-3.98l-.31 3.98Zm27.2-3.27a2 2 0 0 0-1.26-3.8l1.26 3.8Zm-44.48-4.61a2 2 0 0 0-1.4 3.75l1.4-3.75Zm-2.34-.62a2 2 0 1 0 3.95.6l-3.95-.6ZM495 227.2l.53 1.93-.53-1.93Zm3.3-7.93 1.44-1.39-1.44 1.39Zm.32 1.17-1.94-.47 1.94.47Zm-.83.92-.66-1.9-.01.01h-.01l.68 1.89Zm1.48-23.7 1.8.88-3.2-2.32 1.4 1.44Zm-8.91 29.87-1.9.62 1.9-.63Zm4.62-.32-.53-1.93.53 1.93Zm-4.73.11 1.8-.86v-.01l-1.8.87Zm4.13-27.37a2 2 0 0 0 3.06 2.58l-3.06-2.58Zm2.62 4.56 1.94.49-1.94-.49Zm17.12 17.38a2 2 0 0 0 0-4v4Zm-17.36-18.53a2 2 0 0 0-3.12-2.5l3.12 2.5Zm27.6 20.06a2 2 0 0 0 3.96.6l-3.95-.6Zm2 .17 1.98.3-1.98-.3Zm15.42-12.83.03 2-.03-2Zm-13.52-17.55h-2 2Zm0 .01h2-2Zm13.36 17.54.02 2-.02-2Zm.43 0-.02-2 .02 2Zm39.15-23.69c.51.53.57 1.02.56 1.31l4 .13a5.71 5.71 0 0 0-1.69-4.22l-2.87 2.78Zm.56 1.3c0-.13.03-.1-.08.16a11.24 11.24 0 0 1-.99 1.56l-.04.04v.01l1.56 1.25 1.56 1.25v-.01l.03-.03.06-.07.2-.27c.16-.22.37-.52.6-.88.22-.34.46-.76.66-1.2.18-.4.41-1 .44-1.65l-4-.16Zm-11.58 8.96 1 1.73h.01l.01-.01.04-.03.17-.1c.14-.07.35-.2.6-.35a1304.8 1304.8 0 0 0 7.29-4.33l-2.08-3.42a559.1 559.1 0 0 1-7.24 4.3l-.6.36-.16.1-.04.02h-.01l1 1.73Zm-28.74-7.57c.35.16.66.47.8.9l-3.78 1.28c.23.68.72 1.18 1.3 1.44l1.68-3.62Zm-1.75-6.1-7.42-8.1-2.95 2.7 7.42 8.1 2.95-2.7Zm24.74-8.16-5.6 8.37 3.31 2.22 5.61-8.37-3.32-2.22Zm-7.99 15.16c.15-.43.46-.74.8-.9l1.7 3.62a2.46 2.46 0 0 0 1.29-1.44l-3.79-1.28Zm15.34-14.8a12.92 12.92 0 0 0-3.6-6.44l-2.73 2.92c1.2 1.13 2.16 3 2.4 4.27l3.93-.75Zm-17.2-7.14-6.09 5.03 2.55 3.08 6.08-5.02-2.54-3.09Zm-3.67 4.93-7.24-5.04-2.28 3.29 7.23 5.03 2.29-3.28Zm-6.88 38.16h11.47v-4h-11.48v4Zm31.64-35c-.59 0-1.62-.06-1.95-.11l-.64 3.95c.66.1 1.95.16 2.59.16v-4Zm7.98-.6c-.4-.31-.63-.8-.6-1.31l4 .17a2.44 2.44 0 0 0-.94-2.02l-2.46 3.16Zm-.6-1.22c0-.57.28-1 .59-1.23l2.45 3.16c.53-.4.95-1.1.95-1.93h-4ZM527.46 197l6.87 2.93 1.57-3.69-6.87-2.92-1.57 3.68Zm6.64 2.8c.95.56 1.6 1.49 1.82 2.53l3.92-.81a7.85 7.85 0 0 0-3.7-5.16l-2.04 3.45Zm29.44 2.53a3.84 3.84 0 0 1 1.81-2.52l-2.03-3.45a7.84 7.84 0 0 0-3.7 5.16l3.92.8ZM538 169.16l-.15.65 3.9.9.15-.65-3.9-.9Zm23.54 1.31v-.9h-4v.9h4Zm-6.87-5.28-11.47-.24-.09 4 11.48.24.08-4Zm5.24-21.78c-2.13 0-4.65-.5-7.27-1.78l-1.75 3.6a20.75 20.75 0 0 0 9.02 2.19v-4Zm-7.27-1.78a26.7 26.7 0 0 0-11.22-2.57 28.73 28.73 0 0 0-4.79.32l-.3.06-.09.02h-.03l.4 1.96.42 1.96.05-.01a11.58 11.58 0 0 1 1.08-.16 24.6 24.6 0 0 1 3.2-.15c2.66.04 6.13.5 9.52 2.16l1.76-3.6Zm4.28 11.38c0-.14.01-.27.04-.36.03-.1.06-.16.07-.17.01-.02-.01.03-.11.1a.92.92 0 0 1-.5.13v-4a3.3 3.3 0 0 0-2.74 1.58 5 5 0 0 0-.76 2.72h4Zm-.5-.3a.93.93 0 0 1-.5-.14c-.1-.06-.12-.1-.1-.09.03.05.11.23.11.53h4a5 5 0 0 0-.77-2.72 3.3 3.3 0 0 0-2.74-1.58v4Zm-12.96.3c0-.3.09-.48.12-.53l-.11.1a.93.93 0 0 1-.5.13v-4a3.3 3.3 0 0 0-2.74 1.58 5 5 0 0 0-.77 2.72h4Zm-.5-.3a.92.92 0 0 1-.49-.14c-.1-.06-.12-.11-.1-.1l.06.18c.03.1.05.22.05.36h4a5 5 0 0 0-.77-2.72 3.3 3.3 0 0 0-2.74-1.58v4Zm6.8 4.29c-.44 0-.73-.14-.88-.25-.07-.06-.09-.1-.08-.07.01 0 .1.14.1.4h-4a3.7 3.7 0 0 0 1.55 2.84c.85.65 2 1.08 3.31 1.08v-4Zm.88 0a.8.8 0 0 1 .05-.29l.03-.08s-.03.05-.1.11a1.4 1.4 0 0 1-.86.26v4a5.4 5.4 0 0 0 3.33-1.11 3.81 3.81 0 0 0 1.54-2.72l-4-.17Zm-2.41 25.78 2.6 5.2 3.58-1.8-2.6-5.2-3.58 1.8Zm2.61 5.2c.45.9 1.3 1.5 2.27 1.64l.6-3.95c.3.04.56.22.7.5l-3.57 1.82Zm7.62.81-4.23 4.04 2.76 2.9 4.23-4.05-2.76-2.89Zm-4.25 4.06a3.05 3.05 0 0 0-.88 2.66l3.95-.63c.05.3-.05.62-.27.83l-2.8-2.86Zm-.87 2.69 1 5.7 3.94-.68-1-5.71-3.94.69Zm1 5.7a.95.95 0 0 1 1.36-1.03l-1.83 3.56a3.05 3.05 0 0 0 4.41-3.2l-3.94.67Zm1.36-1.03-5.22-2.7-1.84 3.56 5.23 2.7 1.83-3.56Zm-5.22-2.69a3.07 3.07 0 0 0-2.8 0l1.8 3.56a.93.93 0 0 1-.84-.01l1.84-3.55Zm-2.82 0-5.22 2.7 1.84 3.55 5.22-2.7-1.84-3.55Zm-5.21 2.7c.61-.32 1.51.15 1.36 1.03l-3.94-.7c-.45 2.57 2.25 4.33 4.4 3.22l-1.82-3.56Zm1.36 1.03 1-5.71-3.95-.69-1 5.7 3.95.7Zm1-5.71c.17-1-.17-2.01-.9-2.7l-2.76 2.88a.98.98 0 0 1-.29-.87l3.94.69Zm-.9-2.7-4.22-4.05-2.77 2.9 4.23 4.03 2.76-2.89Zm-4.22-4.04c.61.58.23 1.55-.52 1.66l-.56-3.96a3.03 3.03 0 0 0-1.7 5.18l2.78-2.88Zm5.35.82c.95-.15 1.8-.74 2.26-1.63l-3.56-1.82a.93.93 0 0 1 .68-.5l.62 3.95Zm2.27-1.64 2.6-5.2-3.57-1.8-2.6 5.2 3.57 1.8Zm2.6-5.2a.94.94 0 0 1-1.68 0l3.57-1.8a3.06 3.06 0 0 0-5.46 0l3.58 1.8Zm-10.1-63.32c-.43-1.22-.2-1.64-.09-1.78.2-.26.84-.73 2.58-.94l-.48-3.97c-2.1.26-4.08.93-5.27 2.46-1.27 1.65-1.18 3.68-.52 5.56l3.78-1.33Zm2.5-2.72c.38-.05.72-.2.85-.25.19-.08.39-.18.56-.27.4-.2.75-.4 1.18-.6a4.99 4.99 0 0 1 1.9-.64l.18-4c-1.44-.06-2.93.6-3.82 1.03-.49.24-.97.5-1.26.65-.17.08-.27.14-.34.16-.12.06.01-.02.26-.05l.49 3.97Zm-3.22 69.69-.48.07.56 3.96.48-.07-.56-3.96Zm22.14 5.25a3.02 3.02 0 0 0-1.59-5.17l-.7 3.94c-.72-.13-1.1-1.07-.49-1.65l2.78 2.88Zm-1.59-5.17-.1-.01-.57 3.96h-.03l.7-3.95Zm-1.05-2.17-1.2 3.5 3.8 1.29 1.19-3.5-3.8-1.3Zm-17.33 3.42-1.15-3.39-3.79 1.3 1.16 3.38 3.78-1.29Zm22.38 27.42-.1-2h-.05l-.16.01-.6.03a484.8 484.8 0 0 1-7.26.25l.07 4a240.49 240.49 0 0 0 7.37-.25l.6-.03h.23l.01-.01-.1-2Zm-10.14.3v1.02h4v-1.03h-4Zm-7.48 1.02v-1.03h-4v1.03h4Zm-1.96-3.03c-3.33-.06-6.18-.17-8.67-.31l-.23 3.99c2.54.15 5.44.26 8.83.32l.07-4Zm-8.67-.31a236.15 236.15 0 0 1-7.28-.55l-.12-.01h-.04l-.19 1.98-.18 2h.04l.12.01.46.04a207.79 207.79 0 0 0 6.96.52l.23-4Zm-8.71 9.16s.05 0 .15.04c.1.03.24.07.4.14.31.14.7.36 1.11.7a7.1 7.1 0 0 1 2.24 3.65l3.85-1.1c-1.54-5.35-5.47-7.23-7.38-7.4l-.37 3.97Zm40.38 4.36a10.54 10.54 0 0 1 2.43-4.47 6.74 6.74 0 0 1 1.27-1.05h-.01l-.9-1.78-.89-1.8-.01.01-.03.01-.06.03-.17.1-.52.34c-.43.3-.98.75-1.58 1.38a14.54 14.54 0 0 0-3.38 6.14l3.85 1.1Zm3.4-14.12-7 .63.37 3.99 6.98-.64-.36-3.98Zm-7.26-69.63c-.9.3-2.02.48-3.3.48v4c1.66 0 3.2-.23 4.56-.68l-1.26-3.8Zm-30.67 18.59c.12.22.23.44.33.67l3.63-1.69-.4-.8-3.56 1.82Zm3.56-1.83a24.1 24.1 0 0 0-1.04-1.82l-3.38 2.14c.32.5.6 1 .86 1.5l3.56-1.82Zm.34.7c-.1-.19-.2-.38-.28-.58l-3.67 1.6c.13.3.28.6.44.9l3.51-1.92Zm-7.59 60.25c.3-1.84.59-3.73.9-5.75l-3.95-.61-.9 5.75 3.95.61Zm1.48-45.64a60.67 60.67 0 0 0-1.76-2.43l-1.06-1.44-.35-.46-.1-.13-.02-.04h-.01l-1.6 1.19-1.6 1.2.03.04.1.13.34.46 1.06 1.43 1.07 1.45.36.5c.14.2.1.15.04.04l3.5-1.94Zm-4.16 25.83 4-.1-4 .1Zm0 0 .02.62 4-.1-.02-.62-4 .1Zm2.01 8.65 2 .03v-.22l.02-.61.01-2.07c.01-1.63.01-3.68-.03-5.25l-4 .1c.04 1.5.04 3.5.03 5.13l-.01 2.04-.01.6v.23l2 .03Zm32.92-47.77c-.3.38-.63.72-1 1.04l2.65 3c.55-.47 1.04-1 1.5-1.57l-3.15-2.47Zm.5-.72c-.15.25-.32.49-.5.72l3.14 2.47c.28-.35.53-.72.77-1.1l-3.41-2.1Zm.6 5.22.55-.46-2.64-3-.37.3 2.46 3.16Zm-7.6 2.97a7.63 7.63 0 0 0 2.73-.5c.67-.24 1.53-.63 1.95-.8l-1.48-3.71c-.78.31-1.18.52-1.81.74-.55.2-.97.28-1.3.28l-.1 4Zm5.14-6.12c-.58.45-1.24.83-1.94 1.11l1.48 3.72c1.06-.42 2.04-1 2.92-1.68l-2.46-3.15Zm-3.07 3.67.16.43 3.75-1.4-.16-.43-3.75 1.4Zm.16.43c.26.7.5 1.39.64 2.06l3.92-.8c-.2-1-.55-1.95-.81-2.66l-3.75 1.4Zm4.7 2.22a9.63 9.63 0 0 0-.14-.95l-3.92.79.09.55 3.98-.4Zm3.72-4.25c.03.14.05.3.06.48l4-.09a5.9 5.9 0 0 0-.18-1.35l-3.88.96Zm10.94 1.22.03-.06 3.43 2.05.16-.3-3.62-1.7Zm-10.88-.74c0 .12 0 .25-.02.39l3.99.39c.02-.28.03-.57.03-.87l-4 .09Zm10.5 1.37-.95 1.55 3.36 2.16a46 46 0 0 0 1.02-1.66l-3.43-2.05Zm.4-.68-.4.68 3.43 2.05.42-.7-3.45-2.03Zm2.56 5.01-.07.08 2.94 2.7.07-.06-2.94-2.72Zm-.07.08c-1.13 1.23-3.76 3.55-7.14 3.56l.01 4c5.12-.02 8.76-3.42 10.08-4.86l-2.95-2.7Zm-7.14 3.56h-.03l.01 4h.03v-4Zm2.82-5.7a20.07 20.07 0 0 1-3.65 4.16l2.6 3.04a24.05 24.05 0 0 0 4.36-4.96l-3.31-2.24Zm.48-.72-.48.72 3.31 2.24.53-.8-3.37-2.16Zm-4.01 9.42 2.2-1.3-2.04-3.44-2.2 1.3 2.04 3.44ZM565.28 166a6.8 6.8 0 0 1-.69 2.2l3.6 1.77c.37-.76.93-2.1 1.07-3.58l-3.98-.39Zm-.69 2.2-.04.07a2.44 2.44 0 0 1-.26.34l-.06.07-.04.05-.04.06-.1.13 3.39 2.14-.09.12-.02.04h-.01l.05-.06.21-.26c.15-.2.41-.54.6-.93l-3.59-1.76Zm.48.58-5.42-.3-.23 4 5.43.3.22-4Zm-5.42-.3-3.69-.21-.22 4 3.68.2.23-4Zm-17.12-.22h-2.73v4h2.73v-4Zm-2.73 0h-3.1v4h3.1v-4Zm-4.86 1.02c-1.27 2.3-3.28 3.8-6.1 4.57l1.04 3.86c3.73-1.02 6.7-3.12 8.56-6.49l-3.5-1.94Zm-6.3 4.62-.1.02.98 3.88.1-.02-.98-3.88Zm-.85 3.91 2.23.94 1.55-3.69-2.22-.93-1.56 3.68Zm38.5.79 3.73-.38-.4-3.98-3.73.38.4 3.98Zm.64-9.71-1.86-.1-.22 3.99 1.86.1.22-4ZM529 177.92l.52-.12-.97-3.88-.4.1.85 3.9Zm.63-.15.25-.06-1.05-3.86-.2.05 1 3.87Zm37.12-6.09a1.77 1.77 0 0 1-.23.34l-.05.06.03-.03.23-.22.28-.27.15-.15.1-.1a2.16 2.16 0 0 0 .23-.33L564 169a1.92 1.92 0 0 1 .2-.29l.04-.05s0 .02-.04.05l-.24.23a15.1 15.1 0 0 0-.55.55 2.2 2.2 0 0 0-.25.39l3.58 1.8Zm-28.57-4.7c-.03 1.26-.19 2.23-.2 2.3l3.94.66c.03-.16.23-1.35.26-2.88l-4-.08Zm2.6-2.52a2.27 2.27 0 0 0-.83.09h-.02a1.54 1.54 0 0 1 .38-.01l-.26 3.99a2.37 2.37 0 0 0 .82-.09h.02l-.1.01c-.05 0-.15.01-.28 0l.26-3.99Zm-2.6 2.09v.43l4 .09v-.55l-4 .03Zm5.02-1.6a8.15 8.15 0 0 1-2.02-.42l-1.08 3.85c.79.23 1.8.54 3.01.57l.09-4Zm-2.02-.42a7.65 7.65 0 0 1-2.14-1.19c-.83-.6-1.62-1.32-2.2-1.9l-2.86 2.79c.71.73 1.67 1.59 2.7 2.34 1 .73 2.2 1.47 3.42 1.81l1.08-3.85Zm-9.37-14.18a3.14 3.14 0 0 0-3.64-1.19l1.32 3.78a.86.86 0 0 1-1-.34l3.32-2.25Zm-3.63-1.2a8.21 8.21 0 0 0-3.25 2.36c-1 1.1-1.92 2.55-2.62 4.27-1.42 3.45-1.95 8.04-.26 13.27l3.8-1.23c-1.38-4.3-.91-7.92.16-10.52a10.94 10.94 0 0 1 1.9-3.12 4.41 4.41 0 0 1 1.57-1.24l-1.3-3.78Zm-2.3 18.78c-.66-2.53.11-4.85 1.5-6.88a19.27 19.27 0 0 1 4.51-4.5l-2.34-3.24c-1.37.99-3.7 2.88-5.47 5.48-1.8 2.62-3.12 6.13-2.06 10.16l3.87-1.02Zm3.82-14.72-.15.1 2.35 3.24.12-.09-2.32-3.25Zm-.37 15.97c0-3.3 1.07-5.77 2.16-7.42l-3.34-2.2a17.28 17.28 0 0 0-2.82 9.62h4Zm.38-11.75c-.57.61-1.05 1.35-1.51 2.05l3.34 2.2c.52-.8.8-1.21 1.1-1.52l-2.93-2.72Zm-1.51 2.05-.05.08 3.34 2.2.05-.08-3.34-2.2Zm1.19 10.99c-.04-.45-.06-.88-.06-1.3l-4 .01c0 .53.03 1.07.07 1.62l3.99-.33Zm.82 5.04-3.89-.92 3.9.92Zm-.03-1.05a18.93 18.93 0 0 1-.8-3.99l-3.98.33c.13 1.51.43 3.12.96 4.83l3.82-1.17Zm2.74-14.7a1.1 1.1 0 0 1-.86.51c-.1.01-.15 0-.14 0l.13.04 1.28-3.79c-.13-.04-.76-.27-1.48-.24-.9.05-1.85.5-2.43 1.54l3.5 1.95Zm-.87.55 1.29-3.78-1.29 3.78Zm-2.17-7.23a2.6 2.6 0 0 0-.19.13l2.33 3.25-.08.06-2.06-3.44Zm5.17 4.8a3.18 3.18 0 0 0-.28-.39l-3.03 2.6a.57.57 0 0 1-.06-.08l3.37-2.14Zm3.12 7.47c-.18-.76-.53-2.22-.87-3.19l-3.77 1.34c.26.72.55 1.93.75 2.8l3.9-.95Zm-.87-3.19a6.33 6.33 0 0 0-.49-1.06 5.83 5.83 0 0 1-.32-.6l-3.63 1.7c.2.41.38.71.47.88.08.14.13.24.2.42l3.77-1.34Zm-2.8 5.11c.19.96.29 1.82.2 2.8l3.98.36c.14-1.5-.02-2.76-.26-3.94l-3.92.78Zm3.92-.78c-.07-.37-.15-.75-.25-1.14l-3.88.94.21.98 3.92-.78Zm-2.5 35.75 1.35 8.81 3.95-.6-1.35-8.82-3.96.6Zm25.57 8.87 2.05-8.72-3.9-.91-2.04 8.71 3.9.92Zm4.12-11.46 5.68-4.6-2.51-3.1-5.69 4.59 2.52 3.11Zm-39.25-24.02v.02l3.82-1.17v-.02l-3.82 1.17Zm.53.88 2.76-2.9h-.01l-2.75 2.9Zm-.53-.86c.1.32.2.65.32.98l3.78-1.32c-.1-.28-.2-.56-.28-.83l-3.82 1.17Zm12.94 33.1c-.6-.02-3.25-.32-5.9-.64l-3.45-.42-1.1-.14-.32-.04-.07-.01h-.03l-.25 1.98-.26 1.99h.11l.31.05 1.11.14 3.47.42c2.53.3 5.42.64 6.26.67l.13-4Zm6.73 6.72v-4.72h-4v4.72h4Zm7.47-4.72v4.72h4v-4.72h-4Zm16.79-1.17-.3-1.98h-.02l-.04.01-.18.03-.65.1-2 .3a394.69 394.69 0 0 1-2.8.4l-.25.03.22 3.99a491.8 491.8 0 0 0 5.42-.77l.65-.1.18-.02h.05l.01-.01-.3-1.98Zm-6.24-1.12c-.95.06-2.08.1-3.3.15l.14 4 3.38-.15-.22-4Zm-3.3.15c-1.69.06-3.53.11-5.28.14l.07 4c1.77-.03 3.64-.08 5.35-.14l-.14-4Zm-7.25 1.2v.94h4v-.94h-4Zm-27.32-.5-.41 5.11 3.99.33.4-5.1-3.98-.33Zm19.85 1.44v-.94h-4v.94h4Zm26.26-1.19-.11-12.25-4 .04.1 12.25 4-.04Zm-.12-12.3-.14-3.83-4 .14.15 3.84 4-.15Zm-.14-3.78-.2-16.7-4 .04.2 16.7 4-.05Zm-.2-16.7-.01-.57-4 .05v.56l4-.05Zm20.92 13.82a28.7 28.7 0 0 0-7.42-1.22l-.14 4c1.74.06 4.05.31 6.36 1.03l1.2-3.81Zm-7.42-1.22a30.7 30.7 0 0 0-3.27.02l.3 3.99c.84-.07 1.77-.05 2.83-.01l.14-4Zm-6.03 4.85c.83-.5 1.8-.75 3.05-.84l-.29-4c-1.61.12-3.28.48-4.84 1.43l2.08 3.41Zm-15.25 14.24c-1 .05-2.12.1-3.3.14l.14 4 3.38-.15-.22-4Zm-3.3.14-1.26.04.11 4 1.29-.04-.14-4Zm-1.26.04-4.02.1.07 4c1.22-.02 2.96-.07 4.06-.1l-.11-4Zm12.86-28.28c3.34 2.06 6.43 4.22 8.86 6.7l2.86-2.79c-2.77-2.83-6.2-5.2-9.62-7.31l-2.1 3.4Zm11.08-6.46c-3.28 2.34-5.94 2.9-7.76 2.9v4c2.71 0 6.17-.85 10.08-3.65l-2.32-3.25Zm.25-.18-.25.18 2.32 3.25.3-.2-2.37-3.23Zm-9.92 2.98c-1.77-.33-2.51-1.34-2.37-1.16l-3.12 2.5c.19.24 1.7 2.02 4.76 2.59l.73-3.93Zm19.94 14.2-.95-.31-1.2 3.81c.27.09.53.17.79.27l1.36-3.76Zm-21.47 12.89c-.06-.1 0-.03.03.41.03.38.01.84-.02 1.31a19.85 19.85 0 0 1-.2 1.6l-.02.1v.03l1.97.36 1.97.35v-.05l.03-.13.07-.46c.05-.39.12-.91.16-1.49.05-.57.07-1.23.04-1.86a5.07 5.07 0 0 0-.51-2.08l-3.52 1.9Zm11.2-27.77.18.15 2.53-3.1-.18-.15-2.53 3.1Zm-3.94-5.6c-.25.33-.52.65-.73.89l2.95 2.7c.3-.33.65-.75 1-1.21l-3.22-2.39Zm-7.96 4.52-.2-.01a17.9 17.9 0 0 1-1.3-.13l-.41 3.98c.24.02 1.45.16 1.9.16v-4Zm-27.5 43.55h11.47v-4h-11.48v4Zm-9.62-92c-1.81.97-4.58 1.52-7.29 1.84a72.6 72.6 0 0 1-3.58.32c-.95.07-1.87.12-2.36.2l.6 3.95c.27-.04.91-.08 2.03-.15 1.05-.08 2.36-.18 3.78-.34 2.76-.33 6.18-.95 8.7-2.3l-1.88-3.53Zm.14-12.72c.41-.39.82-.76 1.22-1.11l-2.63-3.01-1.34 1.21 2.75 2.91Zm-.49-4.83-.83.63 2.45 3.16.78-.59-2.4-3.2Zm9.53 6.73-4.51 5.01 2.97 2.68 4.52-5.02-2.98-2.67Zm2.93 2.72.03-.03-2.88-2.77-.03.03 2.88 2.77Zm24.45 102.63.58-.38-2.24-3.32-.57.39 2.23 3.31Zm-2.68-11.45c0 .34.02.81.05 1.29l3.99-.24a18.3 18.3 0 0 1-.04-1.04l-4-.01Zm-8.75-23.08-5.84-.84-.57 3.96 5.84.84.56-3.96Zm-15.1-.84-5.35.77.56 3.96 5.36-.77-.56-3.96Zm-14.28 15.15.1-5.6-4-.08-.1 5.62 4 .06Zm24.83 30.97c3.43-.27 6.8-.79 10.07-1.54l-.9-3.9a65.6 65.6 0 0 1-9.49 1.46l.32 3.98Zm11.57-3.08c.16-.73.33-1.4.5-2.02l-3.85-1.09c-.2.72-.39 1.48-.56 2.28l3.91.83Zm-35.98-1.85c.12.42.23.89.31 1.4l3.95-.66c-.1-.64-.25-1.26-.41-1.85l-3.85 1.1Zm1.8 3c3.76.97 7.64 1.62 11.63 1.94l.31-4c-3.75-.29-7.41-.9-10.96-1.8l-.99 3.87Zm32.68.39a68.23 68.23 0 0 0 6.15-1.73l-1.26-3.8c-1.9.63-3.83 1.18-5.8 1.63l.9 3.9Zm-31.7-4.26a64.53 64.53 0 0 1-6.63-2.08l-1.4 3.75c2.3.85 4.64 1.6 7.04 2.2l1-3.87Zm-36.5-5.32a.74.74 0 0 1-.18-.69l3.88.94a3.25 3.25 0 0 0-.82-3.03l-2.88 2.78Zm-.19-.68a.71.71 0 0 1 .46-.51l1.32 3.77a3.3 3.3 0 0 0 2.12-2.34l-3.9-.92Zm-4.46 8.14c.3-.83 1.21-1.85 2.57-2.85a15.2 15.2 0 0 1 3.7-2.03l-1.37-3.76a19.95 19.95 0 0 0-4.7 2.56c-1.55 1.14-3.25 2.75-3.96 4.72l3.76 1.36Zm-3.78-.06.03.09 3.8-1.25-.03-.08-3.8 1.25Zm.03.09a2.6 2.6 0 0 0 1.62 1.68c.65.24 1.3.21 1.77.16.93-.1 2.2-.45 3.65-.85l-1.05-3.86c-1.61.44-2.5.68-3.05.74-.27.03-.18-.03.06.06a1.35 1.35 0 0 1 .8.82l-3.8 1.25Zm7.04 1 .03-.02-1.05-3.86-.03.01 1.05 3.86Zm-3.67-3.03c.09.1.17.21.23.34l-3.62 1.72c.1.22.24.41.4.59l2.99-2.65Zm6.05-29.9a49.6 49.6 0 0 0-3.5 3.73l3.06 2.58a45.47 45.47 0 0 1 3.22-3.43l-2.78-2.88Zm-.4.56a48.8 48.8 0 0 0-2.42 7.25l3.88.97c.91-3.66 2.13-6.46 2.12-6.46l-3.59-1.76Zm16.64 21.11c-4.46 0-8.47 1.7-11.76 3.42-1.6.83-3.26 1.78-4.53 2.47a17.4 17.4 0 0 1-3.35 1.5l1.05 3.85c1.37-.37 2.8-1.08 4.2-1.83 1.49-.8 2.84-1.6 4.47-2.44 3.15-1.64 6.44-2.97 9.92-2.97v-4Zm-19.06-13.86a32.38 32.38 0 0 0-1.1 8.51c.09 2.88.78 5.91 2.9 8.12l2.88-2.78c-1.13-1.17-1.7-3.03-1.78-5.45-.06-2.39.38-5.03.98-7.43l-3.88-.97Zm-3.01 22.42c-.83-1.71-4.75-11.22 4.71-23.1l-3.12-2.49c-10.75 13.48-6.43 24.77-5.19 27.33l3.6-1.74Zm36.3-2.56c.16-1.08.32-2.16.5-3.25l-3.96-.61-.5 3.25 3.95.6Zm-.03.14.02-.14-3.95-.6-.02.13 3.95.6Zm.02-.14.5-3.25-3.95-.61a1197 1197 0 0 0-.5 3.26l3.95.6Zm1.92-30.68c0-6.02-.01-10.67.3-17.14l-3.99-.2a313.4 313.4 0 0 0-.31 17.34h4Zm-4 0v.01h4v-.01h-4Zm0 .01v1.95h4v-1.95h-4Zm15.5 15.54h-.16l.04 4h.17l-.05-4Zm-.16 0c-.8 0-1.54.02-2.3 0l-.12 3.99c.85.03 1.67.02 2.47 0l-.05-4Zm.04 4h.17l-.05-4h-.16l.04 4Zm.17 0h.26l-.05-4h-.26l.05 4Zm2.24-4.01h-2.02l.04 4H544l.05-4Zm45.79-29.85 2.86-2.8-2.86 2.8Zm3.88 9.91-4-.15 4 .16Zm1.33 4.86-1.8 3.57h.02l1.78-3.57Zm.63 1h-4v.06l4-.05Zm-.62 1.03-1.83-3.56h-.01l1.84 3.56Zm-20.42 11.22-2.18-3.36-.02.01 2.2 3.35Zm-.65.69-3.14-2.48-.52.65-.21.8 3.87 1.03Zm-.42 1.57 3.86 1.05v-.02h.01l-3.87-1.03Zm-2.76 1.57v4h.5l.5-.13-1-3.87Zm-23.16 16.5v-4h-.3l-.32.05.62 3.95ZM577 165.3l-.77 3.93h.03l.74-3.93Zm.99.77 3.63-1.66v-.02l-3.63 1.68Zm-13.46-3.9-.76 3.93.76-3.92Zm1.95 1.1 3.06-2.58-3.06 2.58Zm-1.6-13.92-4-.09 4 .1Zm-.18 7.92-4-.09 4 .09Zm-31.64-.66 4 .08-4-.08Zm.18-7.92-4-.09 4 .09Zm3.38-7.27 2.74 2.91.35-.33.26-.4-3.35-2.18Zm9.96-6.26.5 3.97-.5-3.97Zm8.7 1.1-.92 3.89.92-3.9Zm6.5.69-1.6-3.67 1.6 3.66Zm5.17-4.15-3.07-2.57-.02.02-.01.02 3.1 2.53Zm.5-.6 3.7-1.5-2.5-6.16-4.27 5.1 3.07 2.56Zm.29.72 3.72-1.45v-.03l-.02-.02-3.7 1.5Zm-1.25 10.4 2.77 2.88h.01l-2.78-2.88Zm-18.48-37.92.46-3.97h-.01l-.45 3.97Zm2.25 1.93-3.85 1.12.01.02v.02l3.84-1.16Zm.06.22 3.84-1.1v-.03l-.01-.03-3.83 1.16Zm-3.43 5.43-2.97-2.67-5.66 6.3 8.46.37.17-4Zm1.08.4-2.63 3.01 2.63-3.02Zm-2.86 3.6-1.8-3.58-.67.34-.5.57 2.97 2.67Zm25.52 97.57 3.95.63.08-.5-.04-.5-3.99.37Zm-7.34-52.52-3.4-2.1-3.6 5.84 6.85.26.15-4Zm.54-17.2-1.26-3.8-4.42 1.47 2.12 4.15 3.56-1.82Zm-38.41 26.86 3.12 2.5 1.8-2.24-1.56-2.42-3.36 2.16Zm52.57-4.5-3.63-1.69-1.9 4.05 4.24 1.44 1.29-3.8Zm-10.8-2.54-3.9.96.8 3.23 3.33-.2-.24-3.99Zm14.8 5.05-3.89.96 3.88-.96Zm-51.84-18.22-3.97.48.12.96.54.8 3.31-2.24Zm-6.2 16.96 3.87-1.02-.11-.42-.2-.38-3.56 1.82Zm-4.02-10.41-3.9.9 3.9-.9Zm10.39-6.15-3.93.77v.02l3.93-.8Zm2.38 6.54-3.93.78.45 2.27 2.2.74 1.28-3.79Zm-.64-3.2-3.92.77v.02l3.92-.8Zm-1.15-.42-3.92.8 1.12 5.54 4.85-2.9-2.05-3.44Zm2.35 4-3.04 2.6 10 11.65-3.04-15.05-3.92.8Zm59.76 34-3.78-1.31-1.3 3.73 3.72 1.34 1.36-3.76Zm-8.33-18.32-2.53 3.1.1.07.1.07 2.33-3.24Zm-3.6-2.86-3.2-2.39-2.35 3.17 3.13 2.4 2.43-3.18Zm-59.61-40.79 3.75 1.39 2.34-6.34-6.68 1 .59 3.95Zm13.87-2.57-3.11-2.51-.19.23-.15.26 3.45 2.02Zm-14.05 2.6-3.95-.58-.95 6.33 6.1-1.93-1.2-3.81Zm23.78-13.85 2.88 2.78.05-.05.04-.05-2.97-2.67Zm-10.62-5.85 2.45 3.16.1-.07.08-.08-2.63-3ZM570.43 219l4-.09-4 .09Zm-.1-8.24v-4h-4.24l.25 4.24 4-.24Zm-15.5 19.04.31 3.99 8.69-.69-6.18-6.14-2.82 2.84Zm-10.66 0-3.88-1-1.19 4.61 4.75.38.32-3.99Zm26.4-3.17-4 .02.04 5.5 5.23-1.73-1.26-3.8Zm-44.54-.85-1.4 3.75 4.63 1.73.73-4.89-3.96-.59Zm.34-2.19 3.95.6.33-2.2-1.68-1.44-2.6 3.04Zm-30.46-22.34 3.06 2.57.03-.02.02-.03-3.1-2.52Zm13.2-13.11-2.68-2.97 2.68 2.97Zm5 31.76.01-4h-13.96l11.84 7.4 2.12-3.4Zm-18.91-17.78-3.26 2.32 3.08 4.32 3.3-4.15-3.12-2.49Zm31.14 21.61-3.95-.6 3.95.6Zm.02-.13 3.96.6-3.96-.6ZM487 164c0-34.21 27.95-62 62.5-62v-8c-38.9 0-70.5 31.31-70.5 70h8Zm62.5-62c34.55 0 62.5 27.79 62.5 62h8c0-38.69-31.6-70-70.5-70v8Zm37.47 79.7a9.37 9.37 0 0 1 2.76 6.96l8 .3a17.37 17.37 0 0 0-5.03-12.85l-5.73 5.58Zm6.3 15.55a2.87 2.87 0 0 1-1.59-2.57h8a5.13 5.13 0 0 0-2.84-4.6l-3.57 7.17Zm-1.59-2.52a2.86 2.86 0 0 1 1.55-2.59l3.65 7.12a5.14 5.14 0 0 0 2.8-4.64l-8 .11Zm1.54-2.58c-3.8 1.96-16.82 8.84-20.76 11.41l4.36 6.71c3.53-2.3 16.13-8.97 20.08-11.02l-3.68-7.1Zm-20.78 11.42c-.42.28-.73.6-.84.7a9.09 9.09 0 0 0-.64.72l-.07.1-.03.02v.01h-.01v.01l3.14 2.48 3.14 2.47v.01a4.09 4.09 0 0 0 .12-.15l.03-.04-.09.09a2.4 2.4 0 0 1-.36.27l-4.39-6.69Zm-2.32 3.02-.42 1.57 7.74 2.04.41-1.57-7.73-2.04Zm-.4 1.55a3.1 3.1 0 0 1 .65-1.26c.18-.2.33-.31.37-.34.06-.04.01 0-.2.08a6.62 6.62 0 0 1-.74.26l1 3.87 1.01 3.87h.03l.04-.02.12-.03a18.98 18.98 0 0 0 1.65-.57 9.02 9.02 0 0 0 1.69-.91 5.22 5.22 0 0 0 2.1-2.86l-7.73-2.1Zm-18.37 15.11h-3.7v8h3.7v-8Zm24.91-54.01a2.63 2.63 0 0 1-1.9-1.48l7.25-3.37a5.37 5.37 0 0 0-3.88-3.02l-1.47 7.87Zm-12.48-3.14s-.16-.03-.35-.25l6.1-5.16a7.37 7.37 0 0 0-4.25-2.44l-1.5 7.85Zm-2.9-16.83-.18 7.91 8 .18.17-7.92-8-.17Zm-23.82 7.42.17-7.91-8-.18-.17 7.92 8 .17Zm.17-7.91c.04-1.5.82-3.21 2.13-4.45l-5.48-5.82a14.6 14.6 0 0 0-4.64 10.1l8 .17Zm-.61-7.36 3.35 2.18v.01l-.01.01.06-.09.34-.43c.32-.4.8-.93 1.46-1.5a9.97 9.97 0 0 1 5.25-2.47l-.99-7.94a17.95 17.95 0 0 0-9.51 4.38 20.75 20.75 0 0 0-3.21 3.53l-.06.09-.02.03-.01.01 3.35 2.19Zm10.46-2.3c1.77-.22 4.22.3 7.28 1.03l1.84-7.8c-2.63-.61-6.62-1.6-10.12-1.16l1 7.94Zm7.28 1.03c1.3.3 2.81.66 4.15.85 1.13.16 3.11.38 4.87-.39l-3.2-7.33c.36-.16.54-.13.35-.13-.15 0-.44 0-.88-.07-.93-.13-2.05-.4-3.46-.72l-1.83 7.79Zm9.01.46a17.5 17.5 0 0 0 4.69-3.22 24.1 24.1 0 0 0 1.99-2.07l-6.2-5.05c.09-.11-.42.5-1.23 1.25a9.84 9.84 0 0 1-2.43 1.76l3.18 7.33Zm6.64-5.24.5-.6-6.13-5.14-.5.6 6.13 5.14Zm-6.27-1.66.29.71 7.41-3-.29-.72-7.41 3Zm.27.66s.49 1.24.6 2.75c.11 1.56-.2 2.65-.9 3.32l5.56 5.75c3.15-3.05 3.51-7.02 3.32-9.66a18.4 18.4 0 0 0-1.13-5.06l-7.45 2.9Zm-16.45-25a1.32 1.32 0 0 1-1.14-.92l7.68-2.23a6.68 6.68 0 0 0-5.63-4.8l-.91 7.95Zm-1.13-.88.06.22 7.66-2.32-.07-.21-7.65 2.31Zm.05.17a3.5 3.5 0 0 1-.02-1.85c.04-.13.06-.14-.02 0-.15.28-.41.7-.78 1.24a31.6 31.6 0 0 1-1.74 2.26l5.95 5.34c.44-.49 1.46-1.76 2.35-3.02.44-.63.93-1.38 1.3-2.1a8 8 0 0 0 .57-1.32c.1-.34.45-1.46.07-2.77l-7.68 2.22Zm.24 8.32a2.33 2.33 0 0 1-1.38-.59l5.26-6.03a5.7 5.7 0 0 0-3.53-1.38l-.35 8Zm-1.38-.59c-.28-.25-.9-.94-.95-2.07-.05-1.06.42-1.7.52-1.84.11-.13.1-.08-.22.14-.29.2-.73.47-1.37.78l3.58 7.16c1.54-.77 3.22-1.77 4.28-3.1a5.26 5.26 0 0 0 1.2-3.54 5.05 5.05 0 0 0-1.78-3.56l-5.26 6.03Zm21.36 47.74a13.44 13.44 0 0 0 2-6.78l-8-.16c-.02 1-.31 1.93-.81 2.75l6.81 4.19Zm2.17-14.69c.05-2.3-.49-4.5-1.48-6.44l-7.12 3.65c.4.8.62 1.68.6 2.61l8 .18Zm-5.15-9c-.13.12-.48.37-1.15.6l2.52 7.59a11 11 0 0 0 4.17-2.43l-5.54-5.77Zm-.58 25.6c.24 0 .46.03.63.06l1.51-7.85c-.51-.1-1.13-.19-1.84-.21l-.3 8Zm18.47 2.86c.68-1.46.65-3.1.01-4.5l-7.27 3.34c-.3-.67-.33-1.5.01-2.24l7.25 3.4Zm-3.85-7.52c-4.13-.8-7.83-.9-10.81-.72l.47 7.99a35.4 35.4 0 0 1 8.81.58l1.53-7.85Zm-14.33 4.47a.64.64 0 0 1-.13-.24l7.77-1.92a7.38 7.38 0 0 0-1.53-3l-6.11 5.16Zm13.27 5.14c.88.3 1.53.58 1.92.81.2.11.2.14.12.06a2.55 2.55 0 0 1-.64-1.2l7.77-1.91c-.3-1.23-1-2.09-1.52-2.6a8.6 8.6 0 0 0-1.68-1.25 18.69 18.69 0 0 0-3.4-1.49l-2.57 7.58Zm-49.19-4.37c-1.27-2.5-2.97-6.39-3.68-9.49l-7.8 1.8c.93 4.04 2.97 8.61 4.36 11.33l7.13-3.64Zm6.73-15.52a5.09 5.09 0 0 0-.78-1.87l-6.62 4.5a2.91 2.91 0 0 1-.45-1.08l7.85-1.55Zm2.38 6.55-.64-3.22-7.84 1.58.63 3.19 7.85-1.55Zm-.63-3.2a4.66 4.66 0 0 0-3.02-3.48 4.83 4.83 0 0 0-4.12.4l4.11 6.86c-.91.55-1.91.55-2.7.27a3.34 3.34 0 0 1-2.13-2.51l7.86-1.54Zm-1.16-.44-.6-2.93-7.83 1.59.59 2.92 7.84-1.58Zm1.46 2.18a5.28 5.28 0 0 0-2.31-1.56l-2.57 7.58a2.73 2.73 0 0 1-1.19-.8l6.07-5.22Zm.89 1.81a5.96 5.96 0 0 1-.12-1.3l-8-.18c-.02 1.04.07 2.06.28 3.07l7.84-1.59Zm-17.1 11.46c.4 1.48 1.05 2.95 1.97 4.38l6.74-4.31a7.8 7.8 0 0 1-.97-2.11l-7.74 2.04Zm71.58 27.1c.55.2 1.08.43 1.6.68l3.58-7.15c-.82-.41-1.65-.76-2.46-1.06l-2.72 7.53Zm-1.93-7.9a9.73 9.73 0 0 1-.5 2.83l7.57 2.61c.56-1.63.85-3.35.92-5.14l-8-.3Zm2.97-12.56a43.15 43.15 0 0 0-5.66-4.86l-4.69 6.48a35.33 35.33 0 0 1 4.63 3.97l5.72-5.59Zm-8.39-2.1c.33-.44.73-1.03 1.05-1.67.16-.32.35-.75.48-1.26.12-.46.28-1.32.03-2.33l-7.77 1.92a3.43 3.43 0 0 1-.01-1.58l.08-.25.02-.05v-.02l-.01.05-.07.1-.22.32 6.42 4.77Zm-5.64.8c1.25.95 2.89 2.28 3.5 2.78l5.05-6.2c-.6-.5-2.33-1.9-3.69-2.94l-4.86 6.35Zm-60.94-45.35a51.13 51.13 0 0 0-1.7 29.47l7.8-1.79c-2-8.69-1.48-17.1 1.4-24.91l-7.5-2.77Zm16.4 21.54c-.73-5.92.35-13.33 4.67-20.7l-6.9-4.05c-5.22 8.91-6.65 18.08-5.72 25.72l7.94-.97Zm-11.63-16.3-.3.07-.13.03-1.18-7.91c-.15.02-.45.07-.8.17l2.41 7.63Zm15.97-3.92a171.7 171.7 0 0 1 9.5-10.98l-5.78-5.55c-2.88 3-6.2 6.85-9.95 11.51l6.23 5.02Zm9.58-11.08.03-.03-5.94-5.35-.03.03 5.94 5.35Zm.4-18.27c-5.74-.64-11.34 2.1-16.63 6.73l5.27 6.02c4.55-3.98 7.98-5.07 10.48-4.8l.89-7.95ZM532 108c-8.22 6.38-13.38 13.78-14.65 22.28l7.9 1.18c.88-5.84 4.49-11.57 11.66-17.14L532 108Zm42.43 110.9a30 30 0 0 1 .14-3.57l.01-.15v-.02.02l-3.95-.63-3.95-.63v.06l-.02.1-.04.3a37.97 37.97 0 0 0-.19 4.7l8-.18Zm-8.1-7.91.2 2.6.09.95.02.28v.1h.01l3.98-.37 3.99-.37v-.02l-.01-.07-.03-.27-.08-.91c-.06-.74-.13-1.66-.17-2.4l-8 .48Zm4.48-4.24h-.48v8h.48v-8Zm-22.77 24.04c-.18.7-.65.77-.24.58a2.64 2.64 0 0 1 .53-.18h-.04v.01h-.01l-.63-3.95-.62-3.95h-.05l-.07.02a5.42 5.42 0 0 0-.75.17c-.45.12-1.07.31-1.74.63-1.2.55-3.4 1.9-4.13 4.67l7.75 2Zm3.3.46c-.7 0-1.15-.21-1.19-.23-.1-.04-.12-.06-.04-.01.17.1.43.3.75.57a21.61 21.61 0 0 1 1.07.97l.07.07.01.01 2.82-2.84 2.82-2.84-.02-.01-.03-.03-.1-.1a24.94 24.94 0 0 0-3.05-2.53c-.29-.18-.66-.4-1.08-.58a5.06 5.06 0 0 0-2.02-.45v8ZM549.5 226a63.6 63.6 0 0 1-5.02-.2l-.63 7.98c1.87.15 3.75.22 5.65.22v-8Zm5.01-.2c-1.65.13-3.32.2-5.01.2v8c1.9 0 3.78-.07 5.64-.22l-.63-7.98Zm20.07.8c-.01-2.46-.1-5.39-.15-7.7l-8 .17c.05 2.42.14 5.2.15 7.57l8-.05ZM612 164c0 27.35-17.86 50.6-42.68 58.82l2.52 7.6C599.8 221.13 620 194.92 620 164h-8Zm-112.98 39.76c3.38-4.16 7.8-8.17 12.77-12.67l-5.36-5.93c-4.86 4.4-9.78 8.82-13.62 13.56l6.21 5.04Zm23.27-34.57c-4.68 5.86-10.2 10.86-15.86 15.97l5.36 5.94c5.58-5.05 11.6-10.47 16.75-16.91l-6.25-5Zm-10.3 54.1a70.54 70.54 0 0 0 12.64 6.23l2.8-7.5a62.46 62.46 0 0 1-11.2-5.52l-4.23 6.8Zm16.98-2.75c-5.14-4.39-11.18-4.64-14.85-4.65v8c3.4 0 6.85.34 9.64 2.73l5.2-6.08Zm-36.12-21.88-.78.96 6.26 4.98c.2-.26.42-.52.64-.78l-6.12-5.16ZM479 164c0 15.06 4.8 29.01 12.94 40.43l6.52-4.64A61.36 61.36 0 0 1 487 164h-8Zm50.99 62.36.3-2.03-7.9-1.2-.31 2.05 7.91 1.18Zm.3-2.03.03-.14-7.91-1.2-.02.13 7.9 1.2Zm.03-.14-7.9-1.2h-.01l7.9 1.2Z" mask="url(#aa)"/><g filter="url(#ab)"><path fill="#fff" fill-rule="evenodd" d="M564.6 228.29a66.26 66.26 0 0 0 5.98-1.67c-.01-1.76-.06-3.75-.1-5.61l-.05-2.02c-.06-2.8.2-4.44.2-4.44s-.2-2.22-.3-3.8h.48s2.51-.65 2.76-1.57l.42-1.57s.43-.55.65-.7c3.74-2.43 16.55-9.2 20.42-11.2a1.14 1.14 0 0 0 0-2.04c-.68-.34-1.36-.63-2.04-.87.42-1.22.65-2.54.7-3.99.15-3.68-1.24-7.2-3.88-9.91a39.26 39.26 0 0 0-5.15-4.42c-.6-.5-2.28-1.86-3.6-2.86.54-.72 1-1.5.9-1.92-.24-.94-2.01-1.83-4-2.5.16-.36.16-.77 0-1.13-.19-.4-.56-.69-1-.77a40.1 40.1 0 0 0-9.8-.65 3.37 3.37 0 0 0-.7-1.38 3.38 3.38 0 0 0-1.96-1.1 8.23 8.23 0 0 0-1.24-.14 9.45 9.45 0 0 0 1.4-4.76l.18-7.92a9.44 9.44 0 0 0-1.04-4.52c1.1-.37 2-.89 2.66-1.51 3.85-3.72 1.35-10.13 1.25-10.4l-.3-.72-.5.6c-.02.03-2.53 3-5.16 4.14-1.24.55-3.8-.05-6.5-.69-2.84-.67-6.06-1.43-8.7-1.1-6.42.8-9.96 6.27-9.96 6.27a10.6 10.6 0 0 0-3.38 7.27l-.18 7.92c-.01.74.05 1.47.2 2.19a1.4 1.4 0 0 0-.56-.38l-.64-3.2c-.1-.47-.71-.68-1.15-.42l-.6-2.92a1.09 1.09 0 0 0-.16-.4c-.82-6.79.43-15.07 5.2-23.22 3.71-4.6 6.95-8.35 9.73-11.24l.03-.04c2.97-1.48 3.91-2.68 2.86-3.6a1.7 1.7 0 0 0-1.08-.4c.63-.7 3.69-4.55 3.43-5.43l-.07-.22a2.69 2.69 0 0 0-2.24-1.93c-4.12-.46-8.64 1.46-13.55 5.76-7.7 5.97-12.09 12.54-13.16 19.7l.18-.03a47.13 47.13 0 0 0-1.55 27.2c.82 3.57 2.69 7.8 4.02 10.4.28 1.06.75 2.14 1.47 3.26-4.93 6.15-10.7 11.36-16.31 16.44-4.92 4.44-9.58 8.66-13.2 13.1l-.71.88c-10.1 12.68-5.99 23.07-4.95 25.21a.5.5 0 0 0 .08.12l.03.09c.28.86 1.55.51 4.62-.32h.02c1.58-.44 3.42-1.46 5.49-2.61 3.84-2.14 8.47-4.71 13.63-4.7A66.35 66.35 0 0 0 549.5 230a67.6 67.6 0 0 0 15.1-1.71Z" clip-rule="evenodd"/><path fill="#4589B7" d="m589.84 178.9.71-.7-.71.7Zm3.88 9.91-1-.03 1 .03Zm-11.08-3.13.71-.7-.71.7Zm1.12 2.77 1 .04-1-.04Zm-5.5 4.08.52.85-.52-.85Zm16.8 1.14-.46.9.45-.9Zm.62 1h-1v.02l1-.01Zm-.62 1.03-.46-.89.46.9Zm-20.42 11.22-.55-.84.55.84Zm-1.07 2.26.97.26-.97-.26Zm-2.76 1.57v1h.13l.12-.03-.25-.97Zm-32.6-25.73.95-.33-.07-.2-.14-.15-.74.68Zm-7.42-8.11.74-.68-.15-.16-.2-.08-.39.92Zm35.3-.3-.1-1-.47.05-.26.4.83.55Zm-5.6 8.37-.84-.55-.07.1-.04.13.94.32Zm6.33-14.1.68-.73-.26-.24-.37-.03-.05 1Zm-10.97-.61.06-1-.4-.02-.3.25.64.77Zm-6.09 5.02-.57.82.63.44.58-.49-.64-.77Zm-7.23-5.03.57-.83-.25-.18h-.32v1Zm5.12 56.99v-1h-.07l-.08.01.15.99Zm-3.63-17.44v-1h-1v1h1Zm11.48 0h1v-1h-1v1Zm29.38-35.18-.63.77v.01l.02.01.6-.79Zm.16.36-1-.05v.05h1Zm-.18.35.6.8h.01l-.6-.8ZM577 165.3l-.19.98h.01l.19-.98Zm1 .77.9-.41-.9.41Zm-42.86 32.03.5-.87-.05-.03-.06-.02-.4.91Zm2.76 3.83.99-.15v-.02l-.01-.03-.98.2Zm23.7 0 .97.23v-.02l-.97-.2Zm2.76-3.84.5.87.07-.04.06-.05-.63-.78Zm-24.4-28.48.97.22.01-.03v-.03l-.98-.16Zm-.15.64v1-1Zm19.74.22-.06 1 .06-1Zm0-.9h1v-.1l-1 .1Zm4.99-7.4-.2.99.2-.98Zm1.95 1.1.77-.65-.77.65Zm-1.6-13.92-1-.02 1 .02Zm-.18 7.92-1-.02 1 .02Zm-10.07 9.91.02-1-.02 1Zm-11.48-.23-.02 1 .02-1Zm-10.09-10.34 1 .02-1-.02Zm.18-7.92-1-.02 1 .02Zm18.52-5.27-.44.9.44-.9Zm-5.18-8.26.12.99-.12-1Zm8.7 1.1-.23.97.23-.98Zm6.5.69-.4-.92.4.91Zm5.17-4.15-.77-.65v.01l.77.64Zm.5-.6.92-.37-.62-1.54-1.07 1.27.77.64Zm.29.72.93-.36v-.02l-.93.38Zm-1.25 10.4.7.72-.7-.72Zm-12.57 9.7a1 1 0 0 0 2 0h-2Zm3.01 0a1 1 0 1 0 2 0h-2Zm-16.47 0a1 1 0 0 0 2 0h-2Zm3.02 0a1 1 0 0 0 2 0h-2Zm6.54 28.86-.9.45.9-.45Zm2.6 5.2-.89.45.9-.45Zm.8.56-.15 1 .14-1Zm6.42 2.6.7.72-.7-.72Zm-4.23 4.04-.7-.72.7.72Zm-.3.91-.99.16v.02l.99-.18Zm1 5.71.99-.16v-.01l-.99.17Zm-1.52 1.1-.46.88.46-.89Zm-5.23-2.7-.46.88.46-.89Zm-.98 0-.45-.9.45.9Zm-5.22 2.7.46.88-.46-.89Zm-1.52-1.1.98.17-.98-.17Zm1-5.7-1-.18 1 .17Zm-.31-.92.7-.72-.7.72Zm-4.22-4.04-.7.72.7-.72Zm.58-1.76.14.99-.14-1Zm5.84-.84.14 1h.01l-.15-1Zm.79-.56.9.45-.9-.45Zm2.61-5.2.9.45-.9-.45Zm-.12-76.48.12-1-.12 1Zm2.25 1.93-.97.28v.01l.97-.29Zm.06.22.96-.28v-.01l-.96.29Zm-8.26 7.2.12 1-.12-1Zm5.9-1.38-.65.76.66-.75Zm-2.85 3.61-.45-.9-.17.1-.12.13.74.67Zm14.18 71.5-.17.99.17-.99Zm-.04 0-.14.99.14-1Zm4.4 26.7.04 1h.04l-.09-1Zm-8.15 1.32v1h1v-1h-1Zm-11.48 0h-1v1h1v-1Zm-8.75-1.35-.05 1 .05-1Zm-2.77 11.14.97-.27-.97.27Zm32.63-.15-.96-.27.96.27Zm4.72-6.76.45.9.06-.04.05-.03-.56-.84Zm.78-4.83.99.16.02-.12-.01-.13-1 .1Zm-36.32-53.94.9-.46-.9.46Zm-.94-1.67.84-.53-.85.53Zm-5.21 41.84-1-.02v.05l1-.03Zm0 0 1-.02-1 .02Zm.01.63 1-.03-1 .03Zm34.49-38.47-.79-.61.79.61Zm-1.24 1.31-.66-.75.66.75Zm-.46.38-.61-.78.61.78Zm-2.43 1.4-.37-.93.37.93Zm.16.43-.93.35.93-.35Zm.73 2.36.98-.2-.98.2Zm7.88-3.25-1 .02 1-.03Zm10.63 1.74-.86-.5.86.5Zm4.06 2.4-.98.23.98-.24Zm-14.72-3.52 1 .1-1-.1Zm10.25 1.82-.86-.51.86.5Zm-1 1.6.85.54-.84-.54Zm3.71 3.06.74.68-.74-.68Zm-.07.07-.73-.68.73.68Zm-8.6 4.2v1-1Zm-.03 0v1-1Zm4.5-6.57.82.56-.82-.56Zm-4.01 4.56.5.86.08-.04.07-.06-.65-.76Zm-5.63-5.84.9.44-.9-.44Zm-.64.9-.85-.54-.01.02-.01.02.87.5Zm-36.4 5.79.27.96-.26-.96Zm-.22.06.24.97-.24-.97Zm-.1.02.25.97-.25-.97Zm11.15-8.84-1-.02 1 .03Zm0-.49.07-1-1.08-.07.01 1.08h1Zm-10.03-15.05-.83.56.83-.56Zm-1.32-.43.32.94-.32-.94Zm1.9 3.88.58.81-.59-.81Zm-10.8 3.1-.98.22.98-.22Zm10.93-3.2.58.82-.58-.81Zm-.54-2.95-.98.19.98-.2Zm-2.99 17.3h-1 1Zm2.5-8.52.83.55-.84-.55Zm1.34-1.86.73.68.09-.1.05-.1-.87-.48Zm-1.3 1.78-.83-.55.83.55Zm-2.48 10.06 1-.09-1 .09Zm.88 4.42-.98-.23-.13.56.42.4.68-.73Zm4.42-16.64-.32.95.32-.95Zm-.63-3.2-.98.2.98-.2Zm-1.15-.42.51.86-.51-.86Zm2.35 4-.76.65.76-.65Zm2.97 7.02.97-.23-.97.23Zm.23 1.06.98-.2-.98.2Zm2.78 43.87-.03 1 .03-1Zm31.05-1.17h1-1Zm-6.13.88-.06-1 .06 1Zm5.67-33.66-1 .01 1-.01Zm22.32 15.7-.3.96.3-.95Zm-6.9-1.12.04-1-.03 1Zm-.66-15.84-.58-.82.58.82Zm-9.72 26.83a1 1 0 1 0-1.76.95l1.76-.95Zm-53.57-71.5-.99-.15-.23 1.58 1.52-.48-.3-.95Zm49.03 79.88-1 .06 1-.06Zm-26.16 19.04-.08 1 .08-1Zm-18.14-4.02-.35.94.35-.94ZM495 227.2l.27.97-.27-.97Zm3.3-7.93.72-.7-.72.7Zm.32 1.17-.97-.23.97.23Zm-.83.92-.33-.95h-.01l.34.95Zm1.48-23.7.9.44-1.6-1.16.7.72Zm-8.91 29.87-.95.3.95-.3Zm4.62-.32-.26-.96.26.96Zm-4.73.11.9-.43-.9.43Zm18.86-39.2-.67-.74.67.75ZM497 204.53l.97.24-.97-.25Zm17.12 15.37v-1 1Zm27.66-9.13.01 1v-1Zm-13.52-17.55h-1 1Zm0 .01h1-1Zm13.36 17.54.01 1v-1Zm.43 0-.01-1v1ZM570.48 221l-1 .02 1-.02Zm-70 3.59.5.87-.5-.87ZM484 164c0-35.9 29.32-65 65.5-65v-2c-37.27 0-67.5 29.99-67.5 67h2Zm65.5-65c36.18 0 65.5 29.1 65.5 65h2c0-37.01-30.23-67-67.5-67v2Zm39.62 80.6a12.37 12.37 0 0 1 3.6 9.18l2 .07a14.37 14.37 0 0 0-4.17-10.65l-1.43 1.4Zm-7.2 6.78c.74.76.86 1.53.84 2.03l2 .07c.03-.92-.2-2.26-1.4-3.5l-1.44 1.4Zm.84 2.03c0 .07-.04.24-.17.53-.12.27-.3.56-.47.84a12.97 12.97 0 0 1-.64.92l-.04.05-.01.01.78.63.78.63V192l.02-.02a3.32 3.32 0 0 0 .24-.32 12.35 12.35 0 0 0 1.16-1.91c.16-.36.33-.81.35-1.27l-2-.08Zm-12.58 8.92.5.87.02-.01.04-.03c.04-.02.1-.05.16-.1l.6-.35 2.05-1.2 5.23-3.13-1.04-1.7a548.3 548.3 0 0 1-7.25 4.3l-.6.36-.16.1-.05.02v.01h-.01l.5.86Zm24.43-2.77c.05.03.07.07.07.12h2c0-.81-.46-1.55-1.18-1.9l-.9 1.78Zm.07.13c0 .04-.02.1-.08.12l.91 1.78a2.14 2.14 0 0 0 1.17-1.93l-2 .03Zm-.08.12c-3.85 2-16.72 8.8-20.51 11.27l1.1 1.67c3.68-2.4 16.44-9.15 20.33-11.16l-.92-1.78Zm-20.51 11.27c-.15.1-.28.22-.36.3a6.18 6.18 0 0 0-.45.5l-.05.08-.02.02.78.63.78.62.02-.02.04-.06.15-.18.17-.18c.07-.06.07-.06.03-.04l-1.1-1.67Zm-1.07 1.27-.41 1.58 1.93.5.41-1.57-1.93-.5Zm-.41 1.57c.03-.12.07-.08-.15.08-.19.13-.45.26-.75.39a9.11 9.11 0 0 1-1.06.37l-.07.02h-.02l.25.97.25.97h.01l.03-.01.09-.03a11.08 11.08 0 0 0 1.3-.45 6.2 6.2 0 0 0 1.12-.6c.32-.22.77-.6.93-1.19l-1.93-.52Zm-31.59-18.26c.12.06.23.17.28.32l-1.9.64c.14.4.43.7.78.86l.84-1.82Zm-2.07-6.32-7.42-8.1-1.48 1.34 7.43 8.11 1.47-1.35Zm26.3-8.29-5.6 8.38 1.66 1.1 5.6-8.36-1.65-1.12Zm-7.86 14.93a.54.54 0 0 1 .28-.32l.84 1.82c.35-.16.64-.46.77-.86l-1.9-.64Zm13.41-14.94a11.91 11.91 0 0 0-3.3-5.89l-1.37 1.46a9.94 9.94 0 0 1 2.7 4.81l1.97-.38Zm-15.59-6.54-6.08 5.02 1.27 1.54 6.09-5.02-1.28-1.54Zm-4.87 4.97-7.24-5.04-1.14 1.64 7.23 5.04 1.15-1.64Zm1 51.78h-3.69v2h3.7v-2Zm-7.32-15.44h11.48v-2h-11.48v2Zm31.65-33c-.6 0-1.7-.06-2.11-.12l-.32 1.97c.58.1 1.8.15 2.43.15v-2Zm8.6-2.39a.57.57 0 0 1-.22-.48l2 .09c.01-.46-.19-.9-.56-1.19l-1.22 1.58Zm-.23-.43c0-.22.11-.37.2-.44l1.23 1.58c.32-.25.57-.65.57-1.14h-2Zm-7.23-8.7c.12.02.22.1.27.2l1.81-.84a2.37 2.37 0 0 0-1.71-1.33l-.37 1.97Zm-48.94 29.8 6.86 2.92.79-1.83-6.87-2.93-.78 1.84Zm6.75 2.87a4.86 4.86 0 0 1 2.3 3.18l1.95-.4a6.85 6.85 0 0 0-3.24-4.5l-1.01 1.72Zm27.95 3.18a4.85 4.85 0 0 1 2.29-3.18l-1.02-1.73a6.84 6.84 0 0 0-3.23 4.5l1.96.4Zm-23.6-32.76-.14.65 1.95.45.14-.65-1.94-.45Zm21.57 1.1v-.9h-2v.9h2Zm3.8-7.32c.6.11 1.07.4 1.38.76l1.53-1.3a4.37 4.37 0 0 0-2.54-1.43l-.37 1.97Zm-.47-13.83-.17 7.92 2 .04.17-7.91-2-.05Zm-9.22 16.85-11.48-.23-.04 2 11.48.24.04-2Zm-20.59-9.55.18-7.92-2-.04-.18 7.91 2 .05Zm.18-7.92a9.6 9.6 0 0 1 3.06-6.56l-1.37-1.46a11.6 11.6 0 0 0-3.7 7.98l2 .04Zm25.67-4.3c-2.29 0-4.96-.55-7.71-1.89l-.88 1.8a19.76 19.76 0 0 0 8.59 2.1v-2Zm-7.71-1.89a25.7 25.7 0 0 0-10.8-2.46 27.56 27.56 0 0 0-4.96.38h-.03l.2.98.22.98.06-.02a10.98 10.98 0 0 1 1.16-.17c.8-.09 1.95-.18 3.32-.15 2.76.04 6.39.53 9.95 2.26l.88-1.8Zm-15.58-1.1.84.54.02-.04.11-.15a15.7 15.7 0 0 1 2.26-2.43 13.1 13.1 0 0 1 6.85-3.2l-.25-1.98a14.96 14.96 0 0 0-7.91 3.67 17.76 17.76 0 0 0-2.76 3.04l.84.55Zm10.08-5.27c2.42-.3 5.45.4 8.35 1.07l.46-1.94c-2.79-.66-6.2-1.47-9.06-1.12l.25 1.99Zm8.35 1.07c1.34.32 2.7.64 3.89.81 1.13.16 2.34.23 3.24-.17l-.8-1.83c-.34.15-1.02.18-2.16.02a45.3 45.3 0 0 1-3.71-.77l-.46 1.94Zm7.13.64a14.57 14.57 0 0 0 3.84-2.67c1-.93 1.66-1.71 1.7-1.76l-1.55-1.26c.02-.02-.59.7-1.51 1.55-.93.87-2.12 1.8-3.28 2.3l.8 1.84Zm5.53-4.42.5-.6-1.53-1.28-.5.6 1.53 1.28Zm-1.2-.86.3.72 1.85-.76-.29-.71-1.85.75Zm.3.7c.04.1.64 1.67.79 3.62.15 1.97-.19 4.13-1.8 5.7l1.39 1.44c2.23-2.16 2.57-5.05 2.4-7.29-.16-2.25-.86-4.02-.92-4.2l-1.87.73Zm-10.9 19.73c0-.47.13-.85.28-1.08a.68.68 0 0 1 .19-.2.12.12 0 0 1 .04-.02v-2a2.3 2.3 0 0 0-1.9 1.13 4 4 0 0 0-.6 2.17h2Zm.51-1.3c.01 0 .03 0 .05.02.04.03.1.09.18.2.15.23.28.61.28 1.08h2a4 4 0 0 0-.6-2.17 2.3 2.3 0 0 0-1.9-1.13v2Zm-13.96 1.3c0-.47.13-.85.28-1.08a.69.69 0 0 1 .19-.2l.04-.02v-2a2.3 2.3 0 0 0-1.9 1.13 4 4 0 0 0-.6 2.17h2Zm.5-1.3h.02l.03.02a.6.6 0 0 1 .19.2c.15.23.28.61.28 1.08h2a4 4 0 0 0-.6-2.17 2.3 2.3 0 0 0-1.91-1.13v2Zm6.8 6.29c-.66 0-1.16-.21-1.48-.46-.37-.28-.39-.5-.39-.46h-2c0 .82.53 1.56 1.17 2.05.67.52 1.6.87 2.7.87v-2Zm1.88-.96c0-.04-.04.2-.41.49-.32.25-.82.47-1.47.47v2c1.12 0 2.04-.38 2.7-.9.63-.49 1.14-1.2 1.17-1.98l-2-.08Zm-2.52 25.3 2.61 5.19 1.79-.9-2.61-5.2-1.79.9Zm2.62 5.2c.3.59.87 1 1.52 1.1l.3-1.98-.03-.02-.01-.01-1.78.9Zm7.4 1.97-4.22 4.05 1.38 1.44 4.23-4.04-1.38-1.45Zm-4.23 4.06c-.47.46-.7 1.12-.59 1.78l1.98-.31V195l.01-.02-1.4-1.42Zm-.59 1.8 1 5.7 1.97-.34-1-5.7-1.97.34Zm1 5.7v.01l-.01.02a.08.08 0 0 1-.03.01h-.04l-.91 1.77a2.05 2.05 0 0 0 2.97-2.14l-1.98.33Zm-.08.03-5.22-2.7-.92 1.78 5.23 2.7.91-1.78Zm-5.22-2.7c-.6-.3-1.3-.3-1.9 0l.91 1.79.04-.01h.03l.92-1.77Zm-1.9 0-5.22 2.7.92 1.78 5.22-2.7-.92-1.77Zm-5.22 2.7a.1.1 0 0 1-.02.01h-.01l-.04-.01-.01-.02-1.97-.35c-.3 1.7 1.5 2.9 2.97 2.15l-.92-1.78Zm-.08-.03 1-5.7-1.97-.35-1 5.71 1.97.34Zm1-5.7a2.02 2.02 0 0 0-.6-1.81l-1.38 1.44v.02l1.98.35Zm-.6-1.81L539 189.5l-1.38 1.45 4.22 4.04 1.38-1.44Zm-4.22-4.04-.01-.02.01-.02.03-.01-.28-1.98a2.03 2.03 0 0 0-1.14 3.47l1.39-1.44Zm5.88-.89c.65-.1 1.23-.5 1.53-1.1l-1.78-.9-.02.01a.09.09 0 0 1-.03.02l.3 1.97Zm1.53-1.1 2.61-5.2-1.78-.9-2.61 5.2 1.78.9Zm2.61-5.2.01-.01.04-.01a.07.07 0 0 1 .04 0l.01.02 1.79-.9a2.06 2.06 0 0 0-3.67 0l1.78.9Zm-1.12-75.94c.64.08 1.2.56 1.4 1.22l1.92-.55a3.69 3.69 0 0 0-3.1-2.65l-.22 1.98Zm1.4 1.23.06.22 1.92-.58-.07-.22-1.91.58Zm.06.2c-.05-.18 0-.27-.04-.11-.04.11-.1.28-.23.5-.23.44-.58.99-.97 1.56a33.87 33.87 0 0 1-1.97 2.54l1.49 1.34c.34-.38 1.29-1.55 2.12-2.74.41-.6.82-1.22 1.1-1.77.15-.27.28-.56.37-.83.07-.23.17-.63.05-1.04l-1.92.56Zm-10.5 11.98c-.49-1.4-.33-2.22.07-2.73.44-.58 1.42-1.1 3.25-1.32l-.24-1.99c-2.01.25-3.66.87-4.6 2.08-.98 1.28-.97 2.9-.36 4.62l1.88-.66Zm3.32-4.05c.23-.03.45-.12.58-.18l.5-.24 1.2-.62a5.71 5.71 0 0 1 2.39-.73l.09-2a7.5 7.5 0 0 0-3.35.93c-.47.23-.92.48-1.24.64l-.39.19c-.12.05-.1.03-.02.02l.24 1.99Zm4.67-1.77c.24.01.38.07.46.15l1.32-1.5a2.7 2.7 0 0 0-1.7-.65l-.08 2Zm.46.15c.13.11.08.12.08.04 0-.07.03-.02-.13.17-.33.42-1.13 1.01-2.6 1.75l.9 1.78c1.5-.74 2.65-1.5 3.27-2.28.32-.41.58-.93.55-1.52a2.05 2.05 0 0 0-.75-1.45l-1.32 1.5Zm-8.08 73.29-.48.07.28 1.98.48-.07-.28-1.98Zm21.3 3.54a2.03 2.03 0 0 0-1.06-3.46l-.35 1.97h.02l.02.02v.01l-.01.02 1.38 1.44Zm-1.06-3.46-.08-.01-.28 1.98.36-1.97Zm.07-2.84-1.2 3.5 1.9.65 1.19-3.5-1.9-.65Zm-19.22 3.43-1.16-3.4-1.9.65 1.16 3.4 1.9-.65Zm23.32 27.1-.04-1h-.22l-.6.03a478.12 478.12 0 0 1-7.3.25l.04 2a240.5 240.5 0 0 0 7.35-.25l.6-.03h.23l-.05-1Zm-9.14.28v1.03h2v-1.03h-2Zm-9.48 1.03v-1.03h-2v1.03h2Zm-.98-2.03c-3.34-.06-6.2-.17-8.7-.32l-.12 2c2.52.15 5.41.26 8.79.32l.03-2Zm-8.7-.32a242.64 242.64 0 0 1-7.44-.56h-.04l-.1 1-.1.99h.05l.12.01a55.96 55.96 0 0 0 2.12.19c1.38.1 3.27.25 5.27.37l.11-2Zm-8.57 7.18c.7.06 3.59 1.1 4.77 5.24l1.93-.55c-1.42-4.94-5-6.54-6.5-6.68l-.2 1.99Zm39.32 5.08c.69-2.4 1.78-3.95 2.67-4.9a7.81 7.81 0 0 1 1.54-1.24l-.45-.9-.44-.89h-.01l-.02.01-.04.02a8.74 8.74 0 0 0-.6.38c-.37.27-.88.67-1.42 1.25a13.54 13.54 0 0 0-3.15 5.73l1.92.54Zm4.45-12.85-6.98.63.18 1.99 6.98-.63-.18-2Zm-6.4-51a10.46 10.46 0 0 0 1.56-5.27l-2-.04c-.03 1.55-.49 3-1.26 4.26l1.7 1.05Zm1.73-13.19c.04-1.79-.38-3.5-1.15-5l-1.78.91c.63 1.22.96 2.6.93 4.05l2 .04Zm-2.35-5.5a11.2 11.2 0 0 1-3.61.54v2c1.56 0 3-.22 4.24-.63l-.63-1.9Zm-30.1 17.2.35.7 1.81-.84-.38-.78-1.78.91Zm1.78-.92c-.3-.59-.63-1.17-.99-1.74l-1.7 1.07a20 20 0 0 1 .91 1.58l1.78-.91Zm.35.72a8.85 8.85 0 0 1-.32-.66l-1.83.8c.12.27.25.55.4.81l1.75-.95Zm30.25-18.27c-.52.5-1.3.95-2.28 1.28l.63 1.9a8 8 0 0 0 3.03-1.74l-1.38-1.44Zm-2.54 20.43c.4.02.78.07 1.08.13l.38-1.97a9.24 9.24 0 0 0-1.39-.16l-.08 2Zm-35.4 57.46.9-5.75-1.99-.3c-.3 2-.6 3.9-.9 5.74l1.99.3Zm1.59-45a64.39 64.39 0 0 0-1.69-2.32l-1.06-1.44-.35-.46-.1-.13-.02-.04h-.01v-.01l-.8.6-.8.6.03.04.1.13.34.47 1.06 1.42 1.08 1.46.36.5.1.15 1.76-.98Zm-2.29 25.31 2-.04-2 .05Zm0 0 .01.63 2-.05-.01-.62-2 .05Zm1.01 8.68 1 .02v-.23l.02-.6.01-2.06c.01-1.64.01-3.67-.03-5.23l-2 .05c.04 1.53.04 3.53.03 5.17l-.01 2.04-.01.6v.23l1 .02Zm33.7-47.15c-.33.42-.7.81-1.11 1.17l1.32 1.5c.5-.44.96-.92 1.37-1.44l-1.58-1.23Zm.57-.82c-.17.28-.36.56-.57.82l1.58 1.23c.25-.32.48-.65.7-1l-1.7-1.05Zm-.86 3.91c.17-.13.34-.27.5-.42l-1.32-1.5-.41.35 1.23 1.57Zm-6.97 2.77c.86.01 1.67-.2 2.37-.45.66-.24 1.41-.58 1.92-.78l-.74-1.86c-.69.28-1.2.53-1.85.76a4.7 4.7 0 0 1-1.66.32l-.04 2Zm5.74-4.34c-.66.51-1.4.93-2.19 1.25l.74 1.86c.97-.39 1.87-.9 2.68-1.54l-1.23-1.57Zm-2.75 2.53.16.43 1.87-.7-.16-.43-1.87.7Zm.16.43c.26.7.53 1.45.68 2.21l1.96-.4c-.18-.92-.5-1.8-.77-2.51l-1.87.7Zm2.77 2.66a8.32 8.32 0 0 0-.13-.84l-1.96.4c.05.21.08.43.1.64l2-.2Zm18.36-1.85c.3-.63.29-1.34 0-1.96l-1.81.83c.04.1.04.2 0 .28l1.81.85Zm-1.7-3.3a40.34 40.34 0 0 0-10.07-.67l.12 2a38.5 38.5 0 0 1 9.56.63l.38-1.96Zm-10.98.57c.05.22.08.45.09.7l2-.05a4.94 4.94 0 0 0-.15-1.13l-1.94.48Zm10.87 1.88-.01.03 1.71 1.02c.05-.06.08-.13.11-.2l-1.8-.85Zm-11.36-2.86c.25.3.4.63.5.98l1.93-.48a4.37 4.37 0 0 0-.9-1.78l-1.53 1.28Zm11.95 4.24c.96.32 1.83.69 2.47 1.06.32.2.55.36.7.51.16.16.18.23.17.22l1.95-.48a2.5 2.5 0 0 0-.72-1.16c-.3-.3-.68-.57-1.09-.81-.8-.47-1.81-.9-2.84-1.24l-.64 1.9Zm-11.37-2.56c0 .16 0 .33-.02.5l1.99.2c.02-.24.03-.5.03-.75l-2 .05Zm10.36 1.9c-.33.55-.65 1.08-.97 1.58l1.68 1.08c.34-.53.67-1.07 1-1.63l-1.71-1.03Zm.4-.68-.4.69 1.71 1.02.42-.7-1.73-1.01Zm2.44 5.18-.07.07 1.47 1.36.07-.07-1.47-1.36Zm-.07.08c-1.17 1.28-4.06 3.87-7.88 3.88v2c4.7-.02 8.08-3.15 9.35-4.53l-1.47-1.35Zm-7.88 3.88h-.02v2h.03v-2Zm3.65-6.14a21.1 21.1 0 0 1-3.83 4.36l1.3 1.52a23.06 23.06 0 0 0 4.18-4.76l-1.65-1.12Zm.49-.74-.5.74 1.66 1.12c.18-.25.35-.52.52-.78l-1.68-1.08Zm-5.36 8.02 2.2-1.3-1.02-1.72-2.2 1.3 1.02 1.72Zm-4.05-11c-.1.98-.48 1.93-.79 2.56l1.8.88c.35-.72.85-1.92.98-3.24l-2-.2Zm-.79 2.56a2.7 2.7 0 0 1-.43.6l-.06.07-.03.03-.07.1 1.7 1.07a.68.68 0 0 1-.05.06v.01c-.01 0 0 0 0 0l.05-.07.2-.24c.14-.18.34-.46.48-.75l-1.79-.88Zm-.48 1.13-5.42-.3-.1 2 5.41.3.12-2Zm-5.42-.3-3.68-.21-.12 2 3.7.2.1-2Zm-17.06-.22h-2.73v2h2.73v-2Zm-2.73 0h-3.1v2h3.1v-2Zm-3.98.5c-1.43 2.57-3.67 4.22-6.73 5.05l.53 1.93c3.5-.95 6.23-2.9 7.95-6l-1.75-.97Zm-6.94 5.1-.1.03.5 1.94.1-.02-.5-1.94Zm-.7 2.03 2.22.94.78-1.84-2.22-.94-.78 1.84Zm38 .72 3.74-.38-.2-2-3.73.39.2 1.98Zm.7-7.73-1.87-.1-.1 2 1.85.1.11-2Zm-38.1 7.07.5-.12-.49-1.94-.43.1.43 1.96Zm.6-.14.24-.07-.53-1.93-.2.06.49 1.94Zm36.47-5.58-.07.12a.95.95 0 0 1-.03.04l-.01.01.06-.06.24-.24.27-.25a4.3 4.3 0 0 0 .18-.2.6.6 0 0 0 .13-.17l-1.74-.99a.98.98 0 0 1 .07-.1l.02-.03c.01-.01.01-.01 0 0l-.06.06-.25.24-.27.26-.12.13-.07.07c-.01.02-.08.1-.13.2l1.78.9ZM539.18 167c-.03 1.33-.2 2.35-.21 2.44l1.97.34c.02-.15.2-1.28.24-2.74l-2-.04Zm1.53-1.54a1.26 1.26 0 0 0-.35.02l-.18.04-.07.02h.14l-.14 1.99a1.38 1.38 0 0 0 .35-.02l.18-.04.08-.02h-.15l.14-1.99Zm-1.53 1.08v.46l2 .04v-.51l-2 .01Zm4-.6c-.76-.01-1.4-.2-2.27-.44l-.54 1.92c.82.23 1.7.5 2.76.53l.04-2Zm-2.27-.44a8.9 8.9 0 0 1-2.46-1.35c-.88-.65-1.71-1.4-2.32-2.02l-1.43 1.4c.67.7 1.6 1.52 2.57 2.23.96.7 2.06 1.37 3.1 1.66l.54-1.92Zm-9.93-14.59a2.14 2.14 0 0 0-2.48-.8l.66 1.88c.07-.02.14.01.16.05l1.66-1.13Zm-2.48-.8a7.24 7.24 0 0 0-2.83 2.07 13.94 13.94 0 0 0-2.44 3.98c-1.33 3.24-1.84 7.58-.23 12.59l1.9-.62c-1.46-4.54-.98-8.4.18-11.21a11.95 11.95 0 0 1 2.08-3.41 5.31 5.31 0 0 1 2-1.52l-.66-1.89Zm-3.58 18.07c-.77-2.9.14-5.51 1.63-7.7a20.3 20.3 0 0 1 4.76-4.74l-1.17-1.62a22.3 22.3 0 0 0-5.24 5.24c-1.69 2.47-2.88 5.68-1.91 9.33l1.93-.5Zm-.08-.2a49.55 49.55 0 0 1-3.94-10.18l-1.95.45c.85 3.7 2.77 8 4.11 10.64l1.78-.9Zm5.44-13.96-.14.1 1.17 1.62.13-.09-1.16-1.63Zm1.02-2.34a2.08 2.08 0 0 0-.32-.77l-1.66 1.13.02.03 1.96-.39Zm-2.97 17.5c0-3.53 1.15-6.19 2.33-7.97l-1.67-1.1a16.28 16.28 0 0 0-2.66 9.07h2Zm2.1-11.06c-.49.53-.92 1.19-1.4 1.91l1.68 1.1c.5-.77.83-1.27 1.2-1.65l-1.47-1.36Zm-1.4 1.91-.04.08 1.67 1.1.05-.08-1.67-1.1Zm-.64 10.52a17.2 17.2 0 0 1-.06-1.37h-2c0 .5.02 1.01.07 1.54l2-.17Zm.85 4.74v-.01l-1.95-.46 1.95.47Zm-.02-.54a19.94 19.94 0 0 1-.83-4.2l-2 .17c.13 1.44.42 2.98.92 4.62l1.91-.59Zm2.82-15.47c.03-.05.04-.03 0-.02l-.03.02a2.26 2.26 0 0 1 .36.09l.64-1.9c-.15-.05-.6-.21-1.1-.19a1.9 1.9 0 0 0-1.61 1.03l1.75.97Zm.33.09.65-1.9-.65 1.9Zm1.3-1.14-.63-3.2-1.96.39.64 3.2 1.96-.4Zm-.63-3.2a1.66 1.66 0 0 0-1.09-1.23 1.83 1.83 0 0 0-1.56.14l1.03 1.72a.17.17 0 0 1-.14.02.35.35 0 0 1-.2-.27l1.96-.38Zm-2.64-1.09-.13.08 1.17 1.63h-.02l-1.02-1.7Zm1.49.66-.6-2.92-1.95.4.59 2.92 1.96-.4Zm2.13 3.55a2.27 2.27 0 0 0-1-.68l-.64 1.9a.2.2 0 0 1 .12.08l1.51-1.3Zm.19.26a2.2 2.2 0 0 0-.2-.26l-1.51 1.3.02.03 1.69-1.07Zm.03.19a8.96 8.96 0 0 1-.18-1.97l-2-.05c-.01.82.06 1.63.22 2.41l1.96-.4Zm2.96 6.99c-.19-.8-.52-2.19-.84-3.1l-1.89.68c.28.78.58 2.05.79 2.89l1.94-.47Zm-.84-3.1c-.15-.4-.28-.65-.42-.9-.13-.22-.23-.38-.36-.66l-1.81.84c.17.38.33.63.43.81.1.18.18.33.27.59l1.89-.67Zm-.88 4.59c.2 1.01.31 1.97.22 3.08l1.99.18c.12-1.37-.03-2.53-.25-3.65l-1.96.39Zm1.96-.4a27.4 27.4 0 0 0-.24-1.1l-1.94.48.22 1.02 1.96-.4ZM523 168.7c.3 1.16.82 2.34 1.58 3.54l1.69-1.08a10.46 10.46 0 0 1-1.34-2.97l-1.93.51Zm13.91 33.4 1.35 8.81 1.98-.3-1.35-8.82-1.98.3Zm23.62 8.79 2.04-8.72-1.94-.45-2.05 8.71 1.95.46Zm4.46-12 5.68-4.6-1.25-1.56-5.69 4.6 1.26 1.55Zm-37.67-23.54v.02l1.92-.59v-.02l-1.92.59Zm.27.44v.01l1.38-1.45v-.01l-1.38 1.45Zm-.26-.42.3.94 1.9-.66-.29-.87-1.91.59Zm11.95 34.4c-.67-.03-3.37-.34-5.99-.66a777.13 777.13 0 0 1-4.56-.56l-.31-.04h-.08l-.02-.01-.13 1-.13.98h.03l.08.02.3.03a573.27 573.27 0 0 0 4.58.57c2.56.3 5.39.63 6.17.66l.06-2Zm5.75 5.71v-4.72h-2v4.72h2Zm9.48-4.72v4.72h2v-4.72h-2Zm15.79-1.17-.15-.99h-.02l-.04.01-.19.03-.64.1a594.54 594.54 0 0 1-5.15.73l.11 2c.17 0 .67-.08 1.23-.16a323.07 323.07 0 0 0 4.1-.6 16.92 16.92 0 0 1 .83-.12h.05l-.14-1Zm-6.19-.12c-.95.06-2.09.1-3.32.15l.08 2 3.35-.15-.1-2Zm-3.32.15c-1.69.06-3.54.11-5.3.14l.04 2c1.77-.03 3.63-.08 5.34-.14l-.08-2Zm-6.28.2v.94h2v-.94h-2Zm-27.32-.41-.41 5.1 1.99.16.41-5.1-2-.16Zm17.85 1.35v-.94h-2v.94h2Zm26.26-1.18-.11-12.25-2 .02.1 12.25 2-.02Zm-.12-12.27-.14-3.84-2 .08.15 3.83 2-.07Zm-.14-3.81-.2-16.7-2 .02.2 16.7 2-.02Zm-.2-16.7-.01-.57-2 .02v.57l2-.03Zm21.62 14.76a27.62 27.62 0 0 0-7.16-1.17l-.07 2c1.8.06 4.2.32 6.63 1.08l.6-1.9Zm-7.16-1.17a29.38 29.38 0 0 0-3.15.01l.14 2c.9-.07 1.88-.05 2.94-.01l.07-2Zm-6.51 3a7.6 7.6 0 0 1 3.5-1l-.14-1.99a9.58 9.58 0 0 0-4.4 1.28l1.04 1.71Zm-14.68 16.08c-1.01.06-2.13.1-3.32.15l.08 2c1.2-.04 2.32-.1 3.35-.15l-.1-2Zm-3.32.15-1.26.04.05 2 1.28-.04-.07-2Zm-1.26.04-4.03.1.03 2 4.05-.1-.06-2Zm13.35-30.13c3.37 2.08 6.54 4.29 9.05 6.86l1.43-1.4c-2.68-2.75-6.02-5.06-9.43-7.16l-1.05 1.7Zm11.14-4.8c-3.44 2.46-6.3 3.09-8.34 3.09v2c2.49 0 5.75-.78 9.5-3.46l-1.16-1.63Zm.26-.19-.26.2 1.16 1.62.28-.2-1.18-1.62Zm-10.69 3.16c-2.1-.39-3.03-1.59-2.97-1.52l-1.56 1.25a7.12 7.12 0 0 0 4.17 2.24l.36-1.97Zm19.78 14.17-.9-.3-.6 1.9.82.28.68-1.88Zm-.68 1.88c.65.23 1.3.5 1.92.82l.9-1.79a20.8 20.8 0 0 0-2.14-.91l-.68 1.88Zm.04-4.96a12.63 12.63 0 0 1-.65 3.69l1.9.65c.45-1.32.7-2.74.75-4.27l-2-.07Zm-19.61 14.54c.05.1.12.36.15.83.03.44.01.95-.03 1.45a20.75 20.75 0 0 1-.2 1.69l-.02.1v.03l.98.19.98.18v-.02l.01-.03.02-.13a23.13 23.13 0 0 0 .23-1.86 14 14 0 0 0 .03-1.72 4.12 4.12 0 0 0-.4-1.66l-1.75.95Zm17.44-25.12a40.25 40.25 0 0 0-5.27-4.53l-1.17 1.62a38.29 38.29 0 0 1 5.01 4.3l1.43-1.39Zm-6.49-2.95.19.15 1.26-1.54-.18-.16-1.27 1.55Zm-2.16-3.04c.28-.38.57-.8.77-1.22.1-.2.2-.43.26-.67.06-.22.1-.53.03-.86l-1.95.48c-.03-.12 0-.18-.01-.11-.02.05-.05.14-.12.27-.13.27-.34.59-.58.92l1.6 1.2Zm-1.6-1.19c-.28.37-.57.72-.8.97l1.47 1.35c.28-.3.62-.7.93-1.13l-1.6-1.19Zm.2 1.4c1.29.98 2.96 2.34 3.56 2.83l1.27-1.55c-.6-.49-2.3-1.86-3.62-2.88l-1.22 1.6Zm-8.97 3.53c-.25 0-1.22-.1-1.6-.15l-.2 2c.28.02 1.4.15 1.8.15v-2Zm-27.5 41.55h11.47v-2h-11.48v2Zm-23.49-87.01a48.14 48.14 0 0 0-1.59 27.76l1.95-.45a46.12 46.12 0 0 1 1.52-26.62l-1.88-.7Zm10.6 20.86c-.8-6.56.41-14.63 5.08-22.59l-1.73-1c-4.89 8.33-6.18 16.84-5.33 23.84l1.98-.25Zm3.74-23.97c-2 1.06-4.92 1.63-7.64 1.96-1.35.16-2.6.25-3.63.32-1 .07-1.85.12-2.28.18l.3 1.98c.32-.05 1.04-.09 2.11-.16 1.04-.07 2.34-.17 3.73-.34 2.75-.32 6-.92 8.36-2.18l-.95-1.76Zm-13.28 4.44h-.02.05l-.3-1.98-.33.07.6 1.91Zm14.53-2.93c3.7-4.6 6.92-8.32 9.67-11.18l-1.44-1.39c-2.8 2.92-6.06 6.7-9.78 11.31l1.55 1.26Zm9.7-11.2.02-.04-1.48-1.34-.03.04 1.48 1.33Zm2.3-13.28c-4.53-.51-9.32 1.62-14.33 6l1.32 1.5c4.82-4.22 9.06-5.93 12.78-5.52l.22-1.98Zm-14.29 5.96c-7.82 6.07-12.4 12.85-13.53 20.35l1.98.3c1.02-6.84 5.22-13.2 12.78-19.07l-1.23-1.58Zm.02 2.68c.42-.4.84-.77 1.25-1.14l-1.31-1.5c-.44.38-.87.78-1.31 1.19l1.37 1.45Zm.8-3.3-.82.62 1.23 1.58.79-.6-1.2-1.6Zm9.68 6.6-4.52 5.01 1.49 1.34 4.51-5.02-1.48-1.33Zm1.46 1.36.03-.04-1.44-1.38-.03.03 1.44 1.39Zm25.63 101.25a32.65 32.65 0 0 1 .18-4.2v-.04h.01v-.01l-.99-.16-.99-.15v.09l-.04.24-.09.92c-.06.78-.1 1.92-.08 3.36l2-.05Zm-1.02 1.25.58-.4-1.12-1.65-.58.38 1.12 1.67Zm-1.12-10.63c0 .31.02.75.04 1.23l2-.12c-.03-.47-.04-.85-.04-1.1l-2-.01Zm.04 1.23a103.4 103.4 0 0 0 .27 3.46l.03.28v.08l1-.09 1-.09v-.02l-.01-.08-.02-.27a188.6 188.6 0 0 1-.27-3.4l-2 .12Zm1.48-1.06h-.48v2h.48v-2ZM559.4 187.5l-5.83-.84-.29 1.98 5.84.84.28-1.98Zm-14.8-.84-5.36.77.28 1.98 5.36-.77-.28-1.98Zm-15.43 14.15.1-5.62-2-.03-.1 5.61 2 .04Zm25.75 29.99c3.38-.27 6.7-.78 9.92-1.53l-.45-1.94a65.73 65.73 0 0 1-9.63 1.47l.16 2Zm10.68-2.3c.15-.75.32-1.44.5-2.08l-1.92-.54c-.2.68-.37 1.43-.54 2.21l1.96.42Zm-34.05-1.92c.14.47.25.97.34 1.51l1.97-.33c-.1-.6-.23-1.18-.38-1.73l-1.93.55Zm1.08 2.32c3.7.95 7.54 1.59 11.47 1.9l.15-2c-3.8-.3-7.53-.92-11.13-1.84l-.5 1.94Zm12.51 1.15c.16-.6.7-1.06 1.4-1.4a5.58 5.58 0 0 1 1.2-.39l.07-.01h.01l-.16-.99-.15-.99h-.02l-.04.01-.12.02a7.37 7.37 0 0 0-1.63.54 4.34 4.34 0 0 0-2.5 2.71l1.94.5Zm6.22-1.79c-.1 0-.1-.02.01.03.1.04.22.1.38.2.32.21.69.5 1.05.8a23.08 23.08 0 0 1 1.23 1.12l.08.08.02.02.7-.7.71-.72-.03-.03-.09-.09a26.05 26.05 0 0 0-1.33-1.2 13 13 0 0 0-1.26-.95 5 5 0 0 0-.66-.37c-.2-.09-.5-.19-.81-.19v2Zm-1.85.75c-1.77 0-3.52-.07-5.25-.2l-.16 1.99c1.78.14 3.59.21 5.41.21v-2Zm5.25-.2c-1.73.13-3.48.2-5.25.2v2c1.82 0 3.62-.07 5.4-.21l-.15-2Zm10.08.46a67.67 67.67 0 0 0 6.06-1.7l-.63-1.9a65.7 65.7 0 0 1-5.88 1.66l.45 1.94ZM615 164c0 28.7-18.73 53.05-44.74 61.67l.63 1.9C597.7 218.69 617 193.59 617 164h-2Zm-81.89 62.95c-2.3-.59-4.54-1.3-6.73-2.11l-.7 1.87c2.26.84 4.57 1.57 6.94 2.18l.5-1.94Zm-35.53-6.99c.07.07.09.16.07.25l1.94.47a2.26 2.26 0 0 0-.57-2.1l-1.44 1.38Zm.07.25a.3.3 0 0 1-.2.2l.67 1.89c.73-.26 1.3-.87 1.47-1.63l-1.94-.46Zm-6.38 7.57c.4-1.11 1.51-2.28 2.92-3.32a16.65 16.65 0 0 1 3.94-2.16l-.68-1.88c-1.22.44-2.91 1.3-4.44 2.43-1.5 1.1-3 2.57-3.62 4.25l1.88.68Zm-1.89-.03.03.09 1.9-.63-.03-.08-1.9.62Zm.03.09c.16.49.5.87 1.01 1.06.43.15.9.14 1.32.1.83-.1 2-.42 3.5-.82l-.52-1.93c-1.58.42-2.57.69-3.2.76-.33.04-.42 0-.4 0a.4.4 0 0 1 .19.2l-1.9.63Zm5.83.34.03-.01-.53-1.93h-.02l.52 1.94Zm-4.16-1.4.07.11-1.8.86c.06.13.14.25.23.36l1.5-1.33Zm7.5-29.84a48.38 48.38 0 0 0-3.43 3.66l1.53 1.28a46.5 46.5 0 0 1 3.28-3.5l-1.39-1.44Zm-1.89 4.93c3.55-4.38 8.16-8.54 13.1-13l-1.35-1.49c-4.9 4.44-9.63 8.7-13.3 13.23l1.55 1.26Zm27.94-30.8c-4.86 6.07-10.56 11.23-16.19 16.31l1.34 1.49c5.61-5.07 11.44-10.33 16.42-16.56l-1.57-1.25Zm-26.26 26.15c-.1.2-1.38 3.21-2.34 7.05l1.94.49a49.89 49.89 0 0 1 1.98-6.13l.22-.53-1.8-.88Zm15.22 23.52a67.4 67.4 0 0 0 12.1 5.97l.7-1.87a65.39 65.39 0 0 1-11.74-5.8l-1.06 1.7Zm13.42 2.08c-4.25-3.64-9.32-3.92-12.9-3.93v2c3.51 0 7.93.31 11.6 3.45l1.3-1.52Zm-30.98-18.55a31.42 31.42 0 0 0-1.06 8.24c.07 2.76.74 5.5 2.61 7.45l1.44-1.38c-1.38-1.44-1.98-3.59-2.06-6.12-.07-2.52.4-5.26 1-7.7l-1.93-.49Zm-.88-3.68c-.25.3-.5.6-.73.9l1.56 1.24.7-.85-1.53-1.28ZM482 164a66.36 66.36 0 0 0 12.39 38.7l1.62-1.17A64.36 64.36 0 0 1 484 164h-2Zm9.15 62.88c-.93-1.92-4.95-11.87 4.83-24.15l-1.56-1.24c-10.43 13.07-6.21 23.92-5.07 26.27l1.8-.88Zm35.87-.96.31-2.04-1.98-.3-.3 2.05 1.97.3Zm.33-2.19.5-3.24-1.97-.31-.5 3.25 1.97.3Zm-.02.15.02-.14-1.98-.3-.01.13 1.97.3Zm.02-.14-1.97-.3 1.97.3Zm-.02.14.02-.14-1.98-.3-.01.13 1.97.3Zm.02-.14.5-3.25-1.97-.31-.5 3.26 1.97.3Zm1.9-30.53c0-6.02 0-10.69.32-17.2l-2-.09c-.32 6.56-.32 11.27-.31 17.3l2-.01Zm-2 0v.01h2v-.01h-2Zm0 .01v1.95h2v-1.95h-2Zm14.52 16.54h-.16l.02 2h.16l-.02-2Zm-.16 0c-.8 0-1.56.02-2.34 0l-.06 1.99c.83.03 1.62.02 2.42 0l-.02-2Zm.02 2h.16l-.02-2h-.16l.02 2Zm.16 0h.27l-.02-2h-.27l.02 2Zm2.25-2.01h-2l.02 2h1.95l.03-2Zm27.54 16.86a317.4 317.4 0 0 0-.1-5.63l-2 .05c.04 1.87.09 3.85.1 5.6l2-.02Zm-.1-5.63-.05-2.02-2 .05.05 2.02 2-.04Zm-76.21 7.19c1.72-.47 3.68-1.57 5.7-2.7l-.97-1.74c-2.1 1.17-3.82 2.12-5.26 2.5l.53 1.94Zm5.7-2.7c3.89-2.16 8.29-4.58 13.15-4.58v-2c-5.46 0-10.31 2.72-14.12 4.84l.98 1.74Z"/></g></g><g fill="#00FFF0" filter="url(#ac)"><path d="M53.8 61.98a2.82 2.82 0 0 1-2.91-2.72l-.26-7.52a2.82 2.82 0 0 1 2.72-2.92l7.5-.26a2.82 2.82 0 0 1 2.9 2.72l.26 7.52a2.82 2.82 0 0 1-2.71 2.92l-7.5.26Zm39.81 27.67a.94.94 0 0 0 0-1.32L72.97 67.62a.93.93 0 0 0-1.32 0 .94.94 0 0 0 0 1.32l20.64 20.7c.37.37.96.37 1.32 0Zm7.03 5.73c.36.36.36.95 0 1.32a.93.93 0 0 1-1.32 0 .94.94 0 0 1 0-1.32.93.93 0 0 1 1.32 0Zm4.83 4.84c.37.37.37.96 0 1.32a.93.93 0 0 1-1.31 0 .94.94 0 0 1 0-1.32.93.93 0 0 1 1.31 0ZM67.3 73.44a.94.94 0 0 0 0-1.32l-3.52-3.52a.93.93 0 0 0-1.32 0 .94.94 0 0 0 0 1.32l3.51 3.52c.37.37.96.37 1.32 0Zm3.07 1.76c.36.37.36.96 0 1.33a.93.93 0 0 1-1.32 0 .94.94 0 0 1 0-1.32.93.93 0 0 1 1.32 0Zm12.91-9.08a.94.94 0 0 0 0-1.32l-7.46-7.5a.93.93 0 0 0-1.32 0 .94.94 0 0 0 0 1.33l7.47 7.49c.36.36.95.36 1.31 0Zm4.83 3.52c.37.37.37.96 0 1.32a.93.93 0 0 1-1.31 0 .94.94 0 0 1 0-1.32.93.93 0 0 1 1.31 0Zm5.93 5.95c.37.37.37.96 0 1.32a.93.93 0 0 1-1.31 0 .94.94 0 0 1 0-1.32.93.93 0 0 1 1.31 0Z"/></g><path fill="url(#ad)" fill-opacity=".88" d="M53.91 62.02a2.8 2.8 0 0 1-2.9-2.7l-.26-7.48a2.8 2.8 0 0 1 2.71-2.9l7.47-.26a2.8 2.8 0 0 1 2.9 2.7l.26 7.48a2.8 2.8 0 0 1-2.7 2.9l-7.48.26Z"/><path fill="url(#ae)" fill-opacity=".88" d="M93.6 89.52a.93.93 0 0 0 0-1.31L73.02 67.63a.93.93 0 1 0-1.31 1.31l20.58 20.58c.36.37.95.37 1.31 0Z"/><path fill="url(#af)" fill-opacity=".88" d="M100.6 95.22a.93.93 0 1 1-1.3 1.3.93.93 0 0 1 1.3-1.3Z"/><path fill="url(#ag)" fill-opacity=".88" d="M105.42 100.03a.93.93 0 1 1-1.3 1.32.93.93 0 0 1 1.3-1.32Z"/><path fill="url(#ah)" fill-opacity=".88" d="M67.36 73.42a.93.93 0 0 0 0-1.32l-3.5-3.5a.93.93 0 1 0-1.31 1.31l3.5 3.5c.36.37.95.37 1.31 0Z"/><path fill="url(#ai)" fill-opacity=".88" d="M70.43 75.17a.93.93 0 1 1-1.31 1.31.93.93 0 0 1 1.3-1.31Z"/><path fill="url(#aj)" fill-opacity=".88" d="M83.3 66.13a.93.93 0 0 0 0-1.3l-7.44-7.45a.93.93 0 1 0-1.31 1.31l7.44 7.44c.36.37.95.37 1.31 0Z"/><path fill="url(#ak)" fill-opacity=".88" d="M88.12 69.64a.93.93 0 1 1-1.31 1.31.93.93 0 0 1 1.31-1.31Z"/><path fill="url(#al)" fill-opacity=".88" d="M94.03 75.55a.93.93 0 1 1-1.31 1.31.93.93 0 0 1 1.31-1.31Z"/></g><defs><linearGradient id="f" x1="981.01" x2="1046.21" y1="249.84" y2="308.86" gradientUnits="userSpaceOnUse"><stop stop-color="#fff"/><stop offset="1" stop-color="#fff" stop-opacity="0"/></linearGradient><linearGradient id="g" x1="981.01" x2="1046.21" y1="249.84" y2="308.86" gradientUnits="userSpaceOnUse"><stop stop-color="#fff"/><stop offset="1" stop-color="#fff" stop-opacity="0"/></linearGradient><linearGradient id="h" x1="981.01" x2="1046.21" y1="249.84" y2="308.86" gradientUnits="userSpaceOnUse"><stop stop-color="#fff"/><stop offset="1" stop-color="#fff" stop-opacity="0"/></linearGradient><linearGradient id="i" x1="981.01" x2="1046.21" y1="249.84" y2="308.86" gradientUnits="userSpaceOnUse"><stop stop-color="#fff"/><stop offset="1" stop-color="#fff" stop-opacity="0"/></linearGradient><linearGradient id="j" x1="981.01" x2="1046.21" y1="249.84" y2="308.86" gradientUnits="userSpaceOnUse"><stop stop-color="#fff"/><stop offset="1" stop-color="#fff" stop-opacity="0"/></linearGradient><linearGradient id="k" x1="981.01" x2="1046.21" y1="249.84" y2="308.86" gradientUnits="userSpaceOnUse"><stop stop-color="#fff"/><stop offset="1" stop-color="#fff" stop-opacity="0"/></linearGradient><linearGradient id="l" x1="981.01" x2="1046.21" y1="249.84" y2="308.86" gradientUnits="userSpaceOnUse"><stop stop-color="#fff"/><stop offset="1" stop-color="#fff" stop-opacity="0"/></linearGradient><linearGradient id="m" x1="981.01" x2="1046.21" y1="249.84" y2="308.86" gradientUnits="userSpaceOnUse"><stop stop-color="#fff"/><stop offset="1" stop-color="#fff" stop-opacity="0"/></linearGradient><linearGradient id="n" x1="981.01" x2="1046.21" y1="249.84" y2="308.86" gradientUnits="userSpaceOnUse"><stop stop-color="#fff"/><stop offset="1" stop-color="#fff" stop-opacity="0"/></linearGradient><linearGradient id="o" x1="981.01" x2="1046.21" y1="249.84" y2="308.86" gradientUnits="userSpaceOnUse"><stop stop-color="#fff"/><stop offset="1" stop-color="#fff" stop-opacity="0"/></linearGradient><linearGradient id="p" x1="981.01" x2="1046.21" y1="249.84" y2="308.86" gradientUnits="userSpaceOnUse"><stop stop-color="#fff"/><stop offset="1" stop-color="#fff" stop-opacity="0"/></linearGradient><linearGradient id="q" x1="981.01" x2="1046.21" y1="249.84" y2="308.86" gradientUnits="userSpaceOnUse"><stop stop-color="#fff"/><stop offset="1" stop-color="#fff" stop-opacity="0"/></linearGradient><linearGradient id="r" x1="981.01" x2="1046.21" y1="249.84" y2="308.86" gradientUnits="userSpaceOnUse"><stop stop-color="#fff"/><stop offset="1" stop-color="#fff" stop-opacity="0"/></linearGradient><linearGradient id="s" x1="981.01" x2="1046.21" y1="249.84" y2="308.86" gradientUnits="userSpaceOnUse"><stop stop-color="#fff"/><stop offset="1" stop-color="#fff" stop-opacity="0"/></linearGradient><linearGradient id="t" x1="981.01" x2="1046.21" y1="249.84" y2="308.86" gradientUnits="userSpaceOnUse"><stop stop-color="#fff"/><stop offset="1" stop-color="#fff" stop-opacity="0"/></linearGradient><linearGradient id="u" x1="981.01" x2="1046.21" y1="249.84" y2="308.86" gradientUnits="userSpaceOnUse"><stop stop-color="#fff"/><stop offset="1" stop-color="#fff" stop-opacity="0"/></linearGradient><linearGradient id="v" x1="981.01" x2="1046.21" y1="249.84" y2="308.86" gradientUnits="userSpaceOnUse"><stop stop-color="#fff"/><stop offset="1" stop-color="#fff" stop-opacity="0"/></linearGradient><linearGradient id="w" x1="981.01" x2="1046.21" y1="249.84" y2="308.86" gradientUnits="userSpaceOnUse"><stop stop-color="#fff"/><stop offset="1" stop-color="#fff" stop-opacity="0"/></linearGradient><linearGradient id="y" x1="17.74" x2="-.03" y1="-.8" y2="26" gradientUnits="userSpaceOnUse"><stop stop-color="#fff" stop-opacity=".67"/><stop offset=".46" stop-color="#00D1FF" stop-opacity=".59"/><stop offset="1" stop-color="#00A0C4" stop-opacity="0"/></linearGradient><linearGradient id="A" x1="5.71" x2="-.01" y1="-.26" y2="8.37" gradientUnits="userSpaceOnUse"><stop stop-color="#fff" stop-opacity=".67"/><stop offset=".46" stop-color="#00D1FF" stop-opacity=".59"/><stop offset="1" stop-color="#00A0C4" stop-opacity="0"/></linearGradient><linearGradient id="F" x1="512.97" x2="620.53" y1="272.78" y2="382.76" gradientUnits="userSpaceOnUse"><stop stop-color="#fff"/><stop offset=".39" stop-color="#fff" stop-opacity=".52"/><stop offset="1" stop-color="#fff" stop-opacity="0"/></linearGradient><linearGradient id="G" x1="512.97" x2="620.53" y1="272.78" y2="382.76" gradientUnits="userSpaceOnUse"><stop stop-color="#fff"/><stop offset=".39" stop-color="#fff" stop-opacity=".52"/><stop offset="1" stop-color="#fff" stop-opacity="0"/></linearGradient><linearGradient id="H" x1="512.97" x2="620.53" y1="272.78" y2="382.76" gradientUnits="userSpaceOnUse"><stop stop-color="#fff"/><stop offset=".39" stop-color="#fff" stop-opacity=".52"/><stop offset="1" stop-color="#fff" stop-opacity="0"/></linearGradient><linearGradient id="I" x1="512.97" x2="620.53" y1="272.78" y2="382.76" gradientUnits="userSpaceOnUse"><stop stop-color="#fff"/><stop offset=".39" stop-color="#fff" stop-opacity=".52"/><stop offset="1" stop-color="#fff" stop-opacity="0"/></linearGradient><linearGradient id="J" x1="512.97" x2="620.53" y1="272.78" y2="382.76" gradientUnits="userSpaceOnUse"><stop stop-color="#fff"/><stop offset=".39" stop-color="#fff" stop-opacity=".52"/><stop offset="1" stop-color="#fff" stop-opacity="0"/></linearGradient><linearGradient id="K" x1="512.97" x2="620.53" y1="272.78" y2="382.76" gradientUnits="userSpaceOnUse"><stop stop-color="#fff"/><stop offset=".39" stop-color="#fff" stop-opacity=".52"/><stop offset="1" stop-color="#fff" stop-opacity="0"/></linearGradient><linearGradient id="L" x1="512.97" x2="620.53" y1="272.78" y2="382.76" gradientUnits="userSpaceOnUse"><stop stop-color="#fff"/><stop offset=".39" stop-color="#fff" stop-opacity=".52"/><stop offset="1" stop-color="#fff" stop-opacity="0"/></linearGradient><linearGradient id="M" x1="512.97" x2="620.53" y1="272.78" y2="382.76" gradientUnits="userSpaceOnUse"><stop stop-color="#fff"/><stop offset=".39" stop-color="#fff" stop-opacity=".52"/><stop offset="1" stop-color="#fff" stop-opacity="0"/></linearGradient><linearGradient id="N" x1="512.97" x2="620.53" y1="272.78" y2="382.76" gradientUnits="userSpaceOnUse"><stop stop-color="#fff"/><stop offset=".39" stop-color="#fff" stop-opacity=".52"/><stop offset="1" stop-color="#fff" stop-opacity="0"/></linearGradient><linearGradient id="V" x1="648" x2="445.37" y1="-13" y2="369.46" gradientUnits="userSpaceOnUse"><stop stop-color="#fff" stop-opacity="0"/><stop offset=".3" stop-color="#fff" stop-opacity=".55"/><stop offset="1" stop-color="#fff" stop-opacity="0"/></linearGradient><linearGradient id="ad" x1="50.63" x2="105.75" y1="48.56" y2="104.91" gradientUnits="userSpaceOnUse"><stop stop-color="#fff"/><stop offset=".39" stop-color="#fff" stop-opacity=".52"/><stop offset="1" stop-color="#fff" stop-opacity="0"/></linearGradient><linearGradient id="ae" x1="50.63" x2="105.75" y1="48.56" y2="104.91" gradientUnits="userSpaceOnUse"><stop stop-color="#fff"/><stop offset=".39" stop-color="#fff" stop-opacity=".52"/><stop offset="1" stop-color="#fff" stop-opacity="0"/></linearGradient><linearGradient id="af" x1="50.63" x2="105.75" y1="48.56" y2="104.91" gradientUnits="userSpaceOnUse"><stop stop-color="#fff"/><stop offset=".39" stop-color="#fff" stop-opacity=".52"/><stop offset="1" stop-color="#fff" stop-opacity="0"/></linearGradient><linearGradient id="ag" x1="50.63" x2="105.75" y1="48.56" y2="104.91" gradientUnits="userSpaceOnUse"><stop stop-color="#fff"/><stop offset=".39" stop-color="#fff" stop-opacity=".52"/><stop offset="1" stop-color="#fff" stop-opacity="0"/></linearGradient><linearGradient id="ah" x1="50.63" x2="105.75" y1="48.56" y2="104.91" gradientUnits="userSpaceOnUse"><stop stop-color="#fff"/><stop offset=".39" stop-color="#fff" stop-opacity=".52"/><stop offset="1" stop-color="#fff" stop-opacity="0"/></linearGradient><linearGradient id="ai" x1="50.63" x2="105.75" y1="48.56" y2="104.91" gradientUnits="userSpaceOnUse"><stop stop-color="#fff"/><stop offset=".39" stop-color="#fff" stop-opacity=".52"/><stop offset="1" stop-color="#fff" stop-opacity="0"/></linearGradient><linearGradient id="aj" x1="50.63" x2="105.75" y1="48.56" y2="104.91" gradientUnits="userSpaceOnUse"><stop stop-color="#fff"/><stop offset=".39" stop-color="#fff" stop-opacity=".52"/><stop offset="1" stop-color="#fff" stop-opacity="0"/></linearGradient><linearGradient id="ak" x1="50.63" x2="105.75" y1="48.56" y2="104.91" gradientUnits="userSpaceOnUse"><stop stop-color="#fff"/><stop offset=".39" stop-color="#fff" stop-opacity=".52"/><stop offset="1" stop-color="#fff" stop-opacity="0"/></linearGradient><linearGradient id="al" x1="50.63" x2="105.75" y1="48.56" y2="104.91" gradientUnits="userSpaceOnUse"><stop stop-color="#fff"/><stop offset=".39" stop-color="#fff" stop-opacity=".52"/><stop offset="1" stop-color="#fff" stop-opacity="0"/></linearGradient><filter id="b" width="531.15" height="528.15" x="-71.29" y="-77.57" color-interpolation-filters="sRGB" filterUnits="userSpaceOnUse"><feFlood flood-opacity="0" result="BackgroundImageFix"/><feBlend in="SourceGraphic" in2="BackgroundImageFix" result="shape"/><feColorMatrix in="SourceAlpha" result="hardAlpha" values="0 0 0 0 0 0 0 0 0 0 0 0 0 0 0 0 0 0 127 0"/><feOffset dx="-9" dy="-5"/><feGaussianBlur stdDeviation="4"/><feComposite in2="hardAlpha" k2="-1" k3="1" operator="arithmetic"/><feColorMatrix values="0 0 0 0 0 0 0 0 0 0 0 0 0 0 0 0 0 0 0.1 0"/><feBlend in2="shape" result="effect1_innerShadow_2_2520"/></filter><filter id="c" width="1060.31" height="1060.31" x="360.84" y="-331.16" color-interpolation-filters="sRGB" filterUnits="userSpaceOnUse"><feFlood flood-opacity="0" result="BackgroundImageFix"/><feGaussianBlur in="BackgroundImage" stdDeviation="4"/><feComposite in2="SourceAlpha" operator="in" result="effect1_backgroundBlur_2_2520"/><feColorMatrix in="SourceAlpha" result="hardAlpha" values="0 0 0 0 0 0 0 0 0 0 0 0 0 0 0 0 0 0 127 0"/><feOffset dx="-1" dy="1"/><feGaussianBlur stdDeviation="6"/><feComposite in2="hardAlpha" operator="out"/><feColorMatrix values="0 0 0 0 0 0 0 0 0 0 0 0 0 0 0 0 0 0 0.12 0"/><feBlend in2="effect1_backgroundBlur_2_2520" result="effect2_dropShadow_2_2520"/><feBlend in="SourceGraphic" in2="effect2_dropShadow_2_2520" result="shape"/></filter><filter id="d" width="1041" height="1041" x="790" y="-335" color-interpolation-filters="sRGB" filterUnits="userSpaceOnUse"><feFlood flood-opacity="0" result="BackgroundImageFix"/><feColorMatrix in="SourceAlpha" result="hardAlpha" values="0 0 0 0 0 0 0 0 0 0 0 0 0 0 0 0 0 0 127 0"/><feOffset dy="16"/><feGaussianBlur stdDeviation="8"/><feComposite in2="hardAlpha" operator="out"/><feColorMatrix values="0 0 0 0 0 0 0 0 0 0 0 0 0 0 0 0 0 0 0.44 0"/><feBlend in2="BackgroundImageFix" result="effect1_dropShadow_2_2520"/><feBlend in="SourceGraphic" in2="effect1_dropShadow_2_2520" result="shape"/><feColorMatrix in="SourceAlpha" result="hardAlpha" values="0 0 0 0 0 0 0 0 0 0 0 0 0 0 0 0 0 0 127 0"/><feOffset dx="2"/><feComposite in2="hardAlpha" k2="-1" k3="1" operator="arithmetic"/><feColorMatrix values="0 0 0 0 1 0 0 0 0 1 0 0 0 0 1 0 0 0 0.6 0"/><feBlend in2="shape" result="effect2_innerShadow_2_2520"/></filter><filter id="e" width="89.08" height="97.55" x="961.88" y="221.52" color-interpolation-filters="sRGB" filterUnits="userSpaceOnUse"><feFlood flood-opacity="0" result="BackgroundImageFix"/><feBlend in="SourceGraphic" in2="BackgroundImageFix" result="shape"/><feGaussianBlur result="effect1_foregroundBlur_2_2520" stdDeviation="8"/></filter><filter id="x" width="63.44" height="63.44" x="937" y="197.38" color-interpolation-filters="sRGB" filterUnits="userSpaceOnUse"><feFlood flood-opacity="0" result="BackgroundImageFix"/><feBlend in="SourceGraphic" in2="BackgroundImageFix" result="shape"/><feGaussianBlur result="effect1_foregroundBlur_2_2520" stdDeviation="8"/></filter><filter id="z" width="43.27" height="43.27" x="910.15" y="184.87" color-interpolation-filters="sRGB" filterUnits="userSpaceOnUse"><feFlood flood-opacity="0" result="BackgroundImageFix"/><feBlend in="SourceGraphic" in2="BackgroundImageFix" result="shape"/><feGaussianBlur result="effect1_foregroundBlur_2_2520" stdDeviation="8"/></filter><filter id="B" width="80.68" height="80.68" x="173.84" y="255.8" color-interpolation-filters="sRGB" filterUnits="userSpaceOnUse"><feFlood flood-opacity="0" result="BackgroundImageFix"/><feColorMatrix in="SourceAlpha" result="hardAlpha" values="0 0 0 0 0 0 0 0 0 0 0 0 0 0 0 0 0 0 127 0"/><feOffset dy="4"/><feGaussianBlur stdDeviation="4"/><feComposite in2="hardAlpha" operator="out"/><feColorMatrix values="0 0 0 0 0 0 0 0 0 0 0 0 0 0 0 0 0 0 0.25 0"/><feBlend in2="BackgroundImageFix" result="effect1_dropShadow_2_2520"/><feBlend in="SourceGraphic" in2="effect1_dropShadow_2_2520" result="shape"/></filter><filter id="C" width="119.02" height="123.02" x="838.46" y="-43.54" color-interpolation-filters="sRGB" filterUnits="userSpaceOnUse"><feFlood flood-opacity="0" result="BackgroundImageFix"/><feGaussianBlur in="BackgroundImage" stdDeviation="4"/><feComposite in2="SourceAlpha" operator="in" result="effect1_backgroundBlur_2_2520"/><feColorMatrix in="SourceAlpha" result="hardAlpha" values="0 0 0 0 0 0 0 0 0 0 0 0 0 0 0 0 0 0 127 0"/><feOffset dx="2" dy="6"/><feGaussianBlur stdDeviation="3"/><feComposite in2="hardAlpha" operator="out"/><feColorMatrix values="0 0 0 0 0 0 0 0 0 0 0 0 0 0 0 0 0 0 0.12 0"/><feBlend in2="effect1_backgroundBlur_2_2520" result="effect2_dropShadow_2_2520"/><feBlend in="SourceGraphic" in2="effect2_dropShadow_2_2520" result="shape"/></filter><filter id="D" width="119.56" height="115.94" x="506.97" y="266.78" color-interpolation-filters="sRGB" filterUnits="userSpaceOnUse"><feFlood flood-opacity="0" result="BackgroundImageFix"/><feBlend in="SourceGraphic" in2="BackgroundImageFix" result="shape"/><feGaussianBlur result="effect1_foregroundBlur_2_2520" stdDeviation="3"/></filter><filter id="E" width="131.56" height="127.94" x="500.97" y="260.78" color-interpolation-filters="sRGB" filterUnits="userSpaceOnUse"><feFlood flood-opacity="0" result="BackgroundImageFix"/><feBlend in="SourceGraphic" in2="BackgroundImageFix" result="shape"/><feGaussianBlur result="effect1_foregroundBlur_2_2520" stdDeviation="6"/></filter><filter id="O" width="209" height="210" x="53" y="243" color-interpolation-filters="sRGB" filterUnits="userSpaceOnUse"><feFlood flood-opacity="0" result="BackgroundImageFix"/><feGaussianBlur in="BackgroundImage" stdDeviation="4"/><feComposite in2="SourceAlpha" operator="in" result="effect1_backgroundBlur_2_2520"/><feColorMatrix in="SourceAlpha" result="hardAlpha" values="0 0 0 0 0 0 0 0 0 0 0 0 0 0 0 0 0 0 127 0"/><feOffset dx="3"/><feGaussianBlur stdDeviation="5.5"/><feComposite in2="hardAlpha" operator="out"/><feColorMatrix values="0 0 0 0 0 0 0 0 0 0 0 0 0 0 0 0 0 0 0.13 0"/><feBlend in2="effect1_backgroundBlur_2_2520" result="effect2_dropShadow_2_2520"/><feBlend in="SourceGraphic" in2="effect2_dropShadow_2_2520" result="shape"/></filter><filter id="P" width="102.49" height="103.88" x="764.68" y="238.51" color-interpolation-filters="sRGB" filterUnits="userSpaceOnUse"><feFlood flood-opacity="0" result="BackgroundImageFix"/><feColorMatrix in="SourceAlpha" result="hardAlpha" values="0 0 0 0 0 0 0 0 0 0 0 0 0 0 0 0 0 0 127 0"/><feOffset dy="4"/><feGaussianBlur stdDeviation="2"/><feComposite in2="hardAlpha" operator="out"/><feColorMatrix values="0 0 0 0 0 0 0 0 0 0 0 0 0 0 0 0 0 0 0.25 0"/><feBlend in2="BackgroundImageFix" result="effect1_dropShadow_2_2520"/><feBlend in="SourceGraphic" in2="effect1_dropShadow_2_2520" result="shape"/></filter><filter id="Q" width="46.83" height="46.83" x="740" y="17" color-interpolation-filters="sRGB" filterUnits="userSpaceOnUse"><feFlood flood-opacity="0" result="BackgroundImageFix"/><feBlend in="SourceGraphic" in2="BackgroundImageFix" result="shape"/><feGaussianBlur result="effect1_foregroundBlur_2_2520" stdDeviation="6"/></filter><filter id="R" width="46.83" height="46.83" x="740" y="17" color-interpolation-filters="sRGB" filterUnits="userSpaceOnUse"><feFlood flood-opacity="0" result="BackgroundImageFix"/><feBlend in="SourceGraphic" in2="BackgroundImageFix" result="shape"/><feGaussianBlur result="effect1_foregroundBlur_2_2520" stdDeviation="6"/></filter><filter id="T" width="64.88" height="67.4" x="172.83" y="172.8" color-interpolation-filters="sRGB" filterUnits="userSpaceOnUse"><feFlood flood-opacity="0" result="BackgroundImageFix"/><feBlend in="SourceGraphic" in2="BackgroundImageFix" result="shape"/><feGaussianBlur result="effect1_foregroundBlur_2_2520" stdDeviation="6"/></filter><filter id="W" width="239.68" height="242.72" x="440.96" y="58.21" color-interpolation-filters="sRGB" filterUnits="userSpaceOnUse"><feFlood flood-opacity="0" result="BackgroundImageFix"/><feColorMatrix in="SourceAlpha" result="hardAlpha" values="0 0 0 0 0 0 0 0 0 0 0 0 0 0 0 0 0 0 127 0"/><feOffset dy="4"/><feGaussianBlur stdDeviation="2"/><feComposite in2="hardAlpha" operator="out"/><feColorMatrix values="0 0 0 0 0 0 0 0 0 0 0 0 0 0 0 0 0 0 0.25 0"/><feBlend in2="BackgroundImageFix" result="effect1_dropShadow_2_2520"/><feBlend in="SourceGraphic" in2="effect1_dropShadow_2_2520" result="shape"/></filter><filter id="X" width="132" height="138" x="484" y="98" color-interpolation-filters="sRGB" filterUnits="userSpaceOnUse"><feFlood flood-opacity="0" result="BackgroundImageFix"/><feBlend in="SourceGraphic" in2="BackgroundImageFix" result="shape"/><feColorMatrix in="SourceAlpha" result="hardAlpha" values="0 0 0 0 0 0 0 0 0 0 0 0 0 0 0 0 0 0 127 0"/><feOffset dy="10"/><feGaussianBlur stdDeviation="3"/><feComposite in2="hardAlpha" k2="-1" k3="1" operator="arithmetic"/><feColorMatrix values="0 0 0 0 0 0 0 0 0 0 0 0 0 0 0 0 0 0 0.25 0"/><feBlend in2="shape" result="effect1_innerShadow_2_2520"/></filter><filter id="Y" width="132" height="138" x="484" y="98" color-interpolation-filters="sRGB" filterUnits="userSpaceOnUse"><feFlood flood-opacity="0" result="BackgroundImageFix"/><feBlend in="SourceGraphic" in2="BackgroundImageFix" result="shape"/><feColorMatrix in="SourceAlpha" result="hardAlpha" values="0 0 0 0 0 0 0 0 0 0 0 0 0 0 0 0 0 0 127 0"/><feOffset dy="10"/><feGaussianBlur stdDeviation="3"/><feComposite in2="hardAlpha" k2="-1" k3="1" operator="arithmetic"/><feColorMatrix values="0 0 0 0 0 0 0 0 0 0 0 0 0 0 0 0 0 0 0.25 0"/><feBlend in2="shape" result="effect1_innerShadow_2_2520"/></filter><filter id="ab" width="143" height="144" x="479" y="97" color-interpolation-filters="sRGB" filterUnits="userSpaceOnUse"><feFlood flood-opacity="0" result="BackgroundImageFix"/><feColorMatrix in="SourceAlpha" result="hardAlpha" values="0 0 0 0 0 0 0 0 0 0 0 0 0 0 0 0 0 0 127 0"/><feOffset dx="1" dy="6"/><feGaussianBlur stdDeviation="2"/><feComposite in2="hardAlpha" operator="out"/><feColorMatrix values="0 0 0 0 0 0 0 0 0 0 0 0 0 0 0 0 0 0 0.25 0"/><feBlend in2="BackgroundImageFix" result="effect1_dropShadow_2_2520"/><feBlend in="SourceGraphic" in2="effect1_dropShadow_2_2520" result="shape"/></filter><filter id="ac" width="79.12" height="77.26" x="38.63" y="36.56" color-interpolation-filters="sRGB" filterUnits="userSpaceOnUse"><feFlood flood-opacity="0" result="BackgroundImageFix"/><feBlend in="SourceGraphic" in2="BackgroundImageFix" result="shape"/><feGaussianBlur result="effect1_foregroundBlur_2_2520" stdDeviation="6"/></filter><radialGradient id="S" cx="0" cy="0" r="1" gradientTransform="matrix(21.1803 16.44357 -14.7263 18.96835 760.28 30.41)" gradientUnits="userSpaceOnUse"><stop stop-color="#fff" stop-opacity=".65"/><stop offset="1" stop-color="#fff" stop-opacity="0"/></radialGradient><radialGradient id="U" cx="0" cy="0" r="1" gradientTransform="matrix(10.00001 24 -24.64522 10.26886 209 202)" gradientUnits="userSpaceOnUse"><stop stop-color="#fff" stop-opacity=".65"/><stop offset="1" stop-color="#fff" stop-opacity="0"/></radialGradient><clipPath id="a"><path fill="#fff" d="M0 0h1100v360H0z"/></clipPath></defs></svg>