<svg width="224" height="259" viewBox="0 0 224 259" fill="none" xmlns="http://www.w3.org/2000/svg">
<path d="M86.2305 130.78C53.1143 183.655 -13.4021 204.748 4.70166 261.125C5.88879 264.824 50.2085 240.975 71.3913 267.73C107.958 313.912 145.068 313.167 159.845 306.8C157.236 275.998 154.256 263.62 159.672 233.19C161.836 221.012 164.643 208.932 166.312 196.666C167.524 187.739 168.143 178.726 168.291 169.725C168.439 161.321 168.093 152.555 164.161 145.144C159.796 136.9 154.899 137.583 146.032 134.777C140.121 132.915 120.187 131.587 86.2305 130.78Z" fill="#FF9946" stroke="#00121D"/>
<path fill-rule="evenodd" clip-rule="evenodd" d="M142.621 310.884C137.229 310.884 130.799 310.113 123.515 307.89C104.657 302.13 86.8627 288.823 70.6386 268.324C55.3665 249.032 27.0732 256.928 13.4707 260.727C7.04037 262.514 4.38169 263.259 3.78812 261.41C-8.05848 224.513 15.5481 202.699 42.877 177.447C58.0375 163.443 73.7053 148.967 85.4158 130.27L85.7126 129.811L86.2567 129.823C88.3342 129.873 137.427 131.053 146.318 133.858C148.198 134.454 149.929 134.901 151.463 135.298C157.225 136.776 161.38 137.844 165.015 144.684C169.183 152.568 169.393 161.742 169.257 169.737C169.096 179.173 168.428 188.273 167.266 196.802C166.19 204.673 164.632 212.581 163.124 220.229C162.27 224.524 161.392 228.982 160.613 233.365C156.174 258.343 157.411 271.019 159.451 292.049C159.871 296.394 160.353 301.323 160.811 306.724L160.861 307.418L160.23 307.692C157.942 308.672 151.784 310.884 142.621 310.884ZM41.6774 253.924C52.745 253.924 64.0845 256.952 72.1471 267.12C88.1241 287.307 105.597 300.404 124.072 306.04C142.114 311.554 154.591 307.867 158.833 306.177C158.4 301.087 157.955 296.594 157.534 292.236C155.481 271.043 154.232 258.256 158.721 233.016C159.5 228.621 160.391 224.165 161.232 219.857C162.74 212.234 164.298 204.35 165.362 196.541C166.512 188.087 167.179 179.061 167.34 169.7C167.464 161.953 167.279 153.064 163.321 145.59C160.082 139.495 156.656 138.613 150.98 137.161C149.434 136.763 147.666 136.316 145.749 135.708C137.6 133.126 92.2665 131.909 86.7513 131.76C74.9419 150.457 59.3112 164.896 44.1877 178.862C17.4031 203.605 -5.74604 224.983 5.53172 260.566C6.521 260.677 9.78561 259.745 12.9513 258.863C19.938 256.915 30.6716 253.924 41.6774 253.924ZM5.61829 260.825H5.63065H5.61829Z" fill="#00121D"/>
<path d="M174.745 216.082C171.654 211.44 200.788 205.791 209.58 197.871C215.442 192.582 218.027 186.561 218.311 178.876C218.595 171.29 215.8 164.04 210.47 158.453C200.368 147.888 189.127 141.83 175.487 135.014C170.343 132.444 164.098 134.555 161.538 139.707C158.979 144.871 161.019 149.316 166.163 151.873C178.368 157.969 187.668 164.748 195.458 172.904C197.251 174.791 197.573 176.765 197.523 178.094C197.449 180.08 196.509 181.979 194.865 183.457C188.558 189.143 180.743 195.698 172.458 197.784C166.88 199.187 164.618 203.532 166.015 209.131C167.202 213.873 170.096 216.082 174.745 216.082Z" fill="#C8DCE5" stroke="#00121D"/>
<path fill-rule="evenodd" clip-rule="evenodd" d="M176.55 217.051H174.745C169.613 217.051 166.361 214.457 165.087 209.367C163.529 203.147 166.262 198.355 172.222 196.852C179.976 194.903 187.383 188.919 194.221 182.737C195.668 181.445 196.497 179.782 196.571 178.056C196.608 176.914 196.324 175.213 194.765 173.574C186.876 165.306 177.651 158.689 165.73 152.742C162.948 151.352 160.982 149.402 160.066 147.131C159.114 144.735 159.325 142.028 160.685 139.284C162.033 136.553 164.357 134.517 167.239 133.549C170.12 132.58 173.199 132.791 175.907 134.157C189.634 141.01 200.949 147.093 211.163 157.783C216.678 163.568 219.56 171.067 219.263 178.913C218.966 187.045 216.084 193.302 210.223 198.591C205.932 202.452 197.14 205.717 189.386 208.609C183.129 210.931 176.056 213.563 175.499 215.289C175.474 215.363 175.462 215.425 175.549 215.549L176.55 217.051ZM170.862 134.877C169.848 134.877 168.834 135.051 167.845 135.386C165.458 136.181 163.529 137.882 162.404 140.141C161.278 142.401 161.093 144.511 161.859 146.41C162.589 148.248 164.222 149.837 166.584 151.016C178.702 157.063 188.1 163.804 196.151 172.234C198.178 174.369 198.537 176.616 198.488 178.131C198.401 180.378 197.35 182.526 195.507 184.177C188.484 190.521 180.841 196.666 172.68 198.727C167.733 199.969 165.644 203.681 166.954 208.895C167.907 212.731 170.034 214.717 173.583 215.065C173.595 214.941 173.632 214.817 173.669 214.693C174.473 212.197 179.642 210.174 188.718 206.797C196.311 203.966 204.918 200.763 208.937 197.15C214.464 192.16 217.062 186.511 217.346 178.838C217.617 171.526 214.922 164.524 209.765 159.123C199.774 148.658 188.607 142.649 175.054 135.883C173.731 135.212 172.297 134.877 170.862 134.877Z" fill="#00121D"/>
<path d="M171.381 196.107C177.712 193.215 183.104 190.384 187.531 187.641C191.649 185.083 196.743 185.158 201.591 185.344C207.316 185.555 214.798 186.635 221.587 190.111C222.65 190.657 222.637 192.184 221.598 192.743C213.388 197.076 186.578 211.341 178.726 216.554C178.083 216.989 177.39 217.958 177.193 218.716L176.315 222.066C175.907 223.668 174.633 224.885 173.025 225.22L167.114 226.461L166.286 205.568C166.137 201.719 168.091 198.094 171.381 196.107Z" fill="#78ADD2" stroke="#00121D"/>
<path fill-rule="evenodd" clip-rule="evenodd" d="M167.114 227.431C166.904 227.431 166.694 227.356 166.521 227.219C166.298 227.045 166.162 226.786 166.15 226.501L165.334 205.605C165.161 201.397 167.287 197.449 170.886 195.289C170.911 195.264 170.948 195.251 170.985 195.239C171.071 195.189 180.506 190.869 187.024 186.822C191.215 184.215 196.112 184.177 201.615 184.376C206.982 184.575 214.86 185.58 222.03 189.255C222.835 189.665 223.342 190.496 223.342 191.403C223.355 192.322 222.848 193.166 222.044 193.588C213.981 197.859 187.061 212.173 179.258 217.362C178.812 217.66 178.256 218.442 178.12 218.964L177.254 222.317C176.735 224.278 175.189 225.754 173.223 226.166L167.312 227.407C167.238 227.42 167.176 227.431 167.114 227.431ZM171.826 196.965C168.87 198.777 167.114 202.042 167.25 205.531L168.029 225.284L172.827 224.278C174.089 224.017 175.066 223.074 175.387 221.831L176.265 218.479C176.512 217.486 177.353 216.319 178.194 215.761C186.071 210.509 213.066 196.158 221.141 191.887C221.402 191.75 221.426 191.515 221.426 191.415C221.426 191.303 221.389 191.093 221.154 190.981C214.303 187.467 206.71 186.499 201.554 186.313C196.36 186.114 191.76 186.139 188.037 188.461C181.669 192.421 172.592 196.617 171.826 196.965Z" fill="#00121D"/>
<path d="M168.083 130.432L170.259 148.433L171.261 222.451C147.703 231.079 118.779 228.41 83.7961 223.668C84.1177 213.19 82.2752 176.094 83.4498 151.537L84.0683 129.153C93.6641 129.327 117.481 131.239 121.883 131.363H128.277C131.999 131.263 135.671 130.419 143.499 130.258C145.75 130.221 147.122 127.154 149.484 127.117L168.083 130.432Z" fill="#C8DCE5" stroke="#00121D"/>
<path fill-rule="evenodd" clip-rule="evenodd" d="M134.024 229.07C118.493 229.07 101.625 227.059 83.6578 224.625L82.8045 224.501L82.8292 223.632C82.9528 219.844 82.7798 212.669 82.5695 203.594C82.2232 188.212 81.7286 167.156 82.4829 151.489L83.1382 128.173L84.0906 128.186C90.051 128.298 101.304 129.067 110.343 129.676C115.661 130.036 120.249 130.346 121.906 130.396H128.274C129.696 130.359 131.168 130.197 132.862 130.023C135.471 129.738 138.723 129.39 143.484 129.291C144.251 129.278 145.005 128.645 145.797 127.975C146.798 127.131 147.936 126.175 149.469 126.15H149.556L149.642 126.162L168.946 129.601L171.221 148.422L172.235 223.123L171.592 223.358C160.228 227.518 147.639 229.07 134.024 229.07ZM84.7706 222.824C117.59 227.27 146.699 230.174 170.294 221.769L169.292 148.497L167.214 131.252L149.407 128.087C148.591 128.136 147.837 128.782 147.033 129.452C146.069 130.272 144.968 131.203 143.521 131.228C138.847 131.315 135.644 131.662 133.072 131.935C131.328 132.122 129.82 132.283 128.299 132.32H121.881C120.162 132.283 115.772 131.985 110.207 131.6C101.65 131.016 91.1143 130.309 85.0056 130.147L84.3996 151.563C83.6578 167.181 84.14 188.2 84.4986 203.545C84.684 212.012 84.8447 218.828 84.7706 222.824Z" fill="#00121D"/>
<path d="M139.999 138.401L126.742 148.904L112.88 138.401L91.5118 138.376C87.5175 141.604 84.1045 145.937 83.4492 151.536L88.5811 152.654L104.397 170.32L108.923 183.914L126.742 192.282L144.574 183.914L149.1 170.32L161.107 151.958L170.048 151.536C169.479 146.695 166.858 142.809 163.568 139.754L139.999 138.401Z" fill="#78ADD2" stroke="#00121D"/>
<path fill-rule="evenodd" clip-rule="evenodd" d="M126.745 193.251C126.609 193.251 126.473 193.226 126.349 193.164L108.518 184.784C108.283 184.672 108.097 184.474 108.011 184.213L103.546 170.817L88.0767 153.536L83.2417 152.48C82.7594 152.369 82.4379 151.909 82.4873 151.425C83.1055 146.298 85.9374 141.655 90.9086 137.632C91.0816 137.496 91.292 137.409 91.5144 137.409L112.883 137.434C113.081 137.434 113.291 137.496 113.452 137.632L126.733 147.688L139.408 137.645C139.593 137.496 139.816 137.421 140.051 137.434L163.633 138.787C163.855 138.799 164.066 138.899 164.226 139.048C168.196 142.735 170.471 146.894 171.015 151.425C171.04 151.686 170.966 151.959 170.793 152.158C170.62 152.356 170.372 152.48 170.1 152.493L161.654 152.903L149.968 170.743L145.492 184.213C145.405 184.474 145.22 184.672 144.985 184.784L127.153 193.164C127.029 193.226 126.894 193.251 126.745 193.251ZM109.705 183.22L126.745 191.215L143.798 183.22L148.188 170.01C148.212 169.936 148.25 169.861 148.299 169.787L160.306 151.425C160.479 151.177 160.764 151.016 161.073 150.991L168.938 150.618C168.27 147.043 166.329 143.716 163.175 140.699L140.311 139.383L127.351 149.662C127.005 149.935 126.523 149.948 126.176 149.687L112.549 139.358L91.8607 139.346C87.7304 142.76 85.2697 146.596 84.5277 150.78L88.7816 151.711C88.9794 151.748 89.1526 151.86 89.2886 152.009L105.117 169.675C105.204 169.775 105.265 169.886 105.315 170.01L109.705 183.22Z" fill="#00121D"/>
<path d="M84.1206 223.009C77.9251 262.96 69.467 328.45 72.1009 327.333H93.4199C103.313 303.693 114.38 274.668 117.706 253.203H139.359C138.605 276.529 139.619 301.46 141.672 327.333H162.991L169.507 268.237C170.67 257.673 171.264 232.694 171.264 222.066" fill="#BAD8DF"/>
<path d="M84.1206 223.009C77.9251 262.96 69.467 328.45 72.1009 327.333H93.4199C103.313 303.693 114.38 274.668 117.706 253.203H139.359C138.605 276.529 139.619 301.46 141.672 327.333H162.991L169.507 268.237C170.67 257.673 171.264 232.694 171.264 222.066" stroke="#00121D"/>
<path fill-rule="evenodd" clip-rule="evenodd" d="M72.0369 328.313C71.7897 328.313 71.5546 328.239 71.3568 328.078C70.6395 327.518 69.4524 326.589 74.0031 289.082C76.4887 268.66 80.0006 243.283 83.1662 222.861C83.2529 222.328 83.7352 221.966 84.2669 222.053C84.7986 222.14 85.1572 222.626 85.0707 223.159C78.6157 264.75 71.6784 320.169 72.6182 326.364H92.787C106.278 294.047 114.118 270.062 116.765 253.053L116.888 252.248H140.359L140.322 253.24C139.642 274.494 140.359 298.432 142.548 326.364H162.123L168.553 268.126C169.716 257.61 170.297 232.929 170.297 222.066C170.297 221.533 170.73 221.098 171.261 221.098C171.793 221.098 172.214 221.533 172.214 222.066C172.214 232.966 171.632 257.747 170.458 268.348L163.842 328.302H140.779L140.705 327.407C138.492 299.448 137.725 275.476 138.368 254.172H118.533C115.726 271.379 107.799 295.452 94.3082 327.705L94.0607 328.302H72.2101C72.1483 328.313 72.0989 328.313 72.0369 328.313ZM72.7171 326.774H72.7294H72.7171Z" fill="#00121D"/>
<path d="M171.258 231.973C171.258 235.97 82.9399 235.735 82.9399 231.736L83.6448 222.016C83.6448 225.69 171.258 225.69 171.258 222.016V231.973Z" fill="#EBEDEC" stroke="#00121D"/>
<path fill-rule="evenodd" clip-rule="evenodd" d="M129.041 235.822C117.293 235.822 105.768 235.537 97.4212 235.041C81.9883 234.109 81.9883 232.855 81.9883 231.738L82.6932 221.942C82.7303 221.433 83.1384 221.023 83.6824 221.05C84.0534 221.06 84.375 221.285 84.5233 221.594C89.5563 224.513 165.36 224.513 170.393 221.594C170.553 221.272 170.875 221.05 171.258 221.05C171.79 221.05 172.223 221.483 172.223 222.016V231.973C172.223 233.042 172.223 234.257 158.237 235.115C150.644 235.574 140.269 235.822 129.041 235.822ZM83.9298 231.44C89.7048 234.592 164.704 234.78 170.306 231.651V223.655C168.439 224.165 164.791 224.648 157.631 225.046C149.667 225.493 138.946 225.73 127.458 225.73C115.958 225.73 105.249 225.493 97.285 225.046C89.9644 224.637 86.3166 224.152 84.4986 223.631L83.9298 231.44Z" fill="#00121D"/>
<path d="M177.5 217.547C177.945 213.252 178.032 209.987 177.785 207.752L177.5 217.547Z" fill="#4582C5"/>
<path d="M177.5 217.547C177.945 213.252 178.032 209.987 177.785 207.752" stroke="#00121D"/>
<path d="M177.502 218.505C177.465 218.505 177.428 218.505 177.391 218.505C176.872 218.455 176.489 217.97 176.538 217.449C176.55 217.386 177.193 211.068 176.835 207.853C176.773 207.319 177.156 206.847 177.688 206.785C178.22 206.735 178.69 207.108 178.751 207.641C179.122 211.068 178.479 217.375 178.455 217.648C178.405 218.144 177.985 218.505 177.502 218.505Z" fill="#00121D"/>
<path d="M23.0256 198.454C12.3785 220.204 11.2409 235.55 19.6497 244.488C20.5153 245.407 20.1319 246.922 18.9449 247.355C14.184 249.119 5.19392 253.366 4.72401 260.491C4.71165 260.665 4.50143 260.715 4.42723 260.565C2.46104 256.407 -8.40864 229.478 23.0256 198.454Z" fill="#FE8522" stroke="#00121D"/>
<path fill-rule="evenodd" clip-rule="evenodd" d="M4.56463 261.622C4.14418 261.622 3.74848 261.374 3.56297 260.975C1.15162 255.899 -9.2358 228.946 22.3593 197.772L26.3906 193.799L23.8926 198.889C23.7443 199.199 8.3486 231.068 20.3436 243.819C20.9742 244.489 21.2216 245.421 21.0113 246.313C20.8012 247.219 20.1457 247.953 19.2801 248.264C15.3354 249.727 6.12273 253.837 5.67756 260.553C5.65282 261.075 5.26948 261.511 4.76249 261.596C4.70065 261.609 4.62645 261.622 4.56463 261.622ZM20.0221 202.973C-3.10228 228.249 1.42366 249.877 4.3173 257.773C6.4319 251.802 13.938 248.188 18.6247 246.451C18.9957 246.313 19.107 246.004 19.1317 245.867C19.1688 245.743 19.2059 245.421 18.9462 245.147C13.4805 239.336 12.3799 229.603 15.6816 216.219C16.9553 211.056 18.6742 206.313 20.0221 202.973ZM5.29422 260.144V260.157V260.144Z" fill="#00121D"/>
<path d="M139.813 237.311H117.109V222.462H139.813V237.311Z" fill="#EBEDEC" stroke="#00121D"/>
<path fill-rule="evenodd" clip-rule="evenodd" d="M139.811 238.268H117.108C116.576 238.268 116.143 237.845 116.143 237.312V222.465C116.143 221.93 116.576 221.507 117.108 221.507H139.811C140.343 221.507 140.776 221.93 140.776 222.465V237.312C140.776 237.845 140.343 238.268 139.811 238.268ZM118.072 236.343H138.847V223.432H118.072V236.343Z" fill="#00121D"/>
<path d="M135.691 233.75H121.223V226.028H135.691V233.75Z" fill="#FFF189" stroke="#00121D"/>
<path fill-rule="evenodd" clip-rule="evenodd" d="M136.657 234.717H120.259V225.06H136.657V234.717ZM122.189 232.781H134.728V226.995H122.189V232.781Z" fill="#00121D"/>
<path d="M156.038 311.727C155.531 311.727 155.111 311.33 155.086 310.808C154.43 298.245 155.852 272.247 159.661 258.454C163.062 246.2 169.913 243.705 170.209 243.607C170.716 243.433 171.248 243.705 171.421 244.202C171.594 244.711 171.335 245.258 170.84 245.432C170.778 245.456 164.62 247.779 161.516 258.977C157.757 272.57 156.347 298.269 157.003 310.71C157.027 311.243 156.619 311.69 156.087 311.727C156.075 311.727 156.063 311.727 156.038 311.727Z" fill="#00121D"/>
<path d="M85.2377 312.101C85.1512 312.101 85.0647 312.088 84.9656 312.062C84.4586 311.914 84.1618 311.38 84.3103 310.871C87.8098 298.754 93.461 272.385 89.7884 259.312C86.7835 248.597 80.8355 249.17 80.5881 249.194C80.0564 249.268 79.5865 248.882 79.5247 248.349C79.4503 247.829 79.8214 247.343 80.3409 247.282C80.6622 247.232 88.1561 246.375 91.6433 258.79C95.4273 272.274 89.7141 299.102 86.1651 311.404C86.0415 311.827 85.6582 312.101 85.2377 312.101Z" fill="#00121D"/>
<path d="M82.3593 151.836H82.3704H82.3593Z" fill="#402318" stroke="#00121D"/>
<path d="M170.218 152.89C177.935 159.805 187.926 158.638 200.218 149.414C193.986 144.212 190.326 141.32 189.225 140.749L170.218 152.89Z" fill="#78ADD2" stroke="#00121D"/>
<path fill-rule="evenodd" clip-rule="evenodd" d="M181.621 157.584C180.347 157.584 179.185 157.473 178.146 157.299C172.742 156.405 169.7 153.736 169.576 153.612C169.354 153.413 169.23 153.115 169.255 152.817C169.279 152.519 169.453 152.246 169.7 152.085L188.706 139.943C189.003 139.757 189.362 139.732 189.671 139.893C191.365 140.775 199.861 147.876 200.825 148.683C201.06 148.869 201.184 149.155 201.171 149.44C201.171 149.738 201.023 150.011 200.788 150.198C193.047 156.008 186.468 157.584 181.621 157.584ZM171.913 152.954C174.993 154.965 184.564 159.422 198.649 149.366C195.322 146.61 190.883 142.997 189.238 141.892L171.913 152.954ZM170.219 152.892H170.232H170.219Z" fill="#00121D"/>
<path d="M174.125 131.513C173.915 130.06 192.921 134.505 193.861 138.403C194.207 139.88 184.388 154.443 170.39 152.469C169.995 152.42 169.735 152.022 169.821 151.637L174.125 131.513Z" fill="#78ADD2" stroke="#00121D"/>
<path fill-rule="evenodd" clip-rule="evenodd" d="M172.99 153.624C172.1 153.624 171.197 153.561 170.258 153.425C169.812 153.363 169.404 153.115 169.145 152.742C168.885 152.357 168.786 151.885 168.885 151.439L173.176 131.389C173.213 130.991 173.473 130.482 174.264 130.321C176.861 129.799 193.728 133.76 194.792 138.179C195.138 139.607 192.467 143.046 190.995 144.66C188.448 147.503 181.882 153.624 172.99 153.624ZM170.826 151.55C177.121 152.332 182.327 149.539 185.604 147.031C189.981 143.692 192.652 139.558 192.887 138.539C192.788 138.304 192.43 137.77 191.119 136.988C186.692 134.343 177.22 132.183 174.969 132.183L170.826 151.55Z" fill="#00121D"/>
<path d="M169.674 151.538C165.272 142.922 159.918 136.131 150.272 130.594C160.066 127.491 171.368 127.205 184.204 129.75C185.49 130.011 186.158 131.463 185.503 132.605C180.816 140.737 177.18 146.125 169.674 151.538Z" fill="#78ADD2" stroke="#00121D"/>
<path fill-rule="evenodd" clip-rule="evenodd" d="M169.674 152.506C169.6 152.506 169.526 152.494 169.451 152.469C169.179 152.407 168.944 152.221 168.821 151.972C163.874 142.301 158.359 136.354 149.802 131.438C149.468 131.252 149.282 130.879 149.32 130.494C149.357 130.122 149.616 129.799 149.987 129.675C150.593 129.489 165.123 124.982 184.389 128.806C185.305 128.98 186.071 129.6 186.455 130.445C186.838 131.301 186.801 132.282 186.331 133.089C181.941 140.724 178.219 146.572 170.243 152.32C170.07 152.431 169.872 152.506 169.674 152.506ZM152.745 130.954C160.177 135.634 165.457 141.506 170.008 150.098C176.451 145.256 179.938 140.339 184.662 132.121C184.822 131.86 184.835 131.537 184.711 131.252C184.575 130.954 184.328 130.755 184.018 130.693C169.488 127.813 157.481 129.861 152.745 130.954Z" fill="#00121D"/>
<path d="M105.396 225.171C104.95 225.171 104.555 224.862 104.456 224.403L100.981 207.256C100.4 204.376 98.6314 201.856 96.1211 200.354L83.6439 192.83C83.1864 192.557 83.0379 191.961 83.3223 191.514C83.5945 191.055 84.1756 190.906 84.6331 191.179L97.1103 198.69C100.078 200.478 102.18 203.458 102.873 206.872L106.348 224.017C106.447 224.537 106.113 225.047 105.593 225.158C105.532 225.171 105.47 225.171 105.396 225.171Z" fill="#00121D"/>
<path d="M149.742 225.171C149.68 225.171 149.618 225.171 149.544 225.158C149.025 225.047 148.691 224.537 148.802 224.017L152.277 206.871C152.97 203.457 155.059 200.477 158.027 198.689L170.232 191.278C170.69 191.005 171.284 191.154 171.556 191.613C171.828 192.072 171.679 192.668 171.222 192.941L159.017 200.353C156.519 201.855 154.738 204.376 154.157 207.256L150.682 224.4C150.595 224.859 150.187 225.171 149.742 225.171Z" fill="#00121D"/>
<path d="M88.0723 128.074C92.4498 128.645 94.9231 131.897 95.4547 137.819H106.225C107.981 127.341 106.399 121.146 101.489 119.234L97.4334 122.549C92.7961 122.462 89.68 124.299 88.0723 128.074Z" fill="#FF6664" stroke="#00121D"/>
<path fill-rule="evenodd" clip-rule="evenodd" d="M107.031 138.788H94.5782L94.5038 137.906C93.7744 129.948 88.1726 129.054 87.9375 129.029L86.6886 128.855L87.1832 127.689C89.5205 122.214 95.5179 121.643 97.0883 121.593L101.317 118.129L101.837 118.328C109.85 121.444 107.278 137.31 107.167 137.981L107.031 138.788ZM96.3094 136.851H105.386C105.769 133.809 106.746 123.021 101.639 120.351L97.7685 123.529L97.4098 123.517C97.175 123.505 91.9193 123.48 89.4587 127.465C91.5112 128.21 95.4191 130.445 96.3094 136.851Z" fill="#402318" stroke="#00121D"/>
<path d="M145.686 126.683C147.517 130.544 148.605 134.244 148.951 137.82H160.686C163.951 132.444 164.31 128.198 161.737 125.082C160.847 124.014 159.573 123.356 158.226 123.083C155.567 122.562 150.15 122.251 145.686 126.683Z" fill="#FF6664" stroke="#00121D"/>
<path fill-rule="evenodd" clip-rule="evenodd" d="M161.217 138.788H148.084L147.998 137.906C147.503 132.791 144.844 127.155 144.819 127.105L144.535 126.484L145.017 126C149.741 121.295 155.429 121.556 158.397 122.139C160.054 122.462 161.501 123.294 162.478 124.473C166.719 129.613 161.724 137.968 161.501 138.328L161.217 138.788ZM149.803 136.851H160.128C161.031 135.15 163.875 129.191 160.994 125.702C160.302 124.858 159.25 124.274 158.039 124.039C155.541 123.542 150.854 123.306 146.847 126.919C147.54 128.483 149.234 132.667 149.803 136.851Z" fill="#402318" stroke="#00121D"/>
<path d="M137.785 131.847L113.857 131.338C102.567 131.102 93.5273 121.629 93.7745 110.282L94.1332 93.4105C94.3682 82.0755 103.816 73.0002 115.094 73.2486L139.022 73.7576C150.324 74.0058 159.364 83.4784 159.116 94.8133L158.758 111.685C158.523 123.02 149.075 132.095 137.785 131.847Z" fill="#DDC0BD" stroke="#00121D"/>
<path fill-rule="evenodd" clip-rule="evenodd" d="M138.241 132.829C138.08 132.829 137.919 132.816 137.771 132.816L113.843 132.307C108.118 132.183 102.775 129.812 98.7935 125.64C94.8115 121.469 92.6848 116.006 92.8084 110.271L93.167 93.3988C93.2906 87.6506 95.6524 82.2874 99.8074 78.2899C103.962 74.2921 109.391 72.1692 115.117 72.2811L139.045 72.79C150.891 73.0508 160.327 82.9329 160.079 94.8389L159.721 111.711C159.597 117.447 157.235 122.81 153.08 126.807C149.036 130.693 143.781 132.829 138.241 132.829ZM114.647 74.2053C109.601 74.2053 104.816 76.1421 101.131 79.6803C97.3466 83.3302 95.1949 88.2094 95.0836 93.436L94.725 110.308C94.6138 115.535 96.5553 120.501 100.178 124.312C103.814 128.111 108.674 130.259 113.88 130.37L137.808 130.892C143.027 131.016 147.961 129.054 151.745 125.417C155.541 121.767 157.68 116.888 157.792 111.661L158.15 94.7892C158.385 83.9635 149.791 74.9626 139.008 74.7267L115.079 74.2053C114.931 74.2053 114.795 74.2053 114.647 74.2053Z" fill="#00121D"/>
<path d="M102.228 77.3723C106.111 70.5689 112.393 66.621 121.098 65.5162C131.77 64.1504 147.302 71.8228 153.052 69.2529C156.898 67.5521 160.608 64.5104 164.182 60.1528C167.718 69.1785 166.927 76.2177 161.807 81.2706C156.688 86.3111 144.272 87.3167 132.203 81.3078C121.482 75.9695 111.49 74.6535 102.228 77.3723Z" fill="#BE9353" stroke="#00121D"/>
<path fill-rule="evenodd" clip-rule="evenodd" d="M148.766 86.4211C143.671 86.4211 137.798 85.1671 131.788 82.1751C116.219 74.4158 102.641 78.2645 102.505 78.3017L100.217 78.9722L101.392 76.8989C101.639 76.4643 107.612 66.2592 120.98 64.5584C126.483 63.8509 133.197 65.4649 139.121 66.8925C144.76 68.2457 150.089 69.5244 152.674 68.3698C158.152 65.9366 163.395 59.5925 163.444 59.5305L164.483 58.2642L165.089 59.7911C165.312 60.3747 170.518 74.0185 162.492 81.9518C159.735 84.6582 154.801 86.4211 148.766 86.4211ZM111.359 75.3471C116.936 75.3471 124.479 76.3775 132.641 80.4371C144.537 86.3714 156.482 85.1671 161.144 80.5738C166.796 74.9995 164.867 65.713 163.803 62.0507C161.886 64.1363 157.818 68.1961 153.453 70.1327C150.275 71.5481 144.896 70.257 138.676 68.7671C132.913 67.3767 126.371 65.8123 121.215 66.4704C112.299 67.6 106.833 72.9634 104.459 75.9057C106.091 75.6325 108.465 75.3471 111.359 75.3471Z" fill="#402318" stroke="#00121D"/>
<path d="M138.364 102.609C138.364 99.903 139.762 97.7056 141.505 97.7056C143.236 97.7056 144.646 99.903 144.646 102.609" stroke="#00121D" stroke-width="2" stroke-linecap="round"/>
<path d="M110.319 102.609C110.319 99.903 111.728 97.7056 113.459 97.7056C115.203 97.7056 116.6 99.903 116.6 102.609" stroke="#00121D" stroke-width="2" stroke-linecap="round"/>
<path fill-rule="evenodd" clip-rule="evenodd" d="M127.481 115.819C123.796 115.819 122.819 112.678 122.819 111.015C122.819 110.481 123.252 110.046 123.784 110.046C124.303 110.046 124.736 110.481 124.736 111.015C124.749 111.486 124.909 113.895 127.481 113.895C130.091 113.895 130.338 111.698 130.35 111.263C130.375 110.729 130.833 110.32 131.352 110.332C131.884 110.357 132.292 110.804 132.279 111.338C132.218 112.889 131.154 115.819 127.481 115.819ZM124.736 111.015H124.749H124.736Z" fill="#402318" stroke="#00121D"/>
<path d="M82.8777 151.439C84.5348 150.545 70.5364 136.069 65.4295 113.3C58.5661 82.6972 64.8234 53.1372 83.5332 27.7983L102.292 41.7652C67.0616 89.4634 100.413 138.117 100.759 138.614L82.8777 151.439Z" fill="#C8DCE5" stroke="#00121D"/>
<path d="M128.15 164.139L133.591 175.213C133.913 175.858 134.519 176.305 135.236 176.417L147.404 178.193C149.209 178.453 149.926 180.663 148.628 181.942L139.811 190.558C139.304 191.067 139.069 191.787 139.181 192.507L141.27 204.673C141.567 206.474 139.7 207.839 138.092 206.995L127.198 201.247C126.567 200.912 125.801 200.912 125.158 201.247L114.276 206.995C112.668 207.839 110.788 206.474 111.098 204.673L113.175 192.507C113.299 191.787 113.064 191.067 112.544 190.558L103.74 181.942C102.441 180.663 103.159 178.453 104.952 178.193L117.132 176.417C117.837 176.305 118.455 175.858 118.777 175.213L124.218 164.139C125.022 162.5 127.346 162.5 128.15 164.139Z" fill="#FFCB35" stroke="#00121D"/>
<path d="M88.4954 107.316L87.0858 100.19C86.8136 98.7743 85.3422 97.9425 83.982 98.4266C77.3043 100.786 63.4915 115.683 75.4865 140.29L84.0932 128.185L88.4954 107.316Z" fill="#78ADD2" stroke="#00121D"/>
<path d="M94.2791 126.298C94.2791 125.603 91.7564 112.605 90.7175 107.316C90.5198 106.285 89.1225 105.826 88.2074 106.496C81.1958 111.599 60.112 129.936 84.9304 151.538L94.2791 126.298Z" fill="#78ADD2" stroke="#00121D"/>
<path d="M100.758 138.614C100.251 131.91 98.3468 123.195 93.4376 115.249C92.4979 113.734 90.3338 113.548 89.1343 114.877C84.7691 119.681 76.7189 131.885 83.446 151.538C91.3848 149.75 97.2711 145.566 100.758 138.614Z" fill="#78ADD2" stroke="#00121D"/>
<path d="M68.2896 55.421C70.2927 54.7755 88.3099 55.6569 97.5845 49.8591C105.35 40.0016 112.127 31.9941 117.927 25.8237L97.3867 12.1177C80.3093 25.1907 70.602 39.6167 68.2896 55.421Z" fill="#78ADD2" stroke="#00121D"/>
<path d="M93.0468 15.9042C104.337 4.9915 114.638 0.0751861 123.974 1.14286C126.212 1.40358 128.03 3.09202 128.648 5.26464L128.784 5.72398C129.316 7.61105 128.858 9.64709 127.56 11.1245L119.473 21.0813L110.656 27.7232" fill="#78ADD2"/>
<path d="M93.0468 15.9042C104.337 4.9915 114.638 0.0751861 123.974 1.14286C126.212 1.40358 128.03 3.09202 128.648 5.26464L128.784 5.72398C129.316 7.61105 128.858 9.64709 127.56 11.1245L119.473 21.0813L110.656 27.7232" stroke="#00121D"/>
<path d="M102.935 32.5284C100.659 25.9111 103.541 22.0873 111.566 21.0817C113.038 20.8954 120.569 15.1846 123.883 18.1394C126.084 20.101 124.105 22.6585 117.922 25.8242L108.45 36.588" fill="#78ADD2"/>
<path d="M102.935 32.5284C100.659 25.9111 103.541 22.0873 111.566 21.0817C113.038 20.8954 120.569 15.1846 123.883 18.1394C126.084 20.101 124.105 22.6585 117.922 25.8242L108.45 36.588" stroke="#00121D" stroke-linecap="round"/>
<path d="M72.2578 49.4373C82.3608 50.592 89.9907 49.1768 95.1226 45.1914L72.2578 49.4373Z" fill="#78ADD2"/>
<path d="M72.2578 49.4373C82.3608 50.592 89.9907 49.1768 95.1226 45.1914" stroke="#00121D" stroke-linecap="round"/>
<path d="M106.091 9.17578C111.049 11.7457 114.166 14.9984 115.402 18.8967L106.091 9.17578Z" fill="#78ADD2"/>
<path d="M106.091 9.17578C111.049 11.7457 114.166 14.9984 115.402 18.8967" stroke="#00121D" stroke-linecap="round"/>
</svg>
