<svg width="224" height="259" viewBox="0 0 224 259" fill="none" xmlns="http://www.w3.org/2000/svg">
<g clip-path="url(#clip0_98_2)">
<path d="M86.2305 130.78C53.1143 183.655 -13.4021 204.748 4.70166 261.125C5.88879 264.824 50.2085 240.975 71.3913 267.73C107.958 313.912 145.068 313.167 159.845 306.8C157.236 275.998 154.256 263.62 159.672 233.19C161.836 221.012 164.643 208.932 166.312 196.666C167.524 187.739 168.143 178.726 168.291 169.725C168.439 161.321 168.093 152.555 164.161 145.144C159.796 136.9 154.899 137.583 146.032 134.777C140.121 132.915 120.187 131.587 86.2305 130.78Z" fill="#FF9946"/>
<path d="M174.745 216.082C171.654 211.44 200.788 205.791 209.58 197.871C215.442 192.582 218.027 186.561 218.311 178.876C218.595 171.29 215.8 164.04 210.47 158.453C200.368 147.888 189.127 141.83 175.487 135.014C170.343 132.444 164.098 134.555 161.538 139.707C158.979 144.871 161.019 149.316 166.163 151.873C178.368 157.969 187.668 164.748 195.458 172.904C197.251 174.791 197.573 176.765 197.523 178.094C197.449 180.08 196.509 181.979 194.865 183.457C188.558 189.143 180.743 195.698 172.458 197.784C166.88 199.187 164.618 203.532 166.015 209.131C167.202 213.873 170.096 216.082 174.745 216.082Z" fill="#C8DCE5" stroke="#00121D"/>
<path d="M171.381 196.107C177.712 193.215 183.104 190.384 187.531 187.641C191.649 185.083 196.743 185.158 201.591 185.344C207.316 185.555 214.798 186.635 221.587 190.111C222.65 190.657 222.637 192.184 221.598 192.743C213.388 197.076 186.578 211.341 178.726 216.554C178.083 216.989 177.39 217.958 177.193 218.716L176.315 222.066C175.907 223.668 174.633 224.885 173.025 225.22L167.114 226.461L166.286 205.568C166.137 201.719 168.091 198.094 171.381 196.107Z" fill="#78ADD2" stroke="#00121D"/>
<path d="M168.083 130.432L170.259 148.433L171.261 222.451C147.703 231.079 118.779 228.41 83.7961 223.668C84.1177 213.19 82.2752 176.094 83.4498 151.537L84.0683 129.153C93.6641 129.327 117.481 131.239 121.883 131.363H128.277C131.999 131.263 135.671 130.419 143.499 130.258C145.75 130.221 147.122 127.154 149.484 127.117L168.083 130.432Z" fill="#C8DCE5" stroke="#00121D"/>
<path d="M139.999 138.401L126.742 148.904L112.88 138.401L91.5118 138.376C87.5175 141.604 84.1045 145.937 83.4492 151.536L88.5811 152.654L104.397 170.32L108.923 183.914L126.742 192.282L144.574 183.914L149.1 170.32L161.107 151.958L170.048 151.536C169.479 146.695 166.858 142.809 163.568 139.754L139.999 138.401Z" fill="#78ADD2" stroke="#00121D"/>
<path d="M84.1206 223.009C77.9251 262.96 69.467 328.45 72.1009 327.333H93.4199C103.313 303.693 114.38 274.668 117.706 253.203H139.359C138.605 276.529 139.619 301.46 141.672 327.333H162.991L169.507 268.237C170.67 257.673 171.264 232.694 171.264 222.066" fill="#BAD8DF"/>
<path d="M84.1206 223.009C77.9251 262.96 69.467 328.45 72.1009 327.333H93.4199C103.313 303.693 114.38 274.668 117.706 253.203H139.359C138.605 276.529 139.619 301.46 141.672 327.333H162.991L169.507 268.237C170.67 257.673 171.264 232.694 171.264 222.066" stroke="#00121D"/>
<path d="M171.258 231.973C171.258 235.97 82.9399 235.735 82.9399 231.736L83.6448 222.016C83.6448 225.69 171.258 225.69 171.258 222.016V231.973Z" fill="#EBEDEC" stroke="#00121D"/>
<path d="M177.5 217.547C177.945 213.252 178.032 209.987 177.785 207.752L177.5 217.547Z" fill="#4582C5"/>
<path d="M177.5 217.547C177.945 213.252 178.032 209.987 177.785 207.752" stroke="#00121D"/>
<path d="M23.0256 198.454C12.3785 220.204 11.2409 235.55 19.6497 244.488C20.5153 245.407 20.1319 246.922 18.9449 247.355C14.184 249.119 5.19392 253.366 4.72401 260.491C4.71165 260.665 4.50143 260.715 4.42723 260.565C2.46104 256.407 -8.40864 229.478 23.0256 198.454Z" fill="#FE8522" stroke="#00121D"/>
<path d="M139.813 237.311H117.109V222.462H139.813V237.311Z" fill="#EBEDEC" stroke="#00121D"/>
<path fill-rule="evenodd" clip-rule="evenodd" d="M139.811 238.268H117.108C116.576 238.268 116.143 237.845 116.143 237.312V222.465C116.143 221.93 116.576 221.507 117.108 221.507H139.811C140.343 221.507 140.776 221.93 140.776 222.465V237.312C140.776 237.845 140.343 238.268 139.811 238.268ZM118.072 236.343H138.847V223.432H118.072V236.343Z" fill="#00121D"/>
<path d="M135.691 233.75H121.223V226.028H135.691V233.75Z" fill="#FFF189" stroke="#00121D"/>
<path fill-rule="evenodd" clip-rule="evenodd" d="M136.657 234.717H120.259V225.06H136.657V234.717ZM122.189 232.781H134.728V226.995H122.189V232.781Z" fill="#00121D"/>
<path d="M156.038 311.727C155.531 311.727 155.111 311.33 155.086 310.808C154.43 298.245 155.852 272.247 159.661 258.454C163.062 246.2 169.913 243.705 170.209 243.607C170.716 243.433 171.248 243.705 171.421 244.202C171.594 244.711 171.335 245.258 170.84 245.432C170.778 245.456 164.62 247.779 161.516 258.977C157.757 272.57 156.347 298.269 157.003 310.71C157.027 311.243 156.619 311.69 156.087 311.727C156.075 311.727 156.063 311.727 156.038 311.727Z" fill="#00121D"/>
<path d="M85.2377 312.101C85.1512 312.101 85.0647 312.088 84.9656 312.062C84.4586 311.914 84.1618 311.38 84.3103 310.871C87.8098 298.754 93.461 272.385 89.7884 259.312C86.7835 248.597 80.8355 249.17 80.5881 249.194C80.0564 249.268 79.5865 248.882 79.5247 248.349C79.4503 247.829 79.8214 247.343 80.3409 247.282C80.6622 247.232 88.1561 246.375 91.6433 258.79C95.4273 272.274 89.7141 299.102 86.1651 311.404C86.0415 311.827 85.6582 312.101 85.2377 312.101Z" fill="#00121D"/>
<path d="M82.3593 151.836H82.3704H82.3593Z" fill="#402318" stroke="#00121D"/>
<path d="M170.218 152.89C177.935 159.805 187.926 158.638 200.218 149.414C193.986 144.212 190.326 141.32 189.225 140.749L170.218 152.89Z" fill="#78ADD2" stroke="#00121D"/>
<path d="M174.125 131.513C173.915 130.06 192.921 134.505 193.861 138.403C194.207 139.88 184.388 154.443 170.39 152.469C169.995 152.42 169.735 152.022 169.821 151.637L174.125 131.513Z" fill="#78ADD2" stroke="#00121D"/>
<path d="M169.674 151.538C165.272 142.922 159.918 136.131 150.272 130.594C160.066 127.491 171.368 127.205 184.204 129.75C185.49 130.011 186.158 131.463 185.503 132.605C180.816 140.737 177.18 146.125 169.674 151.538Z" fill="#78ADD2" stroke="#00121D"/>
<path d="M105.396 225.171C104.95 225.171 104.555 224.862 104.456 224.403L100.981 207.256C100.4 204.376 98.6314 201.856 96.1211 200.354L83.6439 192.83C83.1864 192.557 83.0379 191.961 83.3223 191.514C83.5945 191.055 84.1756 190.906 84.6331 191.179L97.1103 198.69C100.078 200.478 102.18 203.458 102.873 206.872L106.348 224.017C106.447 224.537 106.113 225.047 105.593 225.158C105.532 225.171 105.47 225.171 105.396 225.171Z" fill="#00121D"/>
<path d="M149.742 225.171C149.68 225.171 149.618 225.171 149.544 225.158C149.025 225.047 148.691 224.537 148.802 224.017L152.277 206.871C152.97 203.457 155.059 200.477 158.027 198.689L170.232 191.278C170.69 191.005 171.284 191.154 171.556 191.613C171.828 192.072 171.679 192.668 171.222 192.941L159.017 200.353C156.519 201.855 154.738 204.376 154.157 207.256L150.682 224.4C150.595 224.859 150.187 225.171 149.742 225.171Z" fill="#00121D"/>
<path d="M88.0723 128.074C92.4498 128.645 94.9231 131.897 95.4547 137.819H106.225C107.981 127.341 106.399 121.146 101.489 119.234L97.4334 122.549C92.7961 122.462 89.68 124.299 88.0723 128.074Z" fill="#FF6664" stroke="#00121D"/>
<path d="M145.686 126.683C147.517 130.544 148.605 134.244 148.951 137.82H160.686C163.951 132.444 164.31 128.198 161.737 125.082C160.847 124.014 159.573 123.356 158.226 123.083C155.567 122.562 150.15 122.251 145.686 126.683Z" fill="#FF6664" stroke="#00121D"/>
<path d="M137.785 131.847L113.857 131.338C102.567 131.102 93.5273 121.629 93.7745 110.282L94.1332 93.4105C94.3682 82.0755 103.816 73.0002 115.094 73.2486L139.022 73.7576C150.324 74.0058 159.364 83.4784 159.116 94.8133L158.758 111.685C158.523 123.02 149.075 132.095 137.785 131.847Z" fill="#DDC0BD" stroke="#00121D"/>
<path d="M102.228 77.3723C106.111 70.5689 112.393 66.621 121.098 65.5162C131.77 64.1504 147.302 71.8228 153.052 69.2529C156.898 67.5521 160.608 64.5104 164.182 60.1528C167.718 69.1785 166.927 76.2177 161.807 81.2706C156.688 86.3111 144.272 87.3167 132.203 81.3078C121.482 75.9695 111.49 74.6535 102.228 77.3723Z" fill="#BE9353" stroke="#00121D"/>
<path d="M138.364 102.609C138.364 99.903 139.762 97.7056 141.505 97.7056C143.236 97.7056 144.646 99.903 144.646 102.609" stroke="#00121D" stroke-width="2" stroke-linecap="round"/>
<path d="M110.319 102.609C110.319 99.903 111.728 97.7056 113.459 97.7056C115.203 97.7056 116.6 99.903 116.6 102.609" stroke="#00121D" stroke-width="2" stroke-linecap="round"/>
<path fill-rule="evenodd" clip-rule="evenodd" d="M127.481 115.819C123.796 115.819 122.819 112.678 122.819 111.015C122.819 110.481 123.252 110.046 123.784 110.046C124.303 110.046 124.736 110.481 124.736 111.015C124.749 111.486 124.909 113.895 127.481 113.895C130.091 113.895 130.338 111.698 130.35 111.263C130.375 110.729 130.833 110.32 131.352 110.332C131.884 110.357 132.292 110.804 132.279 111.338C132.218 112.889 131.154 115.819 127.481 115.819ZM124.736 111.015H124.749H124.736Z" fill="black"/>
<path d="M82.8777 151.439C84.5348 150.545 70.5364 136.069 65.4295 113.3C58.5661 82.6972 64.8234 53.1372 83.5332 27.7983L102.292 41.7652C67.0616 89.4634 100.413 138.117 100.759 138.614L82.8777 151.439Z" fill="#C8DCE5" stroke="#00121D"/>
<path d="M128.15 164.139L133.591 175.213C133.913 175.858 134.519 176.305 135.236 176.417L147.404 178.193C149.209 178.453 149.926 180.663 148.628 181.942L139.811 190.558C139.304 191.067 139.069 191.787 139.181 192.507L141.27 204.673C141.567 206.474 139.7 207.839 138.092 206.995L127.198 201.247C126.567 200.912 125.801 200.912 125.158 201.247L114.276 206.995C112.668 207.839 110.788 206.474 111.098 204.673L113.175 192.507C113.299 191.787 113.064 191.067 112.544 190.558L103.74 181.942C102.441 180.663 103.159 178.453 104.952 178.193L117.132 176.417C117.837 176.305 118.455 175.858 118.777 175.213L124.218 164.139C125.022 162.5 127.346 162.5 128.15 164.139Z" fill="#FFCB35" stroke="#00121D"/>
<path d="M88.4954 107.316L87.0858 100.19C86.8136 98.7743 85.3422 97.9425 83.982 98.4266C77.3043 100.786 63.4915 115.683 75.4865 140.29L84.0932 128.185L88.4954 107.316Z" fill="#78ADD2" stroke="#00121D"/>
<path d="M94.2791 126.298C94.2791 125.603 91.7564 112.605 90.7175 107.316C90.5198 106.285 89.1225 105.826 88.2074 106.496C81.1958 111.599 60.112 129.936 84.9304 151.538L94.2791 126.298Z" fill="#78ADD2" stroke="#00121D"/>
<path d="M100.758 138.614C100.251 131.91 98.3468 123.195 93.4376 115.249C92.4979 113.734 90.3338 113.548 89.1343 114.877C84.7691 119.681 76.7189 131.885 83.446 151.538C91.3848 149.75 97.2711 145.566 100.758 138.614Z" fill="#78ADD2" stroke="#00121D"/>
<path d="M68.2896 55.421C70.2927 54.7755 88.3099 55.6569 97.5845 49.8591C105.35 40.0016 112.127 31.9941 117.927 25.8237L97.3867 12.1177C80.3093 25.1907 70.602 39.6167 68.2896 55.421Z" fill="#78ADD2" stroke="#00121D"/>
<path d="M93.0468 15.9042C104.337 4.9915 114.638 0.0751895 123.974 1.14286C126.212 1.40358 128.03 3.09202 128.648 5.26464L128.784 5.72398C129.316 7.61105 128.858 9.64709 127.56 11.1245L119.473 21.0813L110.656 27.7232" fill="#78ADD2"/>
<path d="M93.0468 15.9042C104.337 4.9915 114.638 0.0751895 123.974 1.14286C126.212 1.40358 128.03 3.09202 128.648 5.26464L128.784 5.72398C129.316 7.61105 128.858 9.64709 127.56 11.1245L119.473 21.0813L110.656 27.7232" stroke="#00121D"/>
<path d="M102.935 32.5284C100.659 25.9111 103.541 22.0873 111.566 21.0817C113.038 20.8954 120.569 15.1846 123.883 18.1394C126.084 20.101 124.105 22.6585 117.922 25.8242L108.45 36.588" fill="#78ADD2"/>
<path d="M102.935 32.5284C100.659 25.9111 103.541 22.0873 111.566 21.0817C113.038 20.8954 120.569 15.1846 123.883 18.1394C126.084 20.101 124.105 22.6585 117.922 25.8242L108.45 36.588" stroke="#00121D" stroke-linecap="round"/>
<path d="M72.2578 49.4373C82.3608 50.592 89.9907 49.1768 95.1226 45.1914L72.2578 49.4373Z" fill="#78ADD2"/>
<path d="M72.2578 49.4373C82.3608 50.592 89.9907 49.1768 95.1226 45.1914" stroke="#00121D" stroke-linecap="round"/>
<path d="M106.091 9.17578C111.049 11.7457 114.166 14.9984 115.402 18.8967L106.091 9.17578Z" fill="#78ADD2"/>
<path d="M106.091 9.17578C111.049 11.7457 114.166 14.9984 115.402 18.8967" stroke="#00121D" stroke-linecap="round"/>
</g>
<defs>
<clipPath id="clip0_98_2">
<rect width="224" height="259" fill="white"/>
</clipPath>
</defs>
</svg>
