<svg width="24" height="24" viewBox="0 0 24 24" fill="none" xmlns="http://www.w3.org/2000/svg">
<path fill-rule="evenodd" clip-rule="evenodd" d="M0 22V5L1 4H6V1L7 0H17L18 1V4H23L24 5V14H22V6H2V21H13V23H1L0 22ZM16 2V4H8V2H16Z" fill="black"/>
<path d="M19 16H21V19H24V21H21V24H19V21H16V19H19V16Z" fill="black"/>
<path d="M14 10C14 11.1046 13.1046 12 12 12C10.8954 12 10 11.1046 10 10C10 8.89543 10.8954 8 12 8C13.1046 8 14 8.89543 14 10Z" fill="black"/>
<path d="M8 15C8 13.8954 9.23858 13 12 13C14.7614 13 16 13.8954 16 15V17H8V15Z" fill="black"/>
</svg>
