<svg width="32" height="32" viewBox="0 0 32 32" fill="none" xmlns="http://www.w3.org/2000/svg">
<circle cx="16" cy="16" r="16" fill="#FE8522"/>
<mask id="mask0_16_1680" style="mask-type:alpha" maskUnits="userSpaceOnUse" x="0" y="0" width="32" height="32">
<circle cx="16" cy="16" r="16" fill="#C4C4C4"/>
</mask>
<g mask="url(#mask0_16_1680)">
<path d="M6.82397 50.9728L-4.42019 43.43C-6.20295 42.2319 -7.17871 40.1651 -6.97285 38.0282C-6.76699 35.8914 -5.40831 34.0469 -3.43205 33.2152L9.66486 27.2741C13.6791 25.586 16.0466 31.2101 12.0323 32.8982L-0.599397 38.6417L10.2207 45.9045L6.82397 50.9728Z" fill="#EBEDEC" stroke="#402318" stroke-linejoin="round"/>
<path d="M20.9952 29.8351C21.5222 23.8075 24.4372 22.0494 29.7443 24.565C40.3544 29.5922 32.3711 39.1523 63.0074 44.9906C58.1408 61.7188 50.1658 71.0526 39.0822 73C34.088 70.6738 28.7398 67.1742 23.0333 62.497C18.4096 58.705 16.7957 50.6641 18.1873 38.3701L20.9952 29.8351Z" fill="#E94F3E" stroke="#402318"/>
<path d="M5.91406 51.4547H30.7574V30.8727C30.7574 28.0895 28.5012 25.8291 25.7138 25.8291H15.9601C10.4101 25.8291 5.91406 30.3292 5.91406 35.8792V51.4547Z" fill="#EBEDEC" stroke="#402318" stroke-linejoin="round"/>
<path d="M22.9339 25.9855L16.7004 32.1037L13 25.9855" stroke="#402318" stroke-linejoin="round"/>
<path d="M15.0507 25.8002L21.9841 25.7549C25.2532 25.7344 27.9129 23.0376 27.8923 19.7644L27.8594 14.8978C27.8388 11.6246 25.142 8.96903 21.873 8.98962L14.9396 9.03491C11.6664 9.0555 9.01078 11.7523 9.03137 15.0213L9.06429 19.892C9.08487 23.1611 11.7817 25.8208 15.0507 25.8002Z" fill="#DDC0BD" stroke="#402318"/>
<path d="M25.582 10.2371C24.4869 8.25672 22.6794 7.08743 20.1679 6.73335C17.0841 6.29693 12.5511 8.43788 10.8959 7.67619C9.7884 7.16566 8.73028 6.27634 7.70921 5C6.64696 7.58973 6.84869 9.62364 8.30618 11.1017C9.77192 12.5798 13.358 12.9257 16.8823 11.2417C20.0114 9.74716 22.91 9.40955 25.582 10.2371Z" fill="#BE9353" stroke="#402318"/>
<path d="M13.3738 19.0355C13.382 19.7231 12.5668 20.2913 11.554 20.3037C10.5411 20.316 9.70947 19.7725 9.70123 19.085C9.693 18.3974 10.5082 17.8292 11.521 17.8169C12.5338 17.8045 13.3655 18.3521 13.3738 19.0355Z" fill="#F2BEDC"/>
<path d="M22.4568 18.8297C22.4651 19.5173 21.6498 20.0855 20.637 20.0978C19.6242 20.1102 18.7925 19.5626 18.7842 18.8792C18.776 18.1916 19.5912 17.6234 20.6041 17.611C21.6169 17.5987 22.4486 18.1422 22.4568 18.8297Z" fill="#F2BEDC"/>
<path d="M11.2706 16.9276C11.2624 16.1659 11.6618 15.5442 12.1723 15.536C12.6787 15.5277 13.0987 16.1412 13.1111 16.9029" stroke="#402318" stroke-linecap="round"/>
<path d="M19.0851 16.6146C19.0769 15.8529 19.4803 15.2271 19.9867 15.223C20.4932 15.2147 20.9131 15.8282 20.9255 16.5899" stroke="#402318" stroke-linecap="round"/>
<path d="M16.1532 17.9238C16.1532 19.4349 14.1729 19.4349 14.1729 17.9238" stroke="#402318" stroke-linecap="round"/>
<path d="M33.6188 50.9729L44.8629 43.4302C46.6457 42.2321 47.6214 40.1652 47.4156 38.0284C47.2097 35.8915 45.8511 34.047 43.8748 33.2153L30.7738 27.2742C26.7636 25.5861 24.3962 31.2102 28.4105 32.8983L41.0421 38.6418L30.2179 45.9046L33.6188 50.9729Z" fill="#EBEDEC" stroke="#402318" stroke-linejoin="round"/>
</g>
</svg>
