<svg width="24" height="24" viewBox="0 0 24 24" fill="none" xmlns="http://www.w3.org/2000/svg">
<path d="M24 1V23L23 24H1L0 23V8H2V22H22V2H2V6H0V1L1 0H23L24 1Z" fill="white"/>
<path d="M15 17L18 14H20V15L15 20.0002L12 17V16H14L15 17Z" fill="white"/>
<path d="M10 15V14H4V16H9L10 15Z" fill="white"/>
<path d="M10 19V18H4V20H9L10 19Z" fill="white"/>
<path d="M15 6.99999L18 4H20V5L15 10.0001L12 6.99999V5.99999L14 6L15 6.99999Z" fill="white"/>
<path d="M10 5V4H4V6H9L10 5Z" fill="white"/>
<path d="M10 9V8H4V10H9L10 9Z" fill="white"/>
</svg>
