<svg width="24" height="24" viewBox="0 0 24 24" fill="none" xmlns="http://www.w3.org/2000/svg">
<path d="M24 1V23L23 24H1L0 23V8H2V22H22V2H2V6H0V1L1 0H23L24 1Z" fill="black"/>
<path d="M15 17L18 14H20V15L15 20.0002L12 17V16L14 16L15 17Z" fill="black"/>
<path d="M10 15V14H4V16H9L10 15Z" fill="black"/>
<path d="M10 19.0002V18.0002H4V20.0002H9L10 19.0002Z" fill="black"/>
<path d="M15 6.99984L18 3.99985H20V4.99985L15 10L12 6.99984V5.99984L14 5.99985L15 6.99984Z" fill="black"/>
<path d="M10 4.99984V3.99984H4V5.99984H9L10 4.99984Z" fill="black"/>
<path d="M10 9V8H4V10H9L10 9Z" fill="black"/>
</svg>
