<svg width="1365" height="538" viewBox="0 0 1365 538" fill="none" xmlns="http://www.w3.org/2000/svg">
<path d="M130.318 497.083H0V7.69893H309.64V113.81H130.318V207.202H297.245V313.313H130.318V497.083Z" fill="url(#paint0_linear_64_6)" fill-opacity="0.4"/>
<path d="M708.718 497.083L684.597 405.366H525.468L500.677 497.083H355.284L515.083 5.69052H691.632L853.442 497.083H708.718ZM657.127 296.911L636.021 216.574C631.108 198.722 625.077 175.625 617.931 147.284C611.007 118.943 606.429 98.6356 604.195 86.3619C602.185 97.743 598.165 116.488 592.135 142.598C586.328 168.707 573.263 220.145 552.939 296.911H657.127Z" fill="url(#paint1_linear_64_6)" fill-opacity="0.4"/>
<path fill-rule="evenodd" clip-rule="evenodd" d="M1365 251.722C1365 334.067 1344.79 396.662 1304.36 439.509C1302.88 441.079 1301.38 442.62 1299.84 444.133L1329.83 478.451L1261.95 538L1220.67 490.755C1193.18 499.437 1161.9 503.778 1126.81 503.778C1049.98 503.778 991.019 482.243 949.924 439.174C909.053 396.104 888.618 333.397 888.618 251.052C888.618 169.6 908.941 107.45 949.589 64.6041C990.46 21.5347 1049.76 0 1127.48 0C1205.42 0 1264.5 21.3115 1304.7 63.9346C1344.9 106.558 1365 169.153 1365 251.722ZM1126.81 393.65C1060.92 393.65 1027.98 346.34 1027.98 251.722C1027.98 156.21 1061.15 108.455 1127.48 108.455C1160.09 108.455 1184.54 120.17 1200.85 143.602C1217.37 166.81 1225.64 202.85 1225.64 251.722C1225.64 289.682 1220.67 319.83 1210.75 342.165L1180.48 307.527L1112.6 367.075L1135.58 393.375C1132.72 393.558 1129.8 393.65 1126.81 393.65Z" fill="url(#paint2_linear_64_6)" fill-opacity="0.4"/>
<defs>
<linearGradient id="paint0_linear_64_6" x1="1435" y1="95" x2="-25" y2="355" gradientUnits="userSpaceOnUse">
<stop stop-color="white" stop-opacity="0.21"/>
<stop offset="1" stop-color="white" stop-opacity="0.03"/>
</linearGradient>
<linearGradient id="paint1_linear_64_6" x1="1435" y1="95" x2="-25" y2="355" gradientUnits="userSpaceOnUse">
<stop stop-color="white" stop-opacity="0.21"/>
<stop offset="1" stop-color="white" stop-opacity="0.03"/>
</linearGradient>
<linearGradient id="paint2_linear_64_6" x1="1435" y1="95" x2="-25" y2="355" gradientUnits="userSpaceOnUse">
<stop stop-color="white" stop-opacity="0.21"/>
<stop offset="1" stop-color="white" stop-opacity="0.03"/>
</linearGradient>
</defs>
</svg>
