<svg width="508" height="200" viewBox="0 0 508 200" fill="none" xmlns="http://www.w3.org/2000/svg">
<path d="M48.4994 184.789H0V2.86206H115.236V42.3087H48.4994V77.0266H110.623V116.473H48.4994V184.789Z" fill="url(#paint0_linear_64_6)" fill-opacity="0.4"/>
<path d="M263.757 184.789L254.781 150.693H195.559L186.333 184.789H132.223L191.694 2.11543H257.399L317.618 184.789H263.757ZM244.557 110.376L236.702 80.5109C234.874 73.8742 232.63 65.2881 229.97 54.7524C227.393 44.2167 225.689 36.6675 224.858 32.1048C224.11 36.3357 222.614 43.3042 220.37 53.0103C218.209 62.7164 213.346 81.8382 205.782 110.376H244.557Z" fill="url(#paint1_linear_64_6)" fill-opacity="0.4"/>
<path fill-rule="evenodd" clip-rule="evenodd" d="M508 93.5768C508 124.188 500.478 147.458 485.433 163.386C484.882 163.97 484.321 164.543 483.751 165.105L494.911 177.863L469.648 200L454.284 182.437C444.056 185.664 432.412 187.278 419.354 187.278C390.762 187.278 368.819 179.273 353.525 163.262C338.314 147.251 330.709 123.939 330.709 93.3279C330.709 63.0482 338.273 39.9444 353.4 24.0164C368.611 8.00546 390.679 0 419.604 0C448.612 0 470.597 7.9225 485.558 23.7675C500.519 39.6125 508 62.8823 508 93.5768ZM419.354 146.338C394.835 146.338 382.575 128.751 382.575 93.5768C382.575 58.0707 394.918 40.3177 419.604 40.3177C431.739 40.3177 440.84 44.673 446.908 53.3836C453.059 62.0112 456.134 75.409 456.134 93.5768C456.134 107.689 454.287 118.896 450.593 127.199L439.328 114.322L414.065 136.459L422.617 146.236C421.556 146.304 420.468 146.338 419.354 146.338Z" fill="url(#paint2_linear_64_6)" fill-opacity="0.4"/>
<defs>
<linearGradient id="paint0_linear_64_6" x1="534.051" y1="35.316" x2="-9.26683" y2="132.179" gradientUnits="userSpaceOnUse">
<stop stop-color="white" stop-opacity="0.21"/>
<stop offset="1" stop-color="white" stop-opacity="0.03"/>
</linearGradient>
<linearGradient id="paint1_linear_64_6" x1="534.051" y1="35.316" x2="-9.26683" y2="132.179" gradientUnits="userSpaceOnUse">
<stop stop-color="white" stop-opacity="0.21"/>
<stop offset="1" stop-color="white" stop-opacity="0.03"/>
</linearGradient>
<linearGradient id="paint2_linear_64_6" x1="534.051" y1="35.316" x2="-9.26683" y2="132.179" gradientUnits="userSpaceOnUse">
<stop stop-color="white" stop-opacity="0.21"/>
<stop offset="1" stop-color="white" stop-opacity="0.03"/>
</linearGradient>
</defs>
</svg>
