<svg width="937" height="1174" viewBox="0 0 937 1174" fill="none" xmlns="http://www.w3.org/2000/svg">
<path d="M19.8513 848.693C-5.85122 824.003 -6.71889 783.154 17.9714 757.415L687.393 19.8512C712.083 -5.85126 752.932 -6.71885 778.671 17.9714C804.41 42.6256 805.241 83.511 780.587 109.213L111.129 846.777C86.4391 872.516 45.5899 873.383 19.8513 848.693Z" fill="#03568E"/>
<path d="M395.846 767.067C369.023 743.57 366.311 702.793 389.808 675.969L769.923 246.33C793.385 219.506 834.161 216.831 860.984 240.292C887.808 263.79 890.518 304.567 867.021 331.39L486.943 761.03C463.446 787.853 422.669 790.564 395.846 767.067Z" fill="#03568E"/>
<path d="M30.8052 1157.92C3.98205 1134.46 1.27066 1093.68 24.768 1066.86L266.249 809.687C289.746 782.9 330.523 780.189 357.346 803.687C384.169 827.148 386.844 867.925 363.383 894.748L121.902 1151.92C98.4051 1178.7 57.6283 1181.42 30.8052 1157.92Z" fill="#03568E"/>
<path d="M48.6627 507.765C21.8396 484.303 19.1286 443.527 42.626 416.703L284.106 159.534C307.604 132.711 348.38 130.036 375.203 153.497C402.027 176.994 404.702 217.771 381.241 244.594L139.724 501.728C116.263 528.551 75.4858 531.262 48.6627 507.765Z" fill="#03568E"/>
<path d="M423.428 1094.58C396.641 1071.12 393.93 1030.35 417.427 1003.52L823.317 530.286C846.814 503.463 887.591 500.752 914.414 524.249C934.514 541.854 941.056 569.219 933.176 593.078C930.537 601.067 926.307 608.622 920.451 615.346L514.525 1088.58C491.028 1115.37 450.251 1118.08 423.428 1094.58Z" fill="#03568E"/>
</svg>
