<svg width="2082" height="1503" viewBox="0 0 2082 1503" fill="none" xmlns="http://www.w3.org/2000/svg">
<rect x="228.836" y="696.165" width="1101.67" height="1101.67" rx="200" transform="rotate(-45 228.836 696.165)" fill="#03568E" fill-opacity="0.08"/>
<g filter="url(#filter0_d_628_6051)">
<rect x="713.273" y="718.57" width="963.842" height="963.842" rx="200" transform="rotate(-45 713.273 718.57)" fill="#F2F4F6"/>
</g>
<g filter="url(#filter1_d_628_6051)">
<path d="M892.966 723.302C833.35 663.686 833.35 567.029 892.966 507.413L1195.21 205.169C1254.83 145.553 1351.48 145.553 1411.1 205.169L1713.34 507.413C1772.96 567.029 1772.96 663.686 1713.34 723.302L1411.1 1025.55C1351.48 1085.16 1254.83 1085.16 1195.21 1025.55L892.966 723.302Z" fill="#03568E"/>
</g>
<path d="M892.966 723.302C833.35 663.686 833.35 567.029 892.966 507.413L1195.21 205.169C1254.83 145.553 1351.48 145.553 1411.1 205.169L1713.34 507.413C1772.96 567.029 1772.96 663.686 1713.34 723.302L1411.1 1025.55C1351.48 1085.16 1254.83 1085.16 1195.21 1025.55L892.966 723.302Z" fill="url(#paint0_linear_628_6051)"/>
<g filter="url(#filter2_d_628_6051)">
<path d="M72.8591 1195.95C11.7136 1134.4 11.7136 1034.6 72.8591 973.054L294.286 750.162C355.432 688.613 454.568 688.613 515.714 750.162L737.141 973.054C798.286 1034.6 798.286 1134.4 737.141 1195.95L515.714 1418.84C454.568 1480.39 355.432 1480.39 294.286 1418.84L72.8591 1195.95Z" fill="#03568E"/>
</g>
<path d="M72.8591 1195.95C11.7136 1134.4 11.7136 1034.6 72.8591 973.054L294.286 750.162C355.432 688.613 454.568 688.613 515.714 750.162L737.141 973.054C798.286 1034.6 798.286 1134.4 737.141 1195.95L515.714 1418.84C454.568 1480.39 355.432 1480.39 294.286 1418.84L72.8591 1195.95Z" fill="url(#paint1_linear_628_6051)"/>
<path d="M1573.41 609.926C1572.77 610.564 1572.77 611.598 1573.41 612.236L1583.42 622.246C1584.06 622.884 1585.09 622.884 1585.73 622.246C1586.37 621.608 1586.37 620.574 1585.73 619.936L1575.72 609.926C1575.08 609.289 1574.05 609.289 1573.41 609.926Z" fill="white" fill-opacity="0.24"/>
<circle cx="1558.39" cy="594.912" r="1.6334" transform="rotate(135 1558.39 594.912)" fill="white" fill-opacity="0.24"/>
<circle cx="1549.92" cy="586.442" r="1.6334" transform="rotate(135 1549.92 586.442)" fill="white" fill-opacity="0.24"/>
<circle cx="1529.9" cy="566.422" r="1.6334" transform="rotate(135 1529.9 566.422)" fill="white" fill-opacity="0.24"/>
<circle cx="1521.43" cy="557.952" r="1.6334" transform="rotate(135 1521.43 557.952)" fill="white" fill-opacity="0.24"/>
<path d="M1575.2 652.79C1574.56 653.428 1573.53 653.428 1572.89 652.79L1544.4 624.3C1543.76 623.662 1543.76 622.628 1544.4 621.99C1545.04 621.352 1546.07 621.352 1546.71 621.99L1575.2 650.48C1575.84 651.118 1575.84 652.152 1575.2 652.79Z" fill="white" fill-opacity="0.24"/>
<path d="M1518.22 595.81C1517.58 596.448 1516.55 596.448 1515.91 595.81L1506.67 586.57C1506.03 585.932 1506.03 584.898 1506.67 584.26C1507.31 583.622 1508.34 583.622 1508.98 584.26L1518.22 593.5C1518.86 594.138 1518.86 595.172 1518.22 595.81Z" fill="white" fill-opacity="0.24"/>
<circle r="1.6334" transform="matrix(-0.707107 0.707107 0.707107 0.707107 1583.28 660.875)" fill="white" fill-opacity="0.24"/>
<circle r="1.6334" transform="matrix(-0.707107 0.707107 0.707107 0.707107 1525.53 603.125)" fill="white" fill-opacity="0.24"/>
<circle r="1.6334" transform="matrix(-0.707107 0.707107 0.707107 0.707107 1534 611.595)" fill="white" fill-opacity="0.24"/>
<path d="M1529 675.889C1529.64 675.251 1530.67 675.251 1531.31 675.889L1537.47 682.049C1538.11 682.687 1538.11 683.721 1537.47 684.359C1536.83 684.997 1535.8 684.997 1535.16 684.359L1529 678.199C1528.36 677.561 1528.36 676.527 1529 675.889Z" fill="white" fill-opacity="0.24"/>
<path d="M1498.97 645.859C1499.61 645.221 1500.64 645.221 1501.28 645.859L1511.29 655.869C1511.93 656.507 1511.93 657.541 1511.29 658.179C1510.65 658.817 1509.62 658.817 1508.98 658.179L1498.97 648.169C1498.33 647.531 1498.33 646.497 1498.97 645.859Z" fill="white" fill-opacity="0.24"/>
<circle r="1.6334" transform="matrix(0.707107 -0.707107 -0.707107 -0.707107 1521.69 668.574)" fill="white" fill-opacity="0.24"/>
<circle r="1.6334" transform="matrix(0.707107 -0.707107 -0.707107 -0.707107 1478.57 625.454)" fill="white" fill-opacity="0.24"/>
<circle r="1.6334" transform="matrix(0.707107 -0.707107 -0.707107 -0.707107 1462.4 609.285)" fill="white" fill-opacity="0.24"/>
<path d="M1545.94 646.629C1546.58 645.991 1547.62 645.991 1548.25 646.629L1603.69 702.069C1604.33 702.706 1604.33 703.741 1603.69 704.379C1603.06 705.016 1602.02 705.016 1601.38 704.379L1545.94 648.939C1545.31 648.301 1545.31 647.267 1545.94 646.629Z" fill="white" fill-opacity="0.24"/>
<circle r="1.6334" transform="matrix(0.707107 -0.707107 -0.707107 -0.707107 1534.78 635.464)" fill="white" fill-opacity="0.24"/>
<circle r="1.6334" transform="matrix(0.707107 -0.707107 -0.707107 -0.707107 1520.54 621.219)" fill="white" fill-opacity="0.24"/>
<rect x="2.82842" width="75.13" height="75.13" rx="22" transform="matrix(0.707106 -0.707108 0.707106 0.707108 1392.83 537.954)" stroke="white" stroke-opacity="0.24" stroke-width="4"/>
<g filter="url(#filter3_d_628_6051)">
<rect x="605" y="955.313" width="120.651" height="120.651" rx="24" transform="rotate(-45 605 955.313)" fill="white"/>
</g>
<rect opacity="0.32" x="2.82842" width="32.6375" height="32.6375" rx="6" transform="matrix(0.707106 -0.707108 0.707106 0.707108 1179.83 826.907)" stroke="#D7D7D7" stroke-width="4"/>
<rect x="995" y="535.528" width="83.7623" height="83.7623" rx="24" transform="rotate(-45 995 535.528)" fill="#D7D7D7" fill-opacity="0.81"/>
<g filter="url(#filter4_i_628_6051)">
<rect width="61.0625" height="61.0625" rx="20" transform="matrix(0.707107 -0.707106 0.707107 0.707106 1274 1170.18)" fill="#03568E"/>
</g>
<g opacity="0.24">
<mask id="path-30-inside-1_628_6051" fill="white">
<path d="M893.941 1069.11C888.682 1069.11 884.418 1064.85 884.418 1059.59L884.418 1034.2C884.418 1028.94 888.682 1024.68 893.941 1024.68L919.334 1024.68C924.593 1024.68 928.856 1028.94 928.856 1034.2L928.856 1059.59C928.856 1064.85 924.593 1069.11 919.334 1069.11L893.941 1069.11Z"/>
</mask>
<path d="M919.334 1069.11L919.334 1063.11L919.334 1069.11ZM919.334 1024.68L919.334 1030.68L919.334 1024.68ZM884.418 1034.2L890.418 1034.2L884.418 1034.2ZM893.941 1024.68L893.941 1018.68L893.941 1024.68ZM884.418 1059.59L878.418 1059.59L884.418 1059.59ZM893.941 1069.11L893.941 1075.11L893.941 1069.11ZM890.418 1059.59L890.418 1034.2L878.418 1034.2L878.418 1059.59L890.418 1059.59ZM893.941 1030.68L919.334 1030.68L919.334 1018.68L893.941 1018.68L893.941 1030.68ZM922.856 1034.2L922.856 1059.59L934.856 1059.59L934.856 1034.2L922.856 1034.2ZM919.334 1063.11L893.941 1063.11L893.941 1075.11L919.334 1075.11L919.334 1063.11ZM922.856 1059.59C922.856 1061.54 921.279 1063.11 919.334 1063.11L919.334 1075.11C927.907 1075.11 934.856 1068.16 934.856 1059.59L922.856 1059.59ZM919.334 1030.68C921.279 1030.68 922.856 1032.25 922.856 1034.2L934.856 1034.2C934.856 1025.63 927.907 1018.68 919.334 1018.68L919.334 1030.68ZM890.418 1034.2C890.418 1032.25 891.995 1030.68 893.941 1030.68L893.941 1018.68C885.368 1018.68 878.418 1025.63 878.418 1034.2L890.418 1034.2ZM878.418 1059.59C878.418 1068.16 885.368 1075.11 893.941 1075.11L893.941 1063.11C891.995 1063.11 890.418 1061.54 890.418 1059.59L878.418 1059.59Z" fill="#03568E" mask="url(#path-30-inside-1_628_6051)"/>
<g opacity="0.2">
<path d="M1028.25 1168.54C1029.42 1167.37 1029.42 1165.47 1028.25 1164.3L961.782 1097.83C960.61 1096.66 958.711 1096.66 957.539 1097.83C956.368 1099 956.368 1100.9 957.539 1102.07L1024.01 1168.54C1025.18 1169.71 1027.08 1169.71 1028.25 1168.54Z" fill="#03568E"/>
<circle cx="1048.75" cy="1189.05" r="3" transform="rotate(-45 1048.75 1189.05)" fill="#03568E"/>
<circle cx="1064.31" cy="1204.6" r="3" transform="rotate(-45 1064.31 1204.6)" fill="#03568E"/>
<path d="M946.225 1128.94C947.396 1127.77 947.396 1125.87 946.225 1124.7L934.911 1113.38C933.739 1112.21 931.84 1112.21 930.668 1113.38C929.497 1114.56 929.497 1116.46 930.668 1117.63L941.982 1128.94C943.153 1130.11 945.053 1130.11 946.225 1128.94Z" fill="#03568E"/>
<circle cx="954.004" cy="1136.72" r="3" transform="rotate(-45 954.004 1136.72)" fill="#03568E"/>
<path d="M1008.45 1106.31C1009.62 1105.14 1009.62 1103.24 1008.45 1102.07L984.411 1078.03C983.239 1076.86 981.34 1076.86 980.168 1078.03C978.997 1079.2 978.997 1081.1 980.168 1082.27L1004.21 1106.31C1005.38 1107.49 1007.28 1107.49 1008.45 1106.31Z" fill="#03568E"/>
<circle cx="1021.88" cy="1119.75" r="3" transform="rotate(-45 1021.88 1119.75)" fill="#03568E"/>
<circle cx="1040.98" cy="1138.84" r="3" transform="rotate(-45 1040.98 1138.84)" fill="#03568E"/>
</g>
</g>
<g opacity="0.24">
<mask id="path-40-inside-2_628_6051" fill="white">
<path d="M522.044 588.933C516.785 588.921 512.531 584.648 512.543 579.389L512.598 553.996C512.61 548.737 516.883 544.483 522.142 544.495L547.535 544.551C552.794 544.562 557.048 548.835 557.036 554.094L556.981 579.487C556.969 584.746 552.696 589 547.437 588.989L522.044 588.933Z"/>
</mask>
<path d="M547.437 588.989L547.45 582.989L547.437 588.989ZM547.535 544.551L547.522 550.551L547.535 544.551ZM512.598 553.996L518.598 554.009L512.598 553.996ZM522.142 544.495L522.155 538.495L522.142 544.495ZM512.543 579.389L506.543 579.376L512.543 579.389ZM522.044 588.933L522.031 594.933L522.044 588.933ZM518.543 579.403L518.598 554.009L506.598 553.983L506.543 579.376L518.543 579.403ZM522.129 550.495L547.522 550.551L547.548 538.551L522.155 538.495L522.129 550.495ZM551.036 554.081L550.981 579.474L562.981 579.5L563.036 554.107L551.036 554.081ZM547.45 582.989L522.057 582.933L522.031 594.933L547.424 594.989L547.45 582.989ZM550.981 579.474C550.976 581.419 549.396 582.993 547.45 582.989L547.424 594.989C555.997 595.007 562.962 588.073 562.981 579.5L550.981 579.474ZM547.522 550.551C549.467 550.555 551.041 552.135 551.036 554.081L563.036 554.107C563.055 545.534 556.121 538.569 547.548 538.551L547.522 550.551ZM518.598 554.009C518.603 552.064 520.183 550.49 522.129 550.495L522.155 538.495C513.582 538.476 506.617 545.41 506.598 553.983L518.598 554.009ZM506.543 579.376C506.524 587.949 513.458 594.914 522.031 594.933L522.057 582.933C520.112 582.928 518.538 581.348 518.543 579.403L506.543 579.376Z" fill="#03568E" mask="url(#path-40-inside-2_628_6051)"/>
<g opacity="0.2">
<path d="M656.134 688.652C657.308 687.483 657.313 685.583 656.144 684.409L589.822 617.795C588.653 616.621 586.753 616.617 585.579 617.786C584.405 618.955 584.401 620.855 585.57 622.029L651.892 688.643C653.061 689.817 654.96 689.821 656.134 688.652Z" fill="#03568E"/>
<circle cx="676.594" cy="709.203" r="3" transform="rotate(-44.8741 676.594 709.203)" fill="#03568E"/>
<circle cx="692.118" cy="724.793" r="3" transform="rotate(-44.8741 692.118 724.793)" fill="#03568E"/>
<path d="M574.195 648.874C575.369 647.705 575.373 645.805 574.204 644.631L562.915 633.293C561.746 632.119 559.847 632.114 558.673 633.283C557.499 634.452 557.495 636.352 558.664 637.526L569.952 648.865C571.121 650.039 573.021 650.043 574.195 648.874Z" fill="#03568E"/>
<circle cx="581.957" cy="656.669" r="3" transform="rotate(-44.8741 581.957 656.669)" fill="#03568E"/>
<path d="M636.473 626.383C637.647 625.214 637.651 623.315 636.482 622.141L612.494 598.046C611.325 596.872 609.425 596.868 608.251 598.037C607.077 599.206 607.073 601.105 608.242 602.279L632.23 626.374C633.399 627.548 635.299 627.552 636.473 626.383Z" fill="#03568E"/>
<circle cx="649.875" cy="639.848" r="3" transform="rotate(-44.8741 649.875 639.848)" fill="#03568E"/>
<circle cx="668.926" cy="658.981" r="3" transform="rotate(-44.8741 668.926 658.981)" fill="#03568E"/>
</g>
</g>
<defs>
<filter id="filter0_d_628_6051" x="724.117" y="79.8733" width="1357.39" height="1357.39" filterUnits="userSpaceOnUse" color-interpolation-filters="sRGB">
<feFlood flood-opacity="0" result="BackgroundImageFix"/>
<feColorMatrix in="SourceAlpha" type="matrix" values="0 0 0 0 0 0 0 0 0 0 0 0 0 0 0 0 0 0 127 0" result="hardAlpha"/>
<feOffset dx="8" dy="40"/>
<feGaussianBlur stdDeviation="40"/>
<feComposite in2="hardAlpha" operator="out"/>
<feColorMatrix type="matrix" values="0 0 0 0 0 0 0 0 0 0 0 0 0 0 0 0 0 0 0.08 0"/>
<feBlend mode="normal" in2="BackgroundImageFix" result="effect1_dropShadow_628_6051"/>
<feBlend mode="normal" in="SourceGraphic" in2="effect1_dropShadow_628_6051" result="shape"/>
</filter>
<filter id="filter1_d_628_6051" x="816.254" y="144.457" width="957.801" height="957.8" filterUnits="userSpaceOnUse" color-interpolation-filters="sRGB">
<feFlood flood-opacity="0" result="BackgroundImageFix"/>
<feColorMatrix in="SourceAlpha" type="matrix" values="0 0 0 0 0 0 0 0 0 0 0 0 0 0 0 0 0 0 127 0" result="hardAlpha"/>
<feOffset dx="-8" dy="8"/>
<feGaussianBlur stdDeviation="12"/>
<feComposite in2="hardAlpha" operator="out"/>
<feColorMatrix type="matrix" values="0 0 0 0 0 0 0 0 0 0 0 0 0 0 0 0 0 0 0.4 0"/>
<feBlend mode="normal" in2="BackgroundImageFix" result="effect1_dropShadow_628_6051"/>
<feBlend mode="normal" in="SourceGraphic" in2="effect1_dropShadow_628_6051" result="shape"/>
</filter>
<filter id="filter2_d_628_6051" x="0" y="694" width="804" height="809" filterUnits="userSpaceOnUse" color-interpolation-filters="sRGB">
<feFlood flood-opacity="0" result="BackgroundImageFix"/>
<feColorMatrix in="SourceAlpha" type="matrix" values="0 0 0 0 0 0 0 0 0 0 0 0 0 0 0 0 0 0 127 0" result="hardAlpha"/>
<feOffset dx="-3" dy="14"/>
<feGaussianBlur stdDeviation="12"/>
<feComposite in2="hardAlpha" operator="out"/>
<feColorMatrix type="matrix" values="0 0 0 0 0 0 0 0 0 0 0 0 0 0 0 0 0 0 0.21 0"/>
<feBlend mode="normal" in2="BackgroundImageFix" result="effect1_dropShadow_628_6051"/>
<feBlend mode="normal" in="SourceGraphic" in2="effect1_dropShadow_628_6051" result="shape"/>
</filter>
<filter id="filter3_d_628_6051" x="605.941" y="879.941" width="174.742" height="182.744" filterUnits="userSpaceOnUse" color-interpolation-filters="sRGB">
<feFlood flood-opacity="0" result="BackgroundImageFix"/>
<feColorMatrix in="SourceAlpha" type="matrix" values="0 0 0 0 0 0 0 0 0 0 0 0 0 0 0 0 0 0 127 0" result="hardAlpha"/>
<feOffset dx="3" dy="20"/>
<feGaussianBlur stdDeviation="6"/>
<feComposite in2="hardAlpha" operator="out"/>
<feColorMatrix type="matrix" values="0 0 0 0 0 0 0 0 0 0 0 0 0 0 0 0 0 0 0.09 0"/>
<feBlend mode="normal" in2="BackgroundImageFix" result="effect1_dropShadow_628_6051"/>
<feBlend mode="normal" in="SourceGraphic" in2="effect1_dropShadow_628_6051" result="shape"/>
</filter>
<filter id="filter4_i_628_6051" x="1282.29" y="1135.28" width="69.7852" height="73.7869" filterUnits="userSpaceOnUse" color-interpolation-filters="sRGB">
<feFlood flood-opacity="0" result="BackgroundImageFix"/>
<feBlend mode="normal" in="SourceGraphic" in2="BackgroundImageFix" result="shape"/>
<feColorMatrix in="SourceAlpha" type="matrix" values="0 0 0 0 0 0 0 0 0 0 0 0 0 0 0 0 0 0 127 0" result="hardAlpha"/>
<feOffset dy="4"/>
<feGaussianBlur stdDeviation="2"/>
<feComposite in2="hardAlpha" operator="arithmetic" k2="-1" k3="1"/>
<feColorMatrix type="matrix" values="0 0 0 0 0 0 0 0 0 0 0 0 0 0 0 0 0 0 0.25 0"/>
<feBlend mode="normal" in2="shape" result="effect1_innerShadow_628_6051"/>
</filter>
<linearGradient id="paint0_linear_628_6051" x1="1560" y1="317" x2="1066" y2="965" gradientUnits="userSpaceOnUse">
<stop stop-color="white" stop-opacity="0.22"/>
<stop offset="1" stop-color="white" stop-opacity="0"/>
</linearGradient>
<linearGradient id="paint1_linear_628_6051" x1="618.427" y1="834.94" x2="204.508" y2="1374.33" gradientUnits="userSpaceOnUse">
<stop stop-color="white" stop-opacity="0.22"/>
<stop offset="1" stop-color="white" stop-opacity="0"/>
</linearGradient>
</defs>
</svg>
