<svg width="2600" height="1864" viewBox="0 0 2600 1864" fill="none" xmlns="http://www.w3.org/2000/svg">
<rect x="300.93" y="933.023" width="1432.63" height="1432.63" rx="200" transform="rotate(-45 300.93 933.023)" fill="#03568E" fill-opacity="0.05"/>
<g filter="url(#filter0_d_615_4185)">
<rect x="809" y="850.907" width="1262.76" height="1262.76" rx="200" transform="rotate(-45 809 850.907)" fill="#F2F4F6"/>
</g>
<g filter="url(#filter1_d_615_4185)">
<path d="M1044.42 857.107C966.316 779.002 966.316 652.369 1044.42 574.264L1440.4 178.284C1518.51 100.179 1645.14 100.179 1723.24 178.284L2119.22 574.264C2197.33 652.369 2197.33 779.002 2119.22 857.107L1723.24 1253.09C1645.14 1331.19 1518.51 1331.19 1440.4 1253.09L1044.42 857.107Z" fill="#03568E"/>
</g>
<g filter="url(#filter2_d_615_4185)">
<path d="M81.0756 1395.11C3.43054 1317 3.43054 1190.37 81.0756 1112.26L362.253 829.421C439.898 751.316 565.785 751.316 643.431 829.421L924.608 1112.26C1002.25 1190.37 1002.25 1317 924.608 1395.11L643.431 1677.95C565.785 1756.05 439.898 1756.05 362.253 1677.95L81.0756 1395.11Z" fill="#03568E"/>
</g>
<path d="M1593 746.799C1594.66 746.799 1596 748.142 1596 749.799V823.799C1596 825.456 1594.66 826.799 1593 826.799C1591.34 826.799 1590 825.456 1590 823.799V749.799C1590 748.142 1591.34 746.799 1593 746.799Z" fill="white" fill-opacity="0.24"/>
<path d="M1593 874.799C1594.66 874.799 1596 876.142 1596 877.799V901.799C1596 903.456 1594.66 904.799 1593 904.799C1591.34 904.799 1590 903.456 1590 901.799V877.799C1590 876.142 1591.34 874.799 1593 874.799Z" fill="white" fill-opacity="0.24"/>
<circle r="3" transform="matrix(1 0 0 -1 1593 715.799)" fill="white" fill-opacity="0.24"/>
<circle r="3" transform="matrix(1 0 0 -1 1593 685.799)" fill="white" fill-opacity="0.24"/>
<circle r="3" transform="matrix(1 0 0 -1 1593 853.799)" fill="white" fill-opacity="0.24"/>
<path d="M1653 870.799C1651.34 870.799 1650 869.456 1650 867.799V793.799C1650 792.142 1651.34 790.799 1653 790.799C1654.66 790.799 1656 792.142 1656 793.799V867.799C1656 869.456 1654.66 870.799 1653 870.799Z" fill="white" fill-opacity="0.24"/>
<path d="M1653 722.799C1651.34 722.799 1650 721.456 1650 719.799V695.799C1650 694.142 1651.34 692.799 1653 692.799C1654.66 692.799 1656 694.142 1656 695.799V719.799C1656 721.456 1654.66 722.799 1653 722.799Z" fill="white" fill-opacity="0.24"/>
<circle r="3" transform="matrix(-1 0 0 1 1653 891.799)" fill="white" fill-opacity="0.24"/>
<circle r="3" transform="matrix(-1 0 0 1 1653 741.799)" fill="white" fill-opacity="0.24"/>
<circle r="3" transform="matrix(-1 0 0 1 1653 763.799)" fill="white" fill-opacity="0.24"/>
<path d="M1563 840.799C1564.66 840.799 1566 842.142 1566 843.799V859.799C1566 861.456 1564.66 862.799 1563 862.799C1561.34 862.799 1560 861.456 1560 859.799V843.799C1560 842.142 1561.34 840.799 1563 840.799Z" fill="white" fill-opacity="0.24"/>
<path d="M1563 762.799C1564.66 762.799 1566 764.142 1566 765.799V791.799C1566 793.456 1564.66 794.799 1563 794.799C1561.34 794.799 1560 793.456 1560 791.799V765.799C1560 764.142 1561.34 762.799 1563 762.799Z" fill="white" fill-opacity="0.24"/>
<circle r="3" transform="matrix(1 0 0 -1 1563 821.799)" fill="white" fill-opacity="0.24"/>
<circle r="3" transform="matrix(1 0 0 -1 1563 709.799)" fill="white" fill-opacity="0.24"/>
<circle r="3" transform="matrix(1 0 0 -1 1563 667.799)" fill="white" fill-opacity="0.24"/>
<path d="M1683 812.799C1681.34 812.799 1680 814.142 1680 815.799V841.799C1680 843.456 1681.34 844.799 1683 844.799C1684.66 844.799 1686 843.456 1686 841.799V815.799C1686 814.142 1684.66 812.799 1683 812.799Z" fill="white" fill-opacity="0.24"/>
<circle cx="1683" cy="773.799" r="3" transform="rotate(-180 1683 773.799)" fill="white" fill-opacity="0.24"/>
<circle cx="1683" cy="751.799" r="3" transform="rotate(-180 1683 751.799)" fill="white" fill-opacity="0.24"/>
<circle cx="1683" cy="699.799" r="3" transform="rotate(-180 1683 699.799)" fill="white" fill-opacity="0.24"/>
<circle cx="1683" cy="677.799" r="3" transform="rotate(-180 1683 677.799)" fill="white" fill-opacity="0.24"/>
<path d="M1623 824.799C1624.66 824.799 1626 826.142 1626 827.799V971.799C1626 973.456 1624.66 974.799 1623 974.799C1621.34 974.799 1620 973.456 1620 971.799V827.799C1620 826.142 1621.34 824.799 1623 824.799Z" fill="white" fill-opacity="0.24"/>
<circle r="3" transform="matrix(1 0 0 -1 1623 795.799)" fill="white" fill-opacity="0.24"/>
<circle r="3" transform="matrix(1 0 0 -1 1623 758.799)" fill="white" fill-opacity="0.24"/>
<rect x="1548.24" y="572.196" width="106" height="106" rx="29" transform="rotate(-45 1548.24 572.196)" stroke="white" stroke-opacity="0.24" stroke-width="6"/>
<path d="M509 1267.8C510.657 1267.8 512 1269.14 512 1270.8V1344.8C512 1346.46 510.657 1347.8 509 1347.8C507.343 1347.8 506 1346.46 506 1344.8V1270.8C506 1269.14 507.343 1267.8 509 1267.8Z" fill="#D7D7D7"/>
<path d="M509 1387.8C510.657 1387.8 512 1389.14 512 1390.8V1414.8C512 1416.46 510.657 1417.8 509 1417.8C507.343 1417.8 506 1416.46 506 1414.8V1390.8C506 1389.14 507.343 1387.8 509 1387.8Z" fill="#D7D7D7"/>
<circle r="3" transform="matrix(1 0 0 -1 509 1236.8)" fill="#D7D7D7"/>
<path d="M569 1361.8C567.343 1361.8 566 1360.46 566 1358.8V1284.8C566 1283.14 567.343 1281.8 569 1281.8C570.657 1281.8 572 1283.14 572 1284.8V1358.8C572 1360.46 570.657 1361.8 569 1361.8Z" fill="#D7D7D7"/>
<path d="M569 1243.8C567.343 1243.8 566 1242.46 566 1240.8V1216.8C566 1215.14 567.343 1213.8 569 1213.8C570.657 1213.8 572 1215.14 572 1216.8V1240.8C572 1242.46 570.657 1243.8 569 1243.8Z" fill="#D7D7D7"/>
<path d="M479 1304C480.657 1304 482 1305.34 482 1307V1323C482 1324.66 480.657 1326 479 1326C477.343 1326 476 1324.66 476 1323V1307C476 1305.34 477.343 1304 479 1304Z" fill="#D7D7D7"/>
<path d="M479 1180C480.657 1180 482 1181.34 482 1183V1209C482 1210.66 480.657 1212 479 1212C477.343 1212 476 1210.66 476 1209V1183C476 1181.34 477.343 1180 479 1180Z" fill="#D7D7D7"/>
<circle r="3" transform="matrix(1 0 0 -1 479 1269)" fill="#D7D7D7"/>
<path d="M599 1296C597.343 1296 596 1297.34 596 1299V1325C596 1326.66 597.343 1328 599 1328C600.657 1328 602 1326.66 602 1325V1299C602 1297.34 600.657 1296 599 1296Z" fill="#D7D7D7"/>
<circle cx="599" cy="1235" r="3" transform="rotate(-180 599 1235)" fill="#D7D7D7"/>
<circle cx="599" cy="1183" r="3" transform="rotate(-180 599 1183)" fill="#D7D7D7"/>
<path d="M539 1345.8C540.657 1345.8 542 1347.14 542 1348.8V1492.8C542 1494.46 540.657 1495.8 539 1495.8C537.343 1495.8 536 1494.46 536 1492.8V1348.8C536 1347.14 537.343 1345.8 539 1345.8Z" fill="#D7D7D7"/>
<circle r="3" transform="matrix(1 0 0 -1 539 1279.8)" fill="#D7D7D7"/>
<rect x="464.243" y="1093.2" width="106" height="106" rx="29" transform="rotate(-45 464.243 1093.2)" stroke="#D7D7D7" stroke-width="6"/>
<circle r="3" transform="matrix(1 0 0 -1 696 984.799)" fill="#D7D7D7"/>
<path d="M756 991.799C754.343 991.799 753 990.456 753 988.799V964.799C753 963.142 754.343 961.799 756 961.799C757.657 961.799 759 963.142 759 964.799V988.799C759 990.456 757.657 991.799 756 991.799Z" fill="white"/>
<circle r="3" transform="matrix(1 0 0 -1 666 1017)" fill="white"/>
<circle cx="786" cy="983" r="3" transform="rotate(-180 786 983)" fill="white"/>
<circle cx="786" cy="931" r="3" transform="rotate(-180 786 931)" fill="white"/>
<circle r="3" transform="matrix(1 0 0 -1 726 1027.8)" fill="white"/>
<g filter="url(#filter3_d_615_4185)">
<rect x="652" y="881.196" width="96" height="96" rx="24" transform="rotate(-45 652 881.196)" fill="white"/>
</g>
<rect x="1282.83" y="853.941" width="44" height="44" rx="6" transform="rotate(-45 1282.83 853.941)" stroke="#D7D7D7" stroke-width="4"/>
<rect x="1178.1" y="611.098" width="109.74" height="109.74" rx="24" transform="rotate(-45 1178.1 611.098)" fill="#D7D7D7" fill-opacity="0.81"/>
<rect x="1487" y="1411.57" width="80" height="80" rx="24" transform="rotate(-45 1487 1411.57)" fill="#03568E"/>
<g opacity="0.48">
<mask id="path-53-inside-1_615_4185" fill="white">
<path d="M803.697 550.234C797.476 544.013 797.476 533.926 803.697 527.705L833.736 497.666C839.957 491.445 850.044 491.445 856.265 497.666L886.304 527.705C892.525 533.926 892.525 544.013 886.304 550.234L856.265 580.273C850.044 586.494 839.957 586.494 833.736 580.273L803.697 550.234Z"/>
</mask>
<path d="M833.736 580.273L837.979 576.03L833.736 580.273ZM886.304 527.705L882.061 531.947L886.304 527.705ZM833.736 497.666L837.979 501.909L833.736 497.666ZM856.265 497.666L860.508 493.423L856.265 497.666ZM803.697 527.705L799.455 523.462L803.697 527.705ZM803.697 550.234L799.455 554.476L803.697 550.234ZM807.94 531.947L837.979 501.909L829.493 493.423L799.455 523.462L807.94 531.947ZM852.022 501.909L882.061 531.947L890.546 523.462L860.508 493.423L852.022 501.909ZM882.061 545.991L852.022 576.03L860.508 584.515L890.546 554.476L882.061 545.991ZM837.979 576.03L807.94 545.991L799.455 554.476L829.493 584.515L837.979 576.03ZM852.022 576.03C848.144 579.908 841.857 579.908 837.979 576.03L829.493 584.515C838.058 593.08 851.943 593.08 860.508 584.515L852.022 576.03ZM882.061 531.947C885.939 535.825 885.939 542.113 882.061 545.991L890.546 554.476C899.111 545.912 899.111 532.026 890.546 523.462L882.061 531.947ZM837.979 501.909C841.857 498.03 848.144 498.03 852.022 501.909L860.508 493.423C851.943 484.859 838.058 484.859 829.493 493.423L837.979 501.909ZM799.455 523.462C790.89 532.026 790.89 545.912 799.455 554.476L807.94 545.991C804.062 542.113 804.062 535.825 807.94 531.947L799.455 523.462Z" fill="#03568E" mask="url(#path-53-inside-1_615_4185)"/>
<path d="M843.76 766.262C845.876 766.262 847.591 764.546 847.591 762.431V621.969C847.591 619.854 845.876 618.138 843.76 618.138C841.645 618.138 839.93 619.854 839.93 621.969V762.431C839.93 764.546 841.645 766.262 843.76 766.262Z" fill="#03568E"/>
<circle cx="843.76" cy="793.077" r="3.83077" fill="#03568E"/>
<circle cx="843.76" cy="821.169" r="3.83077" fill="#03568E"/>
<path d="M805.454 636.016C807.569 636.016 809.285 634.3 809.285 632.185V604.092C809.285 601.977 807.569 600.262 805.454 600.262C803.338 600.262 801.623 601.977 801.623 604.092V632.185C801.623 634.3 803.338 636.016 805.454 636.016Z" fill="#03568E"/>
<circle cx="805.454" cy="650.062" r="3.83077" fill="#03568E"/>
<circle cx="805.454" cy="678.154" r="3.83077" fill="#03568E"/>
<path d="M882.067 661.554C884.183 661.554 885.898 659.839 885.898 657.723V614.308C885.898 612.192 884.183 610.477 882.067 610.477C879.951 610.477 878.236 612.192 878.236 614.308V657.723C878.236 659.839 879.951 661.554 882.067 661.554Z" fill="#03568E"/>
<circle cx="882.067" cy="685.816" r="3.83077" fill="#03568E"/>
<circle cx="882.067" cy="713.908" r="3.83077" fill="#03568E"/>
<circle cx="882.067" cy="730.508" r="3.83077" fill="#03568E"/>
</g>
<g opacity="0.24">
<mask id="path-65-inside-2_615_4185" fill="white">
<path d="M1077.65 1356.82C1072.78 1351.95 1072.78 1344.05 1077.65 1339.18L1101.18 1315.65C1106.05 1310.78 1113.95 1310.78 1118.82 1315.65L1142.35 1339.18C1147.22 1344.05 1147.22 1351.95 1142.35 1356.82L1118.82 1380.35C1113.95 1385.22 1106.05 1385.22 1101.18 1380.35L1077.65 1356.82Z"/>
</mask>
<path d="M1101.18 1380.35L1105.42 1376.1L1101.18 1380.35ZM1142.35 1339.18L1138.1 1343.42L1142.35 1339.18ZM1101.18 1315.65L1105.42 1319.9L1101.18 1315.65ZM1118.82 1315.65L1123.06 1311.41L1118.82 1315.65ZM1077.65 1339.18L1073.41 1334.94L1077.65 1339.18ZM1077.65 1356.82L1073.41 1361.06L1077.65 1356.82ZM1081.9 1343.42L1105.42 1319.9L1096.94 1311.41L1073.41 1334.94L1081.9 1343.42ZM1114.58 1319.9L1138.1 1343.42L1146.59 1334.94L1123.06 1311.41L1114.58 1319.9ZM1138.1 1352.58L1114.58 1376.1L1123.06 1384.59L1146.59 1361.06L1138.1 1352.58ZM1105.42 1376.1L1081.9 1352.58L1073.41 1361.06L1096.94 1384.59L1105.42 1376.1ZM1114.58 1376.1C1112.05 1378.63 1107.95 1378.63 1105.42 1376.1L1096.94 1384.59C1104.15 1391.8 1115.85 1391.8 1123.06 1384.59L1114.58 1376.1ZM1138.1 1343.42C1140.63 1345.95 1140.63 1350.05 1138.1 1352.58L1146.59 1361.06C1153.8 1353.85 1153.8 1342.15 1146.59 1334.94L1138.1 1343.42ZM1105.42 1319.9C1107.95 1317.37 1112.05 1317.37 1114.58 1319.9L1123.06 1311.41C1115.85 1304.2 1104.15 1304.2 1096.94 1311.41L1105.42 1319.9ZM1073.41 1334.94C1066.2 1342.15 1066.2 1353.85 1073.41 1361.06L1081.9 1352.58C1079.37 1350.05 1079.37 1345.95 1081.9 1343.42L1073.41 1334.94Z" fill="#03568E" mask="url(#path-65-inside-2_615_4185)"/>
<path d="M1109.03 1510C1110.69 1510 1112.03 1508.66 1112.03 1507V1413C1112.03 1411.34 1110.69 1410 1109.03 1410C1107.37 1410 1106.03 1411.34 1106.03 1413V1507C1106.03 1508.66 1107.37 1510 1109.03 1510Z" fill="#03568E"/>
<circle cx="1109.03" cy="1539" r="3" fill="#03568E"/>
<circle cx="1109.03" cy="1561" r="3" fill="#03568E"/>
<path d="M1079.03 1424C1080.69 1424 1082.03 1422.66 1082.03 1421V1405C1082.03 1403.34 1080.69 1402 1079.03 1402C1077.37 1402 1076.03 1403.34 1076.03 1405V1421C1076.03 1422.66 1077.37 1424 1079.03 1424Z" fill="#03568E"/>
<circle cx="1079.03" cy="1435" r="3" fill="#03568E"/>
<path d="M1139.03 1452C1140.69 1452 1142.03 1450.66 1142.03 1449V1415C1142.03 1413.34 1140.69 1412 1139.03 1412C1137.37 1412 1136.03 1413.34 1136.03 1415V1449C1136.03 1450.66 1137.37 1452 1139.03 1452Z" fill="#03568E"/>
<circle cx="1139.03" cy="1471" r="3" fill="#03568E"/>
<circle cx="1139.03" cy="1498" r="3" fill="#03568E"/>
</g>
<defs>
<filter id="filter0_d_615_4185" x="819.842" y="0.842773" width="1780.13" height="1780.13" filterUnits="userSpaceOnUse" color-interpolation-filters="sRGB">
<feFlood flood-opacity="0" result="BackgroundImageFix"/>
<feColorMatrix in="SourceAlpha" type="matrix" values="0 0 0 0 0 0 0 0 0 0 0 0 0 0 0 0 0 0 127 0" result="hardAlpha"/>
<feOffset dx="8" dy="40"/>
<feGaussianBlur stdDeviation="40"/>
<feComposite in2="hardAlpha" operator="out"/>
<feColorMatrix type="matrix" values="0 0 0 0 0 0 0 0 0 0 0 0 0 0 0 0 0 0 0.08 0"/>
<feBlend mode="normal" in2="BackgroundImageFix" result="effect1_dropShadow_615_4185"/>
<feBlend mode="normal" in="SourceGraphic" in2="effect1_dropShadow_615_4185" result="shape"/>
</filter>
<filter id="filter1_d_615_4185" x="985.842" y="97.7056" width="1315.96" height="1255.96" filterUnits="userSpaceOnUse" color-interpolation-filters="sRGB">
<feFlood flood-opacity="0" result="BackgroundImageFix"/>
<feColorMatrix in="SourceAlpha" type="matrix" values="0 0 0 0 0 0 0 0 0 0 0 0 0 0 0 0 0 0 127 0" result="hardAlpha"/>
<feOffset dx="92" dy="10"/>
<feGaussianBlur stdDeviation="16"/>
<feComposite in2="hardAlpha" operator="out"/>
<feColorMatrix type="matrix" values="0 0 0 0 0 0 0 0 0 0 0 0 0 0 0 0 0 0 0.16 0"/>
<feBlend mode="normal" in2="BackgroundImageFix" result="effect1_dropShadow_615_4185"/>
<feBlend mode="normal" in="SourceGraphic" in2="effect1_dropShadow_615_4185" result="shape"/>
</filter>
<filter id="filter2_d_615_4185" x="0.841797" y="770.843" width="1028" height="1054.69" filterUnits="userSpaceOnUse" color-interpolation-filters="sRGB">
<feFlood flood-opacity="0" result="BackgroundImageFix"/>
<feColorMatrix in="SourceAlpha" type="matrix" values="0 0 0 0 0 0 0 0 0 0 0 0 0 0 0 0 0 0 127 0" result="hardAlpha"/>
<feOffset dx="12" dy="55"/>
<feGaussianBlur stdDeviation="17"/>
<feComposite in2="hardAlpha" operator="out"/>
<feColorMatrix type="matrix" values="0 0 0 0 0 0 0 0 0 0 0 0 0 0 0 0 0 0 0.08 0"/>
<feBlend mode="normal" in2="BackgroundImageFix" result="effect1_dropShadow_615_4185"/>
<feBlend mode="normal" in="SourceGraphic" in2="effect1_dropShadow_615_4185" result="shape"/>
</filter>
<filter id="filter3_d_615_4185" x="652.941" y="823.255" width="139.883" height="147.882" filterUnits="userSpaceOnUse" color-interpolation-filters="sRGB">
<feFlood flood-opacity="0" result="BackgroundImageFix"/>
<feColorMatrix in="SourceAlpha" type="matrix" values="0 0 0 0 0 0 0 0 0 0 0 0 0 0 0 0 0 0 127 0" result="hardAlpha"/>
<feOffset dx="3" dy="20"/>
<feGaussianBlur stdDeviation="6"/>
<feComposite in2="hardAlpha" operator="out"/>
<feColorMatrix type="matrix" values="0 0 0 0 0 0 0 0 0 0 0 0 0 0 0 0 0 0 0.09 0"/>
<feBlend mode="normal" in2="BackgroundImageFix" result="effect1_dropShadow_615_4185"/>
<feBlend mode="normal" in="SourceGraphic" in2="effect1_dropShadow_615_4185" result="shape"/>
</filter>
</defs>
</svg>
