<svg width="2687" height="2304" viewBox="0 0 2687 2304" fill="none" xmlns="http://www.w3.org/2000/svg">
<rect x="-31.2852" y="1152.28" width="1745.85" height="1745.85" rx="200" transform="rotate(-45 -31.2852 1152.28)" fill="#03568E" fill-opacity="0.1"/>
<g filter="url(#filter0_d_615_4185)">
<rect x="550.32" y="1094.68" width="1506.65" height="1506.65" rx="200" transform="rotate(-45 550.32 1094.68)" fill="#F2F4F6"/>
</g>
<g filter="url(#filter1_d_615_4185)">
<path d="M1044.42 1187.11C966.316 1109 966.316 982.369 1044.42 904.264L1440.4 508.284C1518.51 430.179 1645.14 430.179 1723.24 508.284L2119.22 904.264C2197.33 982.369 2197.33 1109 2119.22 1187.11L1723.24 1583.09C1645.14 1661.19 1518.51 1661.19 1440.4 1583.09L1044.42 1187.11Z" fill="#03568E"/>
</g>
<g filter="url(#filter2_d_615_4185)">
<path d="M81.0756 1725.11C3.43054 1647 3.43054 1520.37 81.0756 1442.26L362.253 1159.42C439.898 1081.32 565.785 1081.32 643.431 1159.42L924.608 1442.26C1002.25 1520.37 1002.25 1647 924.608 1725.11L643.431 2007.95C565.785 2086.05 439.898 2086.05 362.253 2007.95L81.0756 1725.11Z" fill="#03568E"/>
</g>
<path d="M1593 1076.8C1594.66 1076.8 1596 1078.14 1596 1079.8V1153.8C1596 1155.46 1594.66 1156.8 1593 1156.8C1591.34 1156.8 1590 1155.46 1590 1153.8V1079.8C1590 1078.14 1591.34 1076.8 1593 1076.8Z" fill="white" fill-opacity="0.24"/>
<path d="M1593 1204.8C1594.66 1204.8 1596 1206.14 1596 1207.8V1231.8C1596 1233.46 1594.66 1234.8 1593 1234.8C1591.34 1234.8 1590 1233.46 1590 1231.8V1207.8C1590 1206.14 1591.34 1204.8 1593 1204.8Z" fill="white" fill-opacity="0.24"/>
<circle r="3" transform="matrix(1 0 0 -1 1593 1045.8)" fill="white" fill-opacity="0.24"/>
<circle r="3" transform="matrix(1 0 0 -1 1593 1015.8)" fill="white" fill-opacity="0.24"/>
<circle r="3" transform="matrix(1 0 0 -1 1593 1183.8)" fill="white" fill-opacity="0.24"/>
<path d="M1653 1200.8C1651.34 1200.8 1650 1199.46 1650 1197.8V1123.8C1650 1122.14 1651.34 1120.8 1653 1120.8C1654.66 1120.8 1656 1122.14 1656 1123.8V1197.8C1656 1199.46 1654.66 1200.8 1653 1200.8Z" fill="white" fill-opacity="0.24"/>
<path d="M1653 1052.8C1651.34 1052.8 1650 1051.46 1650 1049.8V1025.8C1650 1024.14 1651.34 1022.8 1653 1022.8C1654.66 1022.8 1656 1024.14 1656 1025.8V1049.8C1656 1051.46 1654.66 1052.8 1653 1052.8Z" fill="white" fill-opacity="0.24"/>
<circle r="3" transform="matrix(-1 0 0 1 1653 1221.8)" fill="white" fill-opacity="0.24"/>
<circle r="3" transform="matrix(-1 0 0 1 1653 1071.8)" fill="white" fill-opacity="0.24"/>
<circle r="3" transform="matrix(-1 0 0 1 1653 1093.8)" fill="white" fill-opacity="0.24"/>
<path d="M1563 1170.8C1564.66 1170.8 1566 1172.14 1566 1173.8V1189.8C1566 1191.46 1564.66 1192.8 1563 1192.8C1561.34 1192.8 1560 1191.46 1560 1189.8V1173.8C1560 1172.14 1561.34 1170.8 1563 1170.8Z" fill="white" fill-opacity="0.24"/>
<path d="M1563 1092.8C1564.66 1092.8 1566 1094.14 1566 1095.8V1121.8C1566 1123.46 1564.66 1124.8 1563 1124.8C1561.34 1124.8 1560 1123.46 1560 1121.8V1095.8C1560 1094.14 1561.34 1092.8 1563 1092.8Z" fill="white" fill-opacity="0.24"/>
<circle r="3" transform="matrix(1 0 0 -1 1563 1151.8)" fill="white" fill-opacity="0.24"/>
<circle r="3" transform="matrix(1 0 0 -1 1563 1039.8)" fill="white" fill-opacity="0.24"/>
<circle r="3" transform="matrix(1 0 0 -1 1563 997.799)" fill="white" fill-opacity="0.24"/>
<path d="M1683 1142.8C1681.34 1142.8 1680 1144.14 1680 1145.8V1171.8C1680 1173.46 1681.34 1174.8 1683 1174.8C1684.66 1174.8 1686 1173.46 1686 1171.8V1145.8C1686 1144.14 1684.66 1142.8 1683 1142.8Z" fill="white" fill-opacity="0.24"/>
<circle cx="1683" cy="1103.8" r="3" transform="rotate(-180 1683 1103.8)" fill="white" fill-opacity="0.24"/>
<circle cx="1683" cy="1081.8" r="3" transform="rotate(-180 1683 1081.8)" fill="white" fill-opacity="0.24"/>
<circle cx="1683" cy="1029.8" r="3" transform="rotate(-180 1683 1029.8)" fill="white" fill-opacity="0.24"/>
<circle cx="1683" cy="1007.8" r="3" transform="rotate(-180 1683 1007.8)" fill="white" fill-opacity="0.24"/>
<path d="M1623 1154.8C1624.66 1154.8 1626 1156.14 1626 1157.8V1301.8C1626 1303.46 1624.66 1304.8 1623 1304.8C1621.34 1304.8 1620 1303.46 1620 1301.8V1157.8C1620 1156.14 1621.34 1154.8 1623 1154.8Z" fill="white" fill-opacity="0.24"/>
<circle r="3" transform="matrix(1 0 0 -1 1623 1125.8)" fill="white" fill-opacity="0.24"/>
<circle r="3" transform="matrix(1 0 0 -1 1623 1088.8)" fill="white" fill-opacity="0.24"/>
<rect x="1548.24" y="902.196" width="106" height="106" rx="29" transform="rotate(-45 1548.24 902.196)" stroke="white" stroke-opacity="0.24" stroke-width="6"/>
<path d="M509 1597.8C510.657 1597.8 512 1599.14 512 1600.8V1674.8C512 1676.46 510.657 1677.8 509 1677.8C507.343 1677.8 506 1676.46 506 1674.8V1600.8C506 1599.14 507.343 1597.8 509 1597.8Z" fill="#D7D7D7"/>
<path d="M509 1717.8C510.657 1717.8 512 1719.14 512 1720.8V1744.8C512 1746.46 510.657 1747.8 509 1747.8C507.343 1747.8 506 1746.46 506 1744.8V1720.8C506 1719.14 507.343 1717.8 509 1717.8Z" fill="#D7D7D7"/>
<circle r="3" transform="matrix(1 0 0 -1 509 1566.8)" fill="#D7D7D7"/>
<path d="M569 1691.8C567.343 1691.8 566 1690.46 566 1688.8V1614.8C566 1613.14 567.343 1611.8 569 1611.8C570.657 1611.8 572 1613.14 572 1614.8V1688.8C572 1690.46 570.657 1691.8 569 1691.8Z" fill="#D7D7D7"/>
<path d="M569 1573.8C567.343 1573.8 566 1572.46 566 1570.8V1546.8C566 1545.14 567.343 1543.8 569 1543.8C570.657 1543.8 572 1545.14 572 1546.8V1570.8C572 1572.46 570.657 1573.8 569 1573.8Z" fill="#D7D7D7"/>
<path d="M479 1634C480.657 1634 482 1635.34 482 1637V1653C482 1654.66 480.657 1656 479 1656C477.343 1656 476 1654.66 476 1653V1637C476 1635.34 477.343 1634 479 1634Z" fill="#D7D7D7"/>
<path d="M479 1510C480.657 1510 482 1511.34 482 1513V1539C482 1540.66 480.657 1542 479 1542C477.343 1542 476 1540.66 476 1539V1513C476 1511.34 477.343 1510 479 1510Z" fill="#D7D7D7"/>
<circle r="3" transform="matrix(1 0 0 -1 479 1599)" fill="#D7D7D7"/>
<path d="M599 1626C597.343 1626 596 1627.34 596 1629V1655C596 1656.66 597.343 1658 599 1658C600.657 1658 602 1656.66 602 1655V1629C602 1627.34 600.657 1626 599 1626Z" fill="#D7D7D7"/>
<circle cx="599" cy="1565" r="3" transform="rotate(-180 599 1565)" fill="#D7D7D7"/>
<circle cx="599" cy="1513" r="3" transform="rotate(-180 599 1513)" fill="#D7D7D7"/>
<path d="M539 1675.8C540.657 1675.8 542 1677.14 542 1678.8V1822.8C542 1824.46 540.657 1825.8 539 1825.8C537.343 1825.8 536 1824.46 536 1822.8V1678.8C536 1677.14 537.343 1675.8 539 1675.8Z" fill="#D7D7D7"/>
<circle r="3" transform="matrix(1 0 0 -1 539 1609.8)" fill="#D7D7D7"/>
<rect x="464.243" y="1423.2" width="106" height="106" rx="29" transform="rotate(-45 464.243 1423.2)" stroke="#D7D7D7" stroke-width="6"/>
<circle r="3" transform="matrix(1 0 0 -1 696 1314.8)" fill="#D7D7D7"/>
<path d="M756 1321.8C754.343 1321.8 753 1320.46 753 1318.8V1294.8C753 1293.14 754.343 1291.8 756 1291.8C757.657 1291.8 759 1293.14 759 1294.8V1318.8C759 1320.46 757.657 1321.8 756 1321.8Z" fill="white"/>
<circle r="3" transform="matrix(1 0 0 -1 666 1347)" fill="white"/>
<circle cx="786" cy="1313" r="3" transform="rotate(-180 786 1313)" fill="white"/>
<circle cx="786" cy="1261" r="3" transform="rotate(-180 786 1261)" fill="white"/>
<circle r="3" transform="matrix(1 0 0 -1 726 1357.8)" fill="white"/>
<g filter="url(#filter3_d_615_4185)">
<rect x="652" y="1211.2" width="96" height="96" rx="24" transform="rotate(-45 652 1211.2)" fill="white"/>
</g>
<rect x="1282.83" y="1183.94" width="44" height="44" rx="6" transform="rotate(-45 1282.83 1183.94)" stroke="#D7D7D7" stroke-width="4"/>
<rect x="1178.1" y="941.098" width="109.74" height="109.74" rx="24" transform="rotate(-45 1178.1 941.098)" fill="#D7D7D7" fill-opacity="0.81"/>
<rect x="1487" y="1741.57" width="80" height="80" rx="24" transform="rotate(-45 1487 1741.57)" fill="#03568E"/>
<g opacity="0.48">
<mask id="path-53-inside-1_615_4185" fill="white">
<path d="M819.666 950.234C813.445 944.013 813.445 933.926 819.666 927.705L849.705 897.666C855.926 891.445 866.013 891.445 872.234 897.666L902.273 927.705C908.494 933.926 908.494 944.013 902.273 950.234L872.234 980.273C866.013 986.494 855.926 986.494 849.705 980.273L819.666 950.234Z"/>
</mask>
<path d="M849.705 980.273L853.947 976.03L849.705 980.273ZM902.273 927.705L898.03 931.947L902.273 927.705ZM849.705 897.666L853.947 901.909L849.705 897.666ZM872.234 897.666L876.476 893.423L872.234 897.666ZM819.666 927.705L815.423 923.462L819.666 927.705ZM819.666 950.234L815.423 954.476L819.666 950.234ZM823.909 931.947L853.947 901.909L845.462 893.423L815.423 923.462L823.909 931.947ZM867.991 901.909L898.03 931.947L906.515 923.462L876.476 893.423L867.991 901.909ZM898.03 945.991L867.991 976.03L876.476 984.515L906.515 954.476L898.03 945.991ZM853.947 976.03L823.909 945.991L815.423 954.476L845.462 984.515L853.947 976.03ZM867.991 976.03C864.113 979.908 857.825 979.908 853.947 976.03L845.462 984.515C854.026 993.08 867.912 993.08 876.476 984.515L867.991 976.03ZM898.03 931.947C901.908 935.825 901.908 942.113 898.03 945.991L906.515 954.476C915.08 945.912 915.08 932.026 906.515 923.462L898.03 931.947ZM853.947 901.909C857.825 898.03 864.113 898.03 867.991 901.909L876.476 893.423C867.912 884.859 854.026 884.859 845.462 893.423L853.947 901.909ZM815.423 923.462C806.859 932.026 806.859 945.912 815.423 954.476L823.909 945.991C820.03 942.113 820.03 935.825 823.909 931.947L815.423 923.462Z" fill="#03568E" mask="url(#path-53-inside-1_615_4185)"/>
<path d="M859.729 1166.26C861.845 1166.26 863.56 1164.55 863.56 1162.43V1021.97C863.56 1019.85 861.845 1018.14 859.729 1018.14C857.614 1018.14 855.898 1019.85 855.898 1021.97V1162.43C855.898 1164.55 857.614 1166.26 859.729 1166.26Z" fill="#03568E"/>
<circle cx="859.729" cy="1193.08" r="3.83077" fill="#03568E"/>
<circle cx="859.729" cy="1221.17" r="3.83077" fill="#03568E"/>
<path d="M821.423 1036.02C823.538 1036.02 825.253 1034.3 825.253 1032.18V1004.09C825.253 1001.98 823.538 1000.26 821.423 1000.26C819.307 1000.26 817.592 1001.98 817.592 1004.09V1032.18C817.592 1034.3 819.307 1036.02 821.423 1036.02Z" fill="#03568E"/>
<circle cx="821.423" cy="1050.06" r="3.83077" fill="#03568E"/>
<circle cx="821.423" cy="1078.15" r="3.83077" fill="#03568E"/>
<path d="M898.036 1061.55C900.152 1061.55 901.867 1059.84 901.867 1057.72V1014.31C901.867 1012.19 900.152 1010.48 898.036 1010.48C895.92 1010.48 894.205 1012.19 894.205 1014.31V1057.72C894.205 1059.84 895.92 1061.55 898.036 1061.55Z" fill="#03568E"/>
<circle cx="898.036" cy="1085.82" r="3.83077" fill="#03568E"/>
<circle cx="898.036" cy="1113.91" r="3.83077" fill="#03568E"/>
<circle cx="898.036" cy="1130.51" r="3.83077" fill="#03568E"/>
</g>
<g opacity="0.24">
<mask id="path-65-inside-2_615_4185" fill="white">
<path d="M1077.65 1686.82C1072.78 1681.95 1072.78 1674.05 1077.65 1669.18L1101.18 1645.65C1106.05 1640.78 1113.95 1640.78 1118.82 1645.65L1142.35 1669.18C1147.22 1674.05 1147.22 1681.95 1142.35 1686.82L1118.82 1710.35C1113.95 1715.22 1106.05 1715.22 1101.18 1710.35L1077.65 1686.82Z"/>
</mask>
<path d="M1101.18 1710.35L1105.42 1706.1L1101.18 1710.35ZM1142.35 1669.18L1138.1 1673.42L1142.35 1669.18ZM1101.18 1645.65L1105.42 1649.9L1101.18 1645.65ZM1118.82 1645.65L1123.06 1641.41L1118.82 1645.65ZM1077.65 1669.18L1073.41 1664.94L1077.65 1669.18ZM1077.65 1686.82L1073.41 1691.06L1077.65 1686.82ZM1081.9 1673.42L1105.42 1649.9L1096.94 1641.41L1073.41 1664.94L1081.9 1673.42ZM1114.58 1649.9L1138.1 1673.42L1146.59 1664.94L1123.06 1641.41L1114.58 1649.9ZM1138.1 1682.58L1114.58 1706.1L1123.06 1714.59L1146.59 1691.06L1138.1 1682.58ZM1105.42 1706.1L1081.9 1682.58L1073.41 1691.06L1096.94 1714.59L1105.42 1706.1ZM1114.58 1706.1C1112.05 1708.63 1107.95 1708.63 1105.42 1706.1L1096.94 1714.59C1104.15 1721.8 1115.85 1721.8 1123.06 1714.59L1114.58 1706.1ZM1138.1 1673.42C1140.63 1675.95 1140.63 1680.05 1138.1 1682.58L1146.59 1691.06C1153.8 1683.85 1153.8 1672.15 1146.59 1664.94L1138.1 1673.42ZM1105.42 1649.9C1107.95 1647.37 1112.05 1647.37 1114.58 1649.9L1123.06 1641.41C1115.85 1634.2 1104.15 1634.2 1096.94 1641.41L1105.42 1649.9ZM1073.41 1664.94C1066.2 1672.15 1066.2 1683.85 1073.41 1691.06L1081.9 1682.58C1079.37 1680.05 1079.37 1675.95 1081.9 1673.42L1073.41 1664.94Z" fill="#03568E" mask="url(#path-65-inside-2_615_4185)"/>
<path d="M1109.03 1840C1110.69 1840 1112.03 1838.66 1112.03 1837V1743C1112.03 1741.34 1110.69 1740 1109.03 1740C1107.37 1740 1106.03 1741.34 1106.03 1743V1837C1106.03 1838.66 1107.37 1840 1109.03 1840Z" fill="#03568E"/>
<circle cx="1109.03" cy="1869" r="3" fill="#03568E"/>
<circle cx="1109.03" cy="1891" r="3" fill="#03568E"/>
<path d="M1079.03 1754C1080.69 1754 1082.03 1752.66 1082.03 1751V1735C1082.03 1733.34 1080.69 1732 1079.03 1732C1077.37 1732 1076.03 1733.34 1076.03 1735V1751C1076.03 1752.66 1077.37 1754 1079.03 1754Z" fill="#03568E"/>
<circle cx="1079.03" cy="1765" r="3" fill="#03568E"/>
<path d="M1139.03 1782C1140.69 1782 1142.03 1780.66 1142.03 1779V1745C1142.03 1743.34 1140.69 1742 1139.03 1742C1137.37 1742 1136.03 1743.34 1136.03 1745V1779C1136.03 1780.66 1137.37 1782 1139.03 1782Z" fill="#03568E"/>
<circle cx="1139.03" cy="1801" r="3" fill="#03568E"/>
<circle cx="1139.03" cy="1828" r="3" fill="#03568E"/>
</g>
<defs>
<filter id="filter0_d_615_4185" x="561.162" y="72.1621" width="2125.04" height="2125.04" filterUnits="userSpaceOnUse" color-interpolation-filters="sRGB">
<feFlood flood-opacity="0" result="BackgroundImageFix"/>
<feColorMatrix in="SourceAlpha" type="matrix" values="0 0 0 0 0 0 0 0 0 0 0 0 0 0 0 0 0 0 127 0" result="hardAlpha"/>
<feOffset dx="8" dy="40"/>
<feGaussianBlur stdDeviation="40"/>
<feComposite in2="hardAlpha" operator="out"/>
<feColorMatrix type="matrix" values="0 0 0 0 0 0 0 0 0 0 0 0 0 0 0 0 0 0 0.08 0"/>
<feBlend mode="normal" in2="BackgroundImageFix" result="effect1_dropShadow_615_4185"/>
<feBlend mode="normal" in="SourceGraphic" in2="effect1_dropShadow_615_4185" result="shape"/>
</filter>
<filter id="filter1_d_615_4185" x="969.842" y="441.706" width="1261.96" height="1261.96" filterUnits="userSpaceOnUse" color-interpolation-filters="sRGB">
<feFlood flood-opacity="0" result="BackgroundImageFix"/>
<feColorMatrix in="SourceAlpha" type="matrix" values="0 0 0 0 0 0 0 0 0 0 0 0 0 0 0 0 0 0 127 0" result="hardAlpha"/>
<feOffset dx="19" dy="27"/>
<feGaussianBlur stdDeviation="17.5"/>
<feComposite in2="hardAlpha" operator="out"/>
<feColorMatrix type="matrix" values="0 0 0 0 0 0 0 0 0 0 0 0 0 0 0 0 0 0 0.22 0"/>
<feBlend mode="normal" in2="BackgroundImageFix" result="effect1_dropShadow_615_4185"/>
<feBlend mode="normal" in="SourceGraphic" in2="effect1_dropShadow_615_4185" result="shape"/>
</filter>
<filter id="filter2_d_615_4185" x="0.841797" y="1100.84" width="1028" height="1054.69" filterUnits="userSpaceOnUse" color-interpolation-filters="sRGB">
<feFlood flood-opacity="0" result="BackgroundImageFix"/>
<feColorMatrix in="SourceAlpha" type="matrix" values="0 0 0 0 0 0 0 0 0 0 0 0 0 0 0 0 0 0 127 0" result="hardAlpha"/>
<feOffset dx="12" dy="55"/>
<feGaussianBlur stdDeviation="17"/>
<feComposite in2="hardAlpha" operator="out"/>
<feColorMatrix type="matrix" values="0 0 0 0 0 0 0 0 0 0 0 0 0 0 0 0 0 0 0.08 0"/>
<feBlend mode="normal" in2="BackgroundImageFix" result="effect1_dropShadow_615_4185"/>
<feBlend mode="normal" in="SourceGraphic" in2="effect1_dropShadow_615_4185" result="shape"/>
</filter>
<filter id="filter3_d_615_4185" x="652.941" y="1153.25" width="139.883" height="147.882" filterUnits="userSpaceOnUse" color-interpolation-filters="sRGB">
<feFlood flood-opacity="0" result="BackgroundImageFix"/>
<feColorMatrix in="SourceAlpha" type="matrix" values="0 0 0 0 0 0 0 0 0 0 0 0 0 0 0 0 0 0 127 0" result="hardAlpha"/>
<feOffset dx="3" dy="20"/>
<feGaussianBlur stdDeviation="6"/>
<feComposite in2="hardAlpha" operator="out"/>
<feColorMatrix type="matrix" values="0 0 0 0 0 0 0 0 0 0 0 0 0 0 0 0 0 0 0.09 0"/>
<feBlend mode="normal" in2="BackgroundImageFix" result="effect1_dropShadow_615_4185"/>
<feBlend mode="normal" in="SourceGraphic" in2="effect1_dropShadow_615_4185" result="shape"/>
</filter>
</defs>
</svg>
