<svg width="1991" height="1405" viewBox="0 0 1991 1405" fill="none" xmlns="http://www.w3.org/2000/svg">
<rect width="977" height="977" transform="translate(391 258)" fill="#F5F5F5"/>
<rect x="234.473" y="702.247" width="1093.5" height="1093.5" rx="200" transform="rotate(-45 234.473 702.247)" fill="#03568E" fill-opacity="0.05"/>
<g filter="url(#filter0_d_624_4626)">
<rect x="622.273" y="639.57" width="963.842" height="963.842" rx="200" transform="rotate(-45 622.273 639.57)" fill="#F2F4F6"/>
</g>
<g filter="url(#filter1_d_624_4626)">
<path d="M801.966 644.302C742.35 584.686 742.35 488.029 801.966 428.413L1104.21 126.169C1163.83 66.5533 1260.48 66.5533 1320.1 126.169L1622.34 428.413C1681.96 488.029 1681.96 584.686 1622.34 644.302L1320.1 946.546C1260.48 1006.16 1163.83 1006.16 1104.21 946.546L801.966 644.302Z" fill="#03568E"/>
</g>
<path d="M801.966 644.302C742.35 584.686 742.35 488.029 801.966 428.413L1104.21 126.169C1163.83 66.5533 1260.48 66.5533 1320.1 126.169L1622.34 428.413C1681.96 488.029 1681.96 584.686 1622.34 644.302L1320.1 946.546C1260.48 1006.16 1163.83 1006.16 1104.21 946.546L801.966 644.302Z" fill="url(#paint0_linear_624_4626)"/>
<g filter="url(#filter2_d_624_4626)">
<path d="M66.6636 1054.95C7.39859 995.331 7.39859 898.675 66.6636 839.059L281.281 623.17C340.546 563.554 436.634 563.554 495.899 623.17L710.516 839.059C769.781 898.675 769.781 995.331 710.516 1054.95L495.899 1270.84C436.634 1330.45 340.546 1330.45 281.281 1270.84L66.6636 1054.95Z" fill="#03568E"/>
</g>
<path d="M1573.43 648.339C1572.01 648.339 1570.86 649.49 1570.86 650.91V673.196C1570.86 674.616 1572.01 675.768 1573.43 675.768C1574.85 675.768 1576 674.616 1576 673.196V650.91C1576 649.49 1574.85 648.339 1573.43 648.339Z" fill="white" fill-opacity="0.24"/>
<circle cx="1573.43" cy="614.911" r="2.57143" transform="rotate(-180 1573.43 614.911)" fill="white" fill-opacity="0.24"/>
<circle cx="1573.43" cy="596.053" r="2.57143" transform="rotate(-180 1573.43 596.053)" fill="white" fill-opacity="0.24"/>
<circle cx="1573.43" cy="551.482" r="2.57143" transform="rotate(-180 1573.43 551.482)" fill="white" fill-opacity="0.24"/>
<circle cx="1573.43" cy="532.625" r="2.57143" transform="rotate(-180 1573.43 532.625)" fill="white" fill-opacity="0.24"/>
<path d="M1527.71 698.053C1526.29 698.053 1525.14 696.902 1525.14 695.482V632.053C1525.14 630.633 1526.29 629.482 1527.71 629.482C1529.13 629.482 1530.29 630.633 1530.29 632.053V695.482C1530.29 696.902 1529.13 698.053 1527.71 698.053Z" fill="white" fill-opacity="0.24"/>
<path d="M1527.71 571.196C1526.29 571.196 1525.14 570.045 1525.14 568.625V548.053C1525.14 546.633 1526.29 545.482 1527.71 545.482C1529.13 545.482 1530.29 546.633 1530.29 548.053V568.625C1530.29 570.045 1529.13 571.196 1527.71 571.196Z" fill="white" fill-opacity="0.24"/>
<circle r="2.57143" transform="matrix(-1 0 0 1 1527.71 716.053)" fill="white" fill-opacity="0.24"/>
<circle r="2.57143" transform="matrix(-1 0 0 1 1527.71 587.482)" fill="white" fill-opacity="0.24"/>
<circle r="2.57143" transform="matrix(-1 0 0 1 1527.71 606.339)" fill="white" fill-opacity="0.24"/>
<path d="M1450.57 672.339C1451.99 672.339 1453.14 673.49 1453.14 674.91V688.624C1453.14 690.045 1451.99 691.196 1450.57 691.196C1449.15 691.196 1448 690.045 1448 688.624V674.91C1448 673.49 1449.15 672.339 1450.57 672.339Z" fill="white" fill-opacity="0.24"/>
<path d="M1450.57 605.482C1451.99 605.482 1453.14 606.633 1453.14 608.053V630.339C1453.14 631.759 1451.99 632.91 1450.57 632.91C1449.15 632.91 1448 631.759 1448 630.339V608.053C1448 606.633 1449.15 605.482 1450.57 605.482Z" fill="white" fill-opacity="0.24"/>
<circle r="2.57143" transform="matrix(1 0 0 -1 1450.57 656.053)" fill="white" fill-opacity="0.24"/>
<circle r="2.57143" transform="matrix(1 0 0 -1 1450.57 560.053)" fill="white" fill-opacity="0.24"/>
<circle r="2.57143" transform="matrix(1 0 0 -1 1450.57 524.053)" fill="white" fill-opacity="0.24"/>
<path d="M1502 658.625C1503.42 658.625 1504.57 659.776 1504.57 661.196V784.625C1504.57 786.045 1503.42 787.196 1502 787.196C1500.58 787.196 1499.43 786.045 1499.43 784.625V661.196C1499.43 659.776 1500.58 658.625 1502 658.625Z" fill="white" fill-opacity="0.24"/>
<circle r="2.57143" transform="matrix(1 0 0 -1 1502 633.767)" fill="white" fill-opacity="0.24"/>
<circle r="2.57143" transform="matrix(1 0 0 -1 1502 602.053)" fill="white" fill-opacity="0.24"/>
<circle r="3" transform="matrix(1 0 0 -1 567 885)" fill="#D7D7D7"/>
<path d="M657 921.799C655.343 921.799 654 920.456 654 918.799V894.799C654 893.142 655.343 891.799 657 891.799C658.657 891.799 660 893.142 660 894.799V918.799C660 920.456 658.657 921.799 657 921.799Z" fill="white"/>
<circle cx="585" cy="975" r="3" transform="rotate(-180 585 975)" fill="white"/>
<circle cx="585" cy="923" r="3" transform="rotate(-180 585 923)" fill="white"/>
<circle r="3" transform="matrix(1 0 0 -1 627 957.799)" fill="white"/>
<g filter="url(#filter3_d_624_4626)">
<rect x="553" y="813.813" width="73.275" height="73.275" rx="24" transform="rotate(-45 553 813.813)" fill="white"/>
</g>
<rect x="2.82842" width="32.6375" height="32.6375" rx="6" transform="matrix(0.707106 -0.707108 0.707106 0.707108 982.61 643.885)" stroke="#D7D7D7" stroke-width="4"/>
<rect x="904" y="456.528" width="83.7623" height="83.7623" rx="24" transform="rotate(-45 904 456.528)" fill="#D7D7D7" fill-opacity="0.81"/>
<rect width="61.0625" height="61.0625" rx="24" transform="matrix(0.707107 -0.707106 0.707107 0.707106 1139.78 1067.51)" fill="#03568E"/>
<g opacity="0.48">
<mask id="path-33-inside-1_624_4626" fill="white">
<path d="M618.225 410.071C613.477 405.323 613.477 397.624 618.225 392.875L641.154 369.947C645.902 365.199 653.601 365.199 658.35 369.947L681.278 392.875C686.026 397.624 686.026 405.323 681.278 410.071L658.35 432.999C653.601 437.748 645.902 437.748 641.154 432.999L618.225 410.071Z"/>
</mask>
<path d="M641.154 432.999L645.396 428.757L641.154 432.999ZM681.278 392.875L677.035 397.118L681.278 392.875ZM641.154 369.947L645.396 374.19L645.396 374.19L641.154 369.947ZM658.35 369.947L662.592 365.705L658.35 369.947ZM618.225 392.875L613.983 388.633L613.983 388.633L618.225 392.875ZM618.225 410.071L613.983 414.314L618.225 410.071ZM622.468 397.118L645.396 374.19L636.911 365.705L613.983 388.633L622.468 397.118ZM654.107 374.19L677.035 397.118L685.52 388.633L662.592 365.705L654.107 374.19ZM677.035 405.829L654.107 428.757L662.592 437.242L685.52 414.314L677.035 405.829ZM645.396 428.757L622.468 405.829L613.983 414.314L636.911 437.242L645.396 428.757ZM654.107 428.757C651.701 431.162 647.802 431.162 645.396 428.757L636.911 437.242C644.003 444.334 655.5 444.334 662.592 437.242L654.107 428.757ZM677.035 397.118C679.44 399.523 679.44 403.423 677.035 405.829L685.52 414.314C692.612 407.222 692.612 395.724 685.52 388.633L677.035 397.118ZM645.396 374.19C647.802 371.785 651.701 371.785 654.107 374.19L662.592 365.705C655.5 358.613 644.003 358.613 636.911 365.705L645.396 374.19ZM613.983 388.633C606.891 395.724 606.891 407.222 613.983 414.314L622.468 405.829C620.063 403.423 620.063 399.523 622.468 397.118L613.983 388.633Z" fill="#03568E" mask="url(#path-33-inside-1_624_4626)"/>
<path d="M728.76 673.262C730.876 673.262 732.591 671.546 732.591 669.431V528.969C732.591 526.854 730.876 525.138 728.76 525.138C726.645 525.138 724.93 526.854 724.93 528.969V669.431C724.93 671.546 726.645 673.262 728.76 673.262Z" fill="#03568E"/>
<circle cx="728.76" cy="700.077" r="3.83077" fill="#03568E"/>
<circle cx="728.76" cy="728.169" r="3.83077" fill="#03568E"/>
<path d="M690.452 543.016C692.568 543.016 694.283 541.3 694.283 539.185V511.092C694.283 508.977 692.568 507.262 690.452 507.262C688.336 507.262 686.621 508.977 686.621 511.092V539.185C686.621 541.3 688.336 543.016 690.452 543.016Z" fill="#03568E"/>
<circle cx="690.452" cy="557.062" r="3.83077" fill="#03568E"/>
<circle cx="690.452" cy="585.154" r="3.83077" fill="#03568E"/>
<path d="M767.065 568.554C769.181 568.554 770.896 566.839 770.896 564.723V521.308C770.896 519.192 769.181 517.477 767.065 517.477C764.949 517.477 763.234 519.192 763.234 521.308V564.723C763.234 566.839 764.949 568.554 767.065 568.554Z" fill="#03568E"/>
<circle cx="767.065" cy="592.816" r="3.83077" fill="#03568E"/>
<circle cx="767.065" cy="620.908" r="3.83077" fill="#03568E"/>
<circle cx="767.065" cy="637.508" r="3.83077" fill="#03568E"/>
</g>
<g opacity="0.24">
<mask id="path-45-inside-2_624_4626" fill="white">
<path d="M827.332 1025.72C823.613 1022.01 823.613 1015.98 827.332 1012.26L845.288 994.302C849.006 990.583 855.036 990.583 858.754 994.302L876.71 1012.26C880.429 1015.98 880.429 1022.01 876.71 1025.72L858.754 1043.68C855.036 1047.4 849.006 1047.4 845.288 1043.68L827.332 1025.72Z"/>
</mask>
<path d="M845.288 1043.68L849.53 1039.44L845.288 1043.68ZM876.71 1012.26L872.468 1016.5L876.71 1012.26ZM845.288 994.302L849.53 998.545L845.288 994.302ZM858.754 994.302L862.997 990.06L858.754 994.302ZM827.332 1012.26L823.089 1008.02L827.332 1012.26ZM827.332 1025.72L823.089 1029.97L827.332 1025.72ZM831.575 1016.5L849.53 998.545L841.045 990.06L823.089 1008.02L831.575 1016.5ZM854.512 998.545L872.468 1016.5L880.953 1008.02L862.997 990.06L854.512 998.545ZM872.468 1021.48L854.512 1039.44L862.997 1047.92L880.953 1029.97L872.468 1021.48ZM849.53 1039.44L831.575 1021.48L823.089 1029.97L841.045 1047.92L849.53 1039.44ZM854.512 1039.44C853.136 1040.81 850.906 1040.81 849.53 1039.44L841.045 1047.92C847.107 1053.98 856.935 1053.98 862.997 1047.92L854.512 1039.44ZM872.468 1016.5C873.843 1017.88 873.843 1020.11 872.468 1021.48L880.953 1029.97C887.015 1023.91 887.015 1014.08 880.953 1008.02L872.468 1016.5ZM849.53 998.545C850.906 997.169 853.136 997.169 854.512 998.545L862.997 990.06C856.935 983.998 847.107 983.998 841.045 990.06L849.53 998.545ZM823.089 1008.02C817.027 1014.08 817.027 1023.91 823.089 1029.97L831.575 1021.48C830.199 1020.11 830.199 1017.88 831.575 1016.5L823.089 1008.02Z" fill="#03568E" mask="url(#path-45-inside-2_624_4626)"/>
<path d="M852 1191C853.657 1191 855 1189.66 855 1188V1094C855 1092.34 853.657 1091 852 1091C850.343 1091 849 1092.34 849 1094V1188C849 1189.66 850.343 1191 852 1191Z" fill="#03568E"/>
<circle cx="852" cy="1220" r="3" fill="#03568E"/>
<circle cx="852" cy="1242" r="3" fill="#03568E"/>
<path d="M822 1105C823.657 1105 825 1103.66 825 1102V1086C825 1084.34 823.657 1083 822 1083C820.343 1083 819 1084.34 819 1086V1102C819 1103.66 820.343 1105 822 1105Z" fill="#03568E"/>
<circle cx="822" cy="1116" r="3" fill="#03568E"/>
<path d="M882 1133C883.657 1133 885 1131.66 885 1130V1096C885 1094.34 883.657 1093 882 1093C880.343 1093 879 1094.34 879 1096V1130C879 1131.66 880.343 1133 882 1133Z" fill="#03568E"/>
<circle cx="882" cy="1152" r="3" fill="#03568E"/>
<circle cx="882" cy="1179" r="3" fill="#03568E"/>
</g>
<defs>
<filter id="filter0_d_624_4626" x="633.117" y="0.873291" width="1357.39" height="1357.39" filterUnits="userSpaceOnUse" color-interpolation-filters="sRGB">
<feFlood flood-opacity="0" result="BackgroundImageFix"/>
<feColorMatrix in="SourceAlpha" type="matrix" values="0 0 0 0 0 0 0 0 0 0 0 0 0 0 0 0 0 0 127 0" result="hardAlpha"/>
<feOffset dx="8" dy="40"/>
<feGaussianBlur stdDeviation="40"/>
<feComposite in2="hardAlpha" operator="out"/>
<feColorMatrix type="matrix" values="0 0 0 0 0 0 0 0 0 0 0 0 0 0 0 0 0 0 0.08 0"/>
<feBlend mode="normal" in2="BackgroundImageFix" result="effect1_dropShadow_624_4626"/>
<feBlend mode="normal" in="SourceGraphic" in2="effect1_dropShadow_624_4626" result="shape"/>
</filter>
<filter id="filter1_d_624_4626" x="725.254" y="65.4573" width="957.801" height="957.8" filterUnits="userSpaceOnUse" color-interpolation-filters="sRGB">
<feFlood flood-opacity="0" result="BackgroundImageFix"/>
<feColorMatrix in="SourceAlpha" type="matrix" values="0 0 0 0 0 0 0 0 0 0 0 0 0 0 0 0 0 0 127 0" result="hardAlpha"/>
<feOffset dx="-8" dy="8"/>
<feGaussianBlur stdDeviation="12"/>
<feComposite in2="hardAlpha" operator="out"/>
<feColorMatrix type="matrix" values="0 0 0 0 0 0 0 0 0 0 0 0 0 0 0 0 0 0 0.4 0"/>
<feBlend mode="normal" in2="BackgroundImageFix" result="effect1_dropShadow_624_4626"/>
<feBlend mode="normal" in="SourceGraphic" in2="effect1_dropShadow_624_4626" result="shape"/>
</filter>
<filter id="filter2_d_624_4626" x="0.214844" y="578.458" width="800.75" height="826.09" filterUnits="userSpaceOnUse" color-interpolation-filters="sRGB">
<feFlood flood-opacity="0" result="BackgroundImageFix"/>
<feColorMatrix in="SourceAlpha" type="matrix" values="0 0 0 0 0 0 0 0 0 0 0 0 0 0 0 0 0 0 127 0" result="hardAlpha"/>
<feOffset dx="12" dy="55"/>
<feGaussianBlur stdDeviation="17"/>
<feComposite in2="hardAlpha" operator="out"/>
<feColorMatrix type="matrix" values="0 0 0 0 0 0 0 0 0 0 0 0 0 0 0 0 0 0 0.08 0"/>
<feBlend mode="normal" in2="BackgroundImageFix" result="effect1_dropShadow_624_4626"/>
<feBlend mode="normal" in="SourceGraphic" in2="effect1_dropShadow_624_4626" result="shape"/>
</filter>
<filter id="filter3_d_624_4626" x="553.941" y="771.941" width="107.742" height="115.744" filterUnits="userSpaceOnUse" color-interpolation-filters="sRGB">
<feFlood flood-opacity="0" result="BackgroundImageFix"/>
<feColorMatrix in="SourceAlpha" type="matrix" values="0 0 0 0 0 0 0 0 0 0 0 0 0 0 0 0 0 0 127 0" result="hardAlpha"/>
<feOffset dx="3" dy="20"/>
<feGaussianBlur stdDeviation="6"/>
<feComposite in2="hardAlpha" operator="out"/>
<feColorMatrix type="matrix" values="0 0 0 0 0 0 0 0 0 0 0 0 0 0 0 0 0 0 0.09 0"/>
<feBlend mode="normal" in2="BackgroundImageFix" result="effect1_dropShadow_624_4626"/>
<feBlend mode="normal" in="SourceGraphic" in2="effect1_dropShadow_624_4626" result="shape"/>
</filter>
<linearGradient id="paint0_linear_624_4626" x1="1469" y1="238" x2="975" y2="886" gradientUnits="userSpaceOnUse">
<stop stop-color="white" stop-opacity="0.22"/>
<stop offset="1" stop-color="white" stop-opacity="0"/>
</linearGradient>
</defs>
</svg>
