<svg width="2082" height="1503" viewBox="0 0 2082 1503" fill="none" xmlns="http://www.w3.org/2000/svg">
<rect width="977" height="977" transform="translate(482 337)" fill="#F5F5F5"/>
<rect x="228.836" y="696.165" width="1101.67" height="1101.67" rx="200" transform="rotate(-45 228.836 696.165)" fill="#03568E" fill-opacity="0.08"/>
<g filter="url(#filter0_d_624_4626)">
<rect x="713.273" y="718.57" width="963.842" height="963.842" rx="200" transform="rotate(-45 713.273 718.57)" fill="#F2F4F6"/>
</g>
<g filter="url(#filter1_d_624_4626)">
<path d="M892.966 723.302C833.35 663.686 833.35 567.029 892.966 507.413L1195.21 205.169C1254.83 145.553 1351.48 145.553 1411.1 205.169L1713.34 507.413C1772.96 567.029 1772.96 663.686 1713.34 723.302L1411.1 1025.55C1351.48 1085.16 1254.83 1085.16 1195.21 1025.55L892.966 723.302Z" fill="#03568E"/>
</g>
<path d="M892.966 723.302C833.35 663.686 833.35 567.029 892.966 507.413L1195.21 205.169C1254.83 145.553 1351.48 145.553 1411.1 205.169L1713.34 507.413C1772.96 567.029 1772.96 663.686 1713.34 723.302L1411.1 1025.55C1351.48 1085.16 1254.83 1085.16 1195.21 1025.55L892.966 723.302Z" fill="url(#paint0_linear_624_4626)"/>
<g filter="url(#filter2_d_624_4626)">
<path d="M72.8591 1195.95C11.7136 1134.4 11.7136 1034.6 72.8591 973.054L294.286 750.162C355.432 688.613 454.568 688.613 515.714 750.162L737.141 973.054C798.286 1034.6 798.286 1134.4 737.141 1195.95L515.714 1418.84C454.568 1480.39 355.432 1480.39 294.286 1418.84L72.8591 1195.95Z" fill="#03568E"/>
</g>
<path d="M72.8591 1195.95C11.7136 1134.4 11.7136 1034.6 72.8591 973.054L294.286 750.162C355.432 688.613 454.568 688.613 515.714 750.162L737.141 973.054C798.286 1034.6 798.286 1134.4 737.141 1195.95L515.714 1418.84C454.568 1480.39 355.432 1480.39 294.286 1418.84L72.8591 1195.95Z" fill="url(#paint1_linear_624_4626)"/>
<path d="M1572.26 609.023C1571.65 609.684 1571.69 610.718 1572.35 611.332L1582.72 620.963C1583.39 621.577 1584.42 621.538 1585.03 620.877C1585.65 620.216 1585.61 619.183 1584.95 618.569L1574.57 608.937C1573.91 608.324 1572.88 608.362 1572.26 609.023Z" fill="white" fill-opacity="0.24"/>
<circle cx="1556.7" cy="594.576" r="1.6334" transform="rotate(132.873 1556.7 594.576)" fill="white" fill-opacity="0.24"/>
<circle cx="1547.92" cy="586.426" r="1.6334" transform="rotate(132.873 1547.92 586.426)" fill="white" fill-opacity="0.24"/>
<circle cx="1527.18" cy="567.164" r="1.6334" transform="rotate(132.873 1527.18 567.164)" fill="white" fill-opacity="0.24"/>
<circle cx="1518.39" cy="559.014" r="1.6334" transform="rotate(132.873 1518.39 559.014)" fill="white" fill-opacity="0.24"/>
<path d="M1575.65 651.79C1575.04 652.451 1574 652.49 1573.34 651.876L1543.81 624.463C1543.15 623.85 1543.11 622.816 1543.73 622.155C1544.34 621.494 1545.38 621.456 1546.04 622.069L1575.56 649.482C1576.23 650.096 1576.26 651.129 1575.65 651.79Z" fill="white" fill-opacity="0.24"/>
<path d="M1516.59 596.965C1515.98 597.626 1514.95 597.665 1514.29 597.051L1504.71 588.16C1504.05 587.547 1504.01 586.513 1504.62 585.852C1505.24 585.191 1506.27 585.153 1506.93 585.766L1516.51 594.657C1517.17 595.271 1517.21 596.304 1516.59 596.965Z" fill="white" fill-opacity="0.24"/>
<circle r="1.6334" transform="matrix(-0.680369 0.732869 0.732869 0.680369 1584.03 659.569)" fill="white" fill-opacity="0.24"/>
<circle r="1.6334" transform="matrix(-0.680369 0.732869 0.732869 0.680369 1524.18 604.003)" fill="white" fill-opacity="0.24"/>
<circle r="1.6334" transform="matrix(-0.680369 0.732869 0.732869 0.680369 1532.95 612.153)" fill="white" fill-opacity="0.24"/>
<path d="M1530.34 676.589C1530.95 675.927 1531.99 675.889 1532.65 676.503L1539.03 682.43C1539.69 683.044 1539.73 684.077 1539.12 684.738C1538.51 685.399 1537.47 685.438 1536.81 684.824L1530.43 678.897C1529.77 678.283 1529.73 677.25 1530.34 676.589Z" fill="white" fill-opacity="0.24"/>
<path d="M1499.22 647.694C1499.83 647.033 1500.86 646.995 1501.53 647.609L1511.9 657.24C1512.56 657.854 1512.6 658.887 1511.99 659.549C1511.37 660.21 1510.34 660.248 1509.68 659.634L1499.3 650.003C1498.64 649.389 1498.6 648.356 1499.22 647.694Z" fill="white" fill-opacity="0.24"/>
<circle r="1.6334" transform="matrix(0.680369 -0.732869 -0.732869 -0.680369 1522.76 669.55)" fill="white" fill-opacity="0.24"/>
<circle r="1.6334" transform="matrix(0.680369 -0.732869 -0.732869 -0.680369 1478.07 628.061)" fill="white" fill-opacity="0.24"/>
<circle r="1.6334" transform="matrix(0.680369 -0.732869 -0.732869 -0.680369 1461.31 612.503)" fill="white" fill-opacity="0.24"/>
<path d="M1546.18 646.72C1546.8 646.059 1547.83 646.02 1548.49 646.634L1605.95 699.977C1606.61 700.591 1606.65 701.625 1606.04 702.286C1605.42 702.947 1604.39 702.985 1603.73 702.372L1546.27 649.028C1545.61 648.415 1545.57 647.381 1546.18 646.72Z" fill="white" fill-opacity="0.24"/>
<circle r="1.6334" transform="matrix(0.680369 -0.732869 -0.732869 -0.680369 1534.61 635.977)" fill="white" fill-opacity="0.24"/>
<circle r="1.6334" transform="matrix(0.680369 -0.732869 -0.732869 -0.680369 1519.85 622.271)" fill="white" fill-opacity="0.24"/>
<g filter="url(#filter3_d_624_4626)">
<rect x="605" y="955.313" width="120.651" height="120.651" rx="24" transform="rotate(-45 605 955.313)" fill="white"/>
</g>
<rect x="2.82842" width="32.6375" height="32.6375" rx="6" transform="matrix(0.707106 -0.707108 0.707106 0.707108 1073.61 722.885)" stroke="#D7D7D7" stroke-width="4"/>
<rect x="995" y="535.528" width="83.7623" height="83.7623" rx="24" transform="rotate(-45 995 535.528)" fill="#D7D7D7" fill-opacity="0.81"/>
<g filter="url(#filter4_i_624_4626)">
<rect width="61.0625" height="61.0625" rx="20" transform="matrix(0.707107 -0.707106 0.707107 0.707106 1260 1174.18)" fill="#03568E"/>
</g>
<g opacity="0.48">
<mask id="path-29-inside-1_624_4626" fill="white">
<path d="M709.225 489.071C704.477 484.323 704.477 476.624 709.225 471.875L732.154 448.947C736.902 444.199 744.601 444.199 749.35 448.947L772.278 471.875C777.026 476.624 777.026 484.323 772.278 489.071L749.35 511.999C744.601 516.748 736.902 516.748 732.154 511.999L709.225 489.071Z"/>
</mask>
<path d="M732.154 511.999L736.396 507.757L732.154 511.999ZM772.278 471.875L768.035 476.118L772.278 471.875ZM732.154 448.947L736.396 453.19L736.396 453.19L732.154 448.947ZM749.35 448.947L753.592 444.705L749.35 448.947ZM709.225 471.875L704.983 467.633L704.983 467.633L709.225 471.875ZM709.225 489.071L704.983 493.314L709.225 489.071ZM713.468 476.118L736.396 453.19L727.911 444.705L704.983 467.633L713.468 476.118ZM745.107 453.19L768.035 476.118L776.52 467.633L753.592 444.705L745.107 453.19ZM768.035 484.829L745.107 507.757L753.592 516.242L776.52 493.314L768.035 484.829ZM736.396 507.757L713.468 484.829L704.983 493.314L727.911 516.242L736.396 507.757ZM745.107 507.757C742.701 510.162 738.802 510.162 736.396 507.757L727.911 516.242C735.003 523.334 746.5 523.334 753.592 516.242L745.107 507.757ZM768.035 476.118C770.44 478.523 770.44 482.423 768.035 484.829L776.52 493.314C783.612 486.222 783.612 474.724 776.52 467.633L768.035 476.118ZM736.396 453.19C738.802 450.785 742.701 450.785 745.107 453.19L753.592 444.705C746.5 437.613 735.003 437.613 727.911 444.705L736.396 453.19ZM704.983 467.633C697.891 474.724 697.891 486.222 704.983 493.314L713.468 484.829C711.063 482.423 711.063 478.523 713.468 476.118L704.983 467.633Z" fill="#03568E" mask="url(#path-29-inside-1_624_4626)"/>
<path d="M819.76 752.262C821.876 752.262 823.591 750.546 823.591 748.431V607.969C823.591 605.854 821.876 604.138 819.76 604.138C817.645 604.138 815.93 605.854 815.93 607.969V748.431C815.93 750.546 817.645 752.262 819.76 752.262Z" fill="#03568E"/>
<circle cx="819.76" cy="779.077" r="3.83077" fill="#03568E"/>
<circle cx="819.76" cy="807.169" r="3.83077" fill="#03568E"/>
<path d="M781.452 622.016C783.568 622.016 785.283 620.3 785.283 618.185V590.092C785.283 587.977 783.568 586.262 781.452 586.262C779.336 586.262 777.621 587.977 777.621 590.092V618.185C777.621 620.3 779.336 622.016 781.452 622.016Z" fill="#03568E"/>
<circle cx="781.452" cy="636.062" r="3.83077" fill="#03568E"/>
<circle cx="781.452" cy="664.154" r="3.83077" fill="#03568E"/>
<path d="M858.065 647.554C860.181 647.554 861.896 645.839 861.896 643.723V600.308C861.896 598.192 860.181 596.477 858.065 596.477C855.949 596.477 854.234 598.192 854.234 600.308V643.723C854.234 645.839 855.949 647.554 858.065 647.554Z" fill="#03568E"/>
<circle cx="858.065" cy="671.816" r="3.83077" fill="#03568E"/>
<circle cx="858.065" cy="699.908" r="3.83077" fill="#03568E"/>
<circle cx="858.065" cy="716.508" r="3.83077" fill="#03568E"/>
</g>
<g opacity="0.24">
<mask id="path-41-inside-2_624_4626" fill="white">
<path d="M954.044 1152.93C948.785 1152.92 944.531 1148.65 944.543 1143.39L944.598 1118C944.61 1112.74 948.883 1108.48 954.142 1108.49L979.535 1108.55C984.794 1108.56 989.048 1112.83 989.036 1118.09L988.981 1143.49C988.969 1148.75 984.696 1153 979.437 1152.99L954.044 1152.93Z"/>
</mask>
<path d="M979.437 1152.99L979.45 1146.99L979.437 1152.99ZM979.535 1108.55L979.522 1114.55L979.535 1108.55ZM944.598 1118L950.598 1118.01L944.598 1118ZM954.142 1108.49L954.155 1102.49L954.142 1108.49ZM944.543 1143.39L938.543 1143.38L944.543 1143.39ZM954.044 1152.93L954.031 1158.93L954.044 1152.93ZM950.543 1143.4L950.598 1118.01L938.598 1117.98L938.543 1143.38L950.543 1143.4ZM954.129 1114.49L979.522 1114.55L979.548 1102.55L954.155 1102.49L954.129 1114.49ZM983.036 1118.08L982.981 1143.47L994.981 1143.5L995.036 1118.11L983.036 1118.08ZM979.45 1146.99L954.057 1146.93L954.031 1158.93L979.424 1158.99L979.45 1146.99ZM982.981 1143.47C982.976 1145.42 981.396 1146.99 979.45 1146.99L979.424 1158.99C987.997 1159.01 994.962 1152.07 994.981 1143.5L982.981 1143.47ZM979.522 1114.55C981.467 1114.55 983.041 1116.13 983.036 1118.08L995.036 1118.11C995.055 1109.53 988.121 1102.57 979.548 1102.55L979.522 1114.55ZM950.598 1118.01C950.603 1116.06 952.183 1114.49 954.129 1114.49L954.155 1102.49C945.582 1102.48 938.617 1109.41 938.598 1117.98L950.598 1118.01ZM938.543 1143.38C938.524 1151.95 945.458 1158.91 954.031 1158.93L954.057 1146.93C952.112 1146.93 950.538 1145.35 950.543 1143.4L938.543 1143.38Z" fill="#03568E" mask="url(#path-41-inside-2_624_4626)"/>
<g opacity="0.2">
<path d="M1088.13 1252.65C1089.31 1251.48 1089.31 1249.58 1088.14 1248.41L1021.82 1181.79C1020.65 1180.62 1018.75 1180.62 1017.58 1181.79C1016.4 1182.95 1016.4 1184.85 1017.57 1186.03L1083.89 1252.64C1085.06 1253.82 1086.96 1253.82 1088.13 1252.65Z" fill="#03568E"/>
<circle cx="1108.59" cy="1273.2" r="3" transform="rotate(-44.8741 1108.59 1273.2)" fill="#03568E"/>
<circle cx="1124.12" cy="1288.79" r="3" transform="rotate(-44.8741 1124.12 1288.79)" fill="#03568E"/>
<path d="M1006.19 1212.87C1007.37 1211.7 1007.37 1209.8 1006.2 1208.63L994.915 1197.29C993.746 1196.12 991.847 1196.11 990.673 1197.28C989.499 1198.45 989.495 1200.35 990.664 1201.53L1001.95 1212.86C1003.12 1214.04 1005.02 1214.04 1006.19 1212.87Z" fill="#03568E"/>
<circle cx="1013.96" cy="1220.67" r="3" transform="rotate(-44.8741 1013.96 1220.67)" fill="#03568E"/>
<path d="M1068.47 1190.38C1069.65 1189.21 1069.65 1187.31 1068.48 1186.14L1044.49 1162.05C1043.32 1160.87 1041.43 1160.87 1040.25 1162.04C1039.08 1163.21 1039.07 1165.1 1040.24 1166.28L1064.23 1190.37C1065.4 1191.55 1067.3 1191.55 1068.47 1190.38Z" fill="#03568E"/>
<circle cx="1081.88" cy="1203.85" r="3" transform="rotate(-44.8741 1081.88 1203.85)" fill="#03568E"/>
<circle cx="1100.93" cy="1222.98" r="3" transform="rotate(-44.8741 1100.93 1222.98)" fill="#03568E"/>
</g>
</g>
<defs>
<filter id="filter0_d_624_4626" x="724.117" y="79.8733" width="1357.39" height="1357.39" filterUnits="userSpaceOnUse" color-interpolation-filters="sRGB">
<feFlood flood-opacity="0" result="BackgroundImageFix"/>
<feColorMatrix in="SourceAlpha" type="matrix" values="0 0 0 0 0 0 0 0 0 0 0 0 0 0 0 0 0 0 127 0" result="hardAlpha"/>
<feOffset dx="8" dy="40"/>
<feGaussianBlur stdDeviation="40"/>
<feComposite in2="hardAlpha" operator="out"/>
<feColorMatrix type="matrix" values="0 0 0 0 0 0 0 0 0 0 0 0 0 0 0 0 0 0 0.08 0"/>
<feBlend mode="normal" in2="BackgroundImageFix" result="effect1_dropShadow_624_4626"/>
<feBlend mode="normal" in="SourceGraphic" in2="effect1_dropShadow_624_4626" result="shape"/>
</filter>
<filter id="filter1_d_624_4626" x="816.254" y="144.457" width="957.801" height="957.8" filterUnits="userSpaceOnUse" color-interpolation-filters="sRGB">
<feFlood flood-opacity="0" result="BackgroundImageFix"/>
<feColorMatrix in="SourceAlpha" type="matrix" values="0 0 0 0 0 0 0 0 0 0 0 0 0 0 0 0 0 0 127 0" result="hardAlpha"/>
<feOffset dx="-8" dy="8"/>
<feGaussianBlur stdDeviation="12"/>
<feComposite in2="hardAlpha" operator="out"/>
<feColorMatrix type="matrix" values="0 0 0 0 0 0 0 0 0 0 0 0 0 0 0 0 0 0 0.4 0"/>
<feBlend mode="normal" in2="BackgroundImageFix" result="effect1_dropShadow_624_4626"/>
<feBlend mode="normal" in="SourceGraphic" in2="effect1_dropShadow_624_4626" result="shape"/>
</filter>
<filter id="filter2_d_624_4626" x="0" y="694" width="804" height="809" filterUnits="userSpaceOnUse" color-interpolation-filters="sRGB">
<feFlood flood-opacity="0" result="BackgroundImageFix"/>
<feColorMatrix in="SourceAlpha" type="matrix" values="0 0 0 0 0 0 0 0 0 0 0 0 0 0 0 0 0 0 127 0" result="hardAlpha"/>
<feOffset dx="-3" dy="14"/>
<feGaussianBlur stdDeviation="12"/>
<feComposite in2="hardAlpha" operator="out"/>
<feColorMatrix type="matrix" values="0 0 0 0 0 0 0 0 0 0 0 0 0 0 0 0 0 0 0.21 0"/>
<feBlend mode="normal" in2="BackgroundImageFix" result="effect1_dropShadow_624_4626"/>
<feBlend mode="normal" in="SourceGraphic" in2="effect1_dropShadow_624_4626" result="shape"/>
</filter>
<filter id="filter3_d_624_4626" x="605.941" y="879.941" width="174.742" height="182.744" filterUnits="userSpaceOnUse" color-interpolation-filters="sRGB">
<feFlood flood-opacity="0" result="BackgroundImageFix"/>
<feColorMatrix in="SourceAlpha" type="matrix" values="0 0 0 0 0 0 0 0 0 0 0 0 0 0 0 0 0 0 127 0" result="hardAlpha"/>
<feOffset dx="3" dy="20"/>
<feGaussianBlur stdDeviation="6"/>
<feComposite in2="hardAlpha" operator="out"/>
<feColorMatrix type="matrix" values="0 0 0 0 0 0 0 0 0 0 0 0 0 0 0 0 0 0 0.09 0"/>
<feBlend mode="normal" in2="BackgroundImageFix" result="effect1_dropShadow_624_4626"/>
<feBlend mode="normal" in="SourceGraphic" in2="effect1_dropShadow_624_4626" result="shape"/>
</filter>
<filter id="filter4_i_624_4626" x="1268.29" y="1139.28" width="69.7852" height="73.7866" filterUnits="userSpaceOnUse" color-interpolation-filters="sRGB">
<feFlood flood-opacity="0" result="BackgroundImageFix"/>
<feBlend mode="normal" in="SourceGraphic" in2="BackgroundImageFix" result="shape"/>
<feColorMatrix in="SourceAlpha" type="matrix" values="0 0 0 0 0 0 0 0 0 0 0 0 0 0 0 0 0 0 127 0" result="hardAlpha"/>
<feOffset dy="4"/>
<feGaussianBlur stdDeviation="2"/>
<feComposite in2="hardAlpha" operator="arithmetic" k2="-1" k3="1"/>
<feColorMatrix type="matrix" values="0 0 0 0 0 0 0 0 0 0 0 0 0 0 0 0 0 0 0.25 0"/>
<feBlend mode="normal" in2="shape" result="effect1_innerShadow_624_4626"/>
</filter>
<linearGradient id="paint0_linear_624_4626" x1="1560" y1="317" x2="1066" y2="965" gradientUnits="userSpaceOnUse">
<stop stop-color="white" stop-opacity="0.22"/>
<stop offset="1" stop-color="white" stop-opacity="0"/>
</linearGradient>
<linearGradient id="paint1_linear_624_4626" x1="618.427" y1="834.94" x2="204.508" y2="1374.33" gradientUnits="userSpaceOnUse">
<stop stop-color="white" stop-opacity="0.22"/>
<stop offset="1" stop-color="white" stop-opacity="0"/>
</linearGradient>
</defs>
</svg>
