<svg width="44" height="44" viewBox="0 0 44 44" fill="none" xmlns="http://www.w3.org/2000/svg">
<path fill-rule="evenodd" clip-rule="evenodd" d="M44 7.01588V9.05824C39.7483 14.6634 33.6002 18.6074 26.5836 19.8192V30.9841H21.8923V28.9622H24.6635V20.0779C23.7865 20.1641 22.9008 20.2209 22.0043 20.2209C21.1035 20.2209 20.2157 20.1641 19.3386 20.0779V37H17.4207V19.8192C10.3998 18.6074 4.25389 14.6634 0 9.05824V7.01362L19.3343 7L19.3386 18.0514C20.2157 18.1445 21.1035 18.2035 22.0043 18.2035C22.9051 18.2035 23.7865 18.1445 24.6635 18.0537V7L44 7.01588ZM17.4207 17.7791L17.4186 8.9357H2.41356C6.25801 13.4766 11.4903 16.6785 17.4207 17.7791ZM41.5951 8.9357H26.5836V17.7837C32.5119 16.6808 37.7485 13.4766 41.5951 8.9357Z" fill="#03568E"/>
</svg>
