<svg width="44" height="44" viewBox="0 0 44 44" fill="none" xmlns="http://www.w3.org/2000/svg">
<circle cx="22" cy="22" r="22" fill="#03568E"/>
<mask id="mask0_6_1529" style="mask-type:alpha" maskUnits="userSpaceOnUse" x="0" y="0" width="44" height="44">
<circle cx="22" cy="22" r="22" fill="#C4C4C4"/>
</mask>
<g mask="url(#mask0_6_1529)">
<path d="M5.5 13.75L11.3438 19.5938L19.9375 23.375V35.75L44 46.75V16.5L38.5 13.75H5.5Z" fill="#003C64"/>
<path fill-rule="evenodd" clip-rule="evenodd" d="M38.5 13.7616V15.2594C35.3112 19.3698 30.7001 22.2621 25.4377 23.1508V31.3384H21.9192V29.8556H23.9976V23.3405C23.3398 23.4037 22.6756 23.4453 22.0032 23.4453C21.3277 23.4453 20.6618 23.4037 20.004 23.3405V35.75H18.5655V23.1508C13.2999 22.2621 8.69042 19.3698 5.5 15.2594V13.76L20.0007 13.75L20.004 21.8544C20.6618 21.9226 21.3277 21.9659 22.0032 21.9659C22.6788 21.9659 23.3398 21.9226 23.9976 21.8561V13.75L38.5 13.7616ZM18.5655 21.6547L18.5639 15.1695H7.31017C10.1935 18.4995 14.1177 20.8476 18.5655 21.6547ZM36.6963 15.1695H25.4377V21.658C29.8839 20.8492 33.8113 18.4995 36.6963 15.1695Z" fill="white"/>
</g>
</svg>
