<svg width="44" height="44" viewBox="0 0 44 44" fill="none" xmlns="http://www.w3.org/2000/svg">
<path d="M6.19776 43.7104C5.72875 43.9188 5.34769 44 4.86669 44C3.79011 44 3 43.2395 3 42.1976C3 41.1543 3.81143 40.36 4.88001 40.36C5.28906 40.36 5.57952 40.4249 6.12181 40.6576V41.1732C5.71409 40.9472 5.28906 40.8268 4.87068 40.8268C4.10855 40.8268 3.5183 41.4317 3.5183 42.1976C3.5183 42.9932 4.10456 43.5305 4.93331 43.5305C5.20645 43.5305 5.45161 43.4669 5.69544 43.3938V42.6644H5.01991V42.1976H6.19776V43.7104Z" fill="#03568E"/>
<path fill-rule="evenodd" clip-rule="evenodd" d="M11.53 40.406H12.4067C13.1156 40.406 13.5606 40.7876 13.5606 41.4032C13.5606 41.8078 13.3474 42.115 12.9743 42.2679C13.2888 42.4817 13.4846 42.8092 13.7538 43.2503C13.899 43.4966 13.987 43.6171 14.2268 43.954H13.6299L13.1689 43.226C12.7039 42.4966 12.4947 42.4127 12.2415 42.4127H12.0323V43.954H11.53V40.406ZM12.0323 41.9567H12.3534C12.8904 41.9567 13.0423 41.6725 13.0423 41.3762C13.0423 41.0447 12.8398 40.8417 12.3534 40.8417H12.0323V41.9567Z" fill="#03568E"/>
<path fill-rule="evenodd" clip-rule="evenodd" d="M20.9954 40.36C22.1492 40.36 22.8767 41.1935 22.8767 42.18C22.8767 43.1367 22.1692 44 20.99 44C19.8468 44 19.1247 43.1407 19.1247 42.18C19.1247 41.2003 19.8668 40.36 20.9954 40.36ZM20.9954 43.5305C21.7815 43.5305 22.3597 42.9513 22.3597 42.18C22.3597 41.4032 21.7815 40.8268 20.9954 40.8268C20.2173 40.8268 19.643 41.4032 19.643 42.18C19.643 42.9513 20.2173 43.5305 20.9954 43.5305Z" fill="#03568E"/>
<path d="M28.6407 40.406V42.5007C28.6407 43.226 29.0217 43.5305 29.6067 43.5305C30.3661 43.5305 30.6446 43.1556 30.6446 42.4736V40.406H31.1469V42.5562C31.1469 43.429 30.6339 43.9986 29.596 43.9986C28.8539 43.9986 28.1357 43.5778 28.1357 42.6103V40.406H28.6407Z" fill="#03568E"/>
<path fill-rule="evenodd" clip-rule="evenodd" d="M36.7843 40.406H37.8782C38.6377 40.406 38.9881 40.862 38.9881 41.4235C38.9881 41.9797 38.6163 42.4168 37.8102 42.4168H37.2866V43.954H36.7843V40.406ZM37.2866 41.9621H37.8555C38.2273 41.9621 38.4711 41.7578 38.4711 41.406C38.4711 41.1434 38.3299 40.862 37.8782 40.862H37.2866V41.9621Z" fill="#03568E"/>
<path d="M8.15771 29.5643H4.40701V31.8728H7.29699V32.9418H4.40701V36.8051H3.22917V28.498H8.15771V29.5643Z" fill="#03568E"/>
<path fill-rule="evenodd" clip-rule="evenodd" d="M12.8717 28.3924C15.5698 28.3924 17.2727 30.3424 17.2727 32.6522C17.2727 34.889 15.6151 36.9107 12.8478 36.9107C10.1736 36.9107 8.48415 34.9053 8.48415 32.6522C8.48415 30.3532 10.2203 28.3924 12.8717 28.3924ZM12.8717 35.8173C14.7118 35.8173 16.0602 34.4614 16.0602 32.6522C16.0602 30.8295 14.7118 29.4844 12.8717 29.4844C11.0437 29.4844 9.6953 30.8295 9.6953 32.6522C9.6953 34.4614 11.0437 35.8173 12.8717 35.8173Z" fill="#03568E"/>
<path d="M24.6835 28.498L19.4884 35.7375H24.6835V36.8051H17.3166L22.513 29.5643H17.6351V28.498H24.6835Z" fill="#03568E"/>
<path d="M33.1069 28.498L27.9052 35.7375H33.1069V36.8051H25.7347L30.9337 29.5643H26.0572V28.498H33.1069Z" fill="#03568E"/>
<path d="M35.1601 28.498L37.3665 31.364L39.5823 28.498H41L37.9581 32.4195V36.8051H36.783V32.4073L33.7451 28.498H35.1601Z" fill="#03568E"/>
<path fill-rule="evenodd" clip-rule="evenodd" d="M40.984 0.0121781V1.70365C37.3386 6.3383 32.0636 9.60081 26.0465 10.6049V19.8417H22.0213V18.1691H24.3997V10.8187C23.6482 10.8904 22.8887 10.9364 22.1173 10.9364C21.3471 10.9364 20.585 10.8904 19.8322 10.8187L19.8309 24.8173H18.188V10.6049C12.1656 9.60081 6.89326 6.3383 3.24516 1.7023V0.0108257L19.8282 0L19.8322 9.14344C20.585 9.22057 21.3471 9.26793 22.1173 9.26793C22.89 9.26793 23.6482 9.22057 24.3997 9.14344V0L40.984 0.0121781ZM18.188 8.9161L18.1853 1.59946H5.31571C8.61206 5.35859 13.1009 8.00541 18.188 8.9161ZM38.9201 1.59946H26.0465V8.91881C31.1309 8.00812 35.6224 5.35859 38.9201 1.59946Z" fill="#03568E"/>
</svg>
