<svg width="32" height="32" viewBox="0 0 32 32" fill="none" xmlns="http://www.w3.org/2000/svg">
<circle cx="16" cy="16" r="16" fill="#03568E"/>
<mask id="mask0_6_1506" style="mask-type:alpha" maskUnits="userSpaceOnUse" x="0" y="0" width="32" height="32">
<circle cx="16" cy="16" r="16" fill="#C4C4C4"/>
</mask>
<g mask="url(#mask0_6_1506)">
<path d="M4 10L8.25 14.25L14.5 17V26L32 34V12L28 10H4Z" fill="#003C64"/>
<path fill-rule="evenodd" clip-rule="evenodd" d="M28 10.0085V11.0977C25.6809 14.0871 22.3274 16.1906 18.5001 16.8369V22.7915H15.9412V21.7132H17.4528V16.9749C16.9744 17.0209 16.4913 17.0511 16.0024 17.0511C15.511 17.0511 15.0267 17.0209 14.5483 16.9749V26H13.5022V16.8369C9.67264 16.1906 6.32031 14.0871 4 11.0977V10.0073L14.546 10L14.5483 15.8941C15.0267 15.9437 15.511 15.9752 16.0024 15.9752C16.4937 15.9752 16.9744 15.9437 17.4528 15.8953V10L28 10.0085ZM13.5022 15.7489L13.501 11.0324H5.31649C7.41346 13.4542 10.2674 15.1619 13.5022 15.7489ZM26.6882 11.0324H18.5001V15.7513C21.7338 15.1631 24.5901 13.4542 26.6882 11.0324Z" fill="white"/>
</g>
</svg>
