<svg width="44" height="44" viewBox="0 0 44 44" fill="none" xmlns="http://www.w3.org/2000/svg">
<path d="M9.52454 38.7762C9.15428 38.9373 8.85344 39 8.4737 39C7.62377 39 7 38.4123 7 37.6072C7 36.801 7.6406 36.1872 8.48422 36.1872C8.80715 36.1872 9.03647 36.2374 9.46459 36.4173V36.8157C9.14271 36.641 8.80715 36.548 8.47686 36.548C7.87517 36.548 7.40919 37.0154 7.40919 37.6072C7.40919 38.222 7.87202 38.6372 8.5263 38.6372C8.74194 38.6372 8.93548 38.588 9.12798 38.5316V37.968H8.59467V37.6072H9.52454V38.7762Z" fill="#03568E"/>
<path fill-rule="evenodd" clip-rule="evenodd" d="M13.7342 36.2228H14.4264C14.986 36.2228 15.3373 36.5177 15.3373 36.9934C15.3373 37.3061 15.169 37.5434 14.8745 37.6616C15.1227 37.8268 15.2773 38.0798 15.4898 38.4207C15.6045 38.611 15.6739 38.7041 15.8633 38.9645H15.392L15.0281 38.4019C14.6609 37.8383 14.4958 37.7735 14.2959 37.7735H14.1308V38.9645H13.7342V36.2228ZM14.1308 37.4211H14.3843C14.8082 37.4211 14.9281 37.2015 14.9281 36.9725C14.9281 36.7163 14.7682 36.5595 14.3843 36.5595H14.1308V37.4211Z" fill="#03568E"/>
<path fill-rule="evenodd" clip-rule="evenodd" d="M21.2069 36.1872C22.1178 36.1872 22.6921 36.8313 22.6921 37.5936C22.6921 38.3329 22.1336 39 21.2027 39C20.3001 39 19.73 38.336 19.73 37.5936C19.73 36.8366 20.3159 36.1872 21.2069 36.1872ZM21.2069 38.6372C21.8275 38.6372 22.284 38.1896 22.284 37.5936C22.284 36.9934 21.8275 36.548 21.2069 36.548C20.5926 36.548 20.1392 36.9934 20.1392 37.5936C20.1392 38.1896 20.5926 38.6372 21.2069 38.6372Z" fill="#03568E"/>
<path d="M27.2426 36.2228V37.8414C27.2426 38.4019 27.5435 38.6372 28.0053 38.6372C28.6048 38.6372 28.8247 38.3475 28.8247 37.8205V36.2228H29.2213V37.8843C29.2213 38.5587 28.8163 38.999 27.9968 38.999C27.4109 38.999 26.844 38.6738 26.844 37.9261V36.2228H27.2426Z" fill="#03568E"/>
<path fill-rule="evenodd" clip-rule="evenodd" d="M33.6718 36.2228H34.5354C35.135 36.2228 35.4116 36.5752 35.4116 37.0091C35.4116 37.4389 35.1182 37.7766 34.4818 37.7766H34.0684V38.9645H33.6718V36.2228ZM34.0684 37.4253H34.5175C34.811 37.4253 35.0035 37.2674 35.0035 36.9955C35.0035 36.7927 34.892 36.5752 34.5354 36.5752H34.0684V37.4253Z" fill="#03568E"/>
<path d="M11.0719 27.8451H8.1108V29.629H10.3924V30.455H8.1108V33.4403H7.18092V27.0212H11.0719V27.8451Z" fill="#03568E"/>
<path fill-rule="evenodd" clip-rule="evenodd" d="M14.7935 26.9396C16.9236 26.9396 18.2679 28.4464 18.2679 30.2313C18.2679 31.9597 16.9593 33.5219 14.7745 33.5219C12.6634 33.5219 11.3296 31.9723 11.3296 30.2313C11.3296 28.4547 12.7002 26.9396 14.7935 26.9396ZM14.7935 32.677C16.2461 32.677 17.3107 31.6293 17.3107 30.2313C17.3107 28.8228 16.2461 27.7834 14.7935 27.7834C13.3503 27.7834 12.2858 28.8228 12.2858 30.2313C12.2858 31.6293 13.3503 32.677 14.7935 32.677Z" fill="#03568E"/>
<path d="M24.1185 27.0212L20.0172 32.6153H24.1185V33.4403H18.3026L22.405 27.8451H18.554V27.0212H24.1185Z" fill="#03568E"/>
<path d="M30.7686 27.0212L26.662 32.6153H30.7686V33.4403H24.9485L29.0529 27.8451H25.203V27.0212H30.7686Z" fill="#03568E"/>
<path d="M32.3896 27.0212L34.1315 29.2358L35.8808 27.0212H37L34.5985 30.0514V33.4403H33.6708V30.042L31.2724 27.0212H32.3896Z" fill="#03568E"/>
<path fill-rule="evenodd" clip-rule="evenodd" d="M36.9874 5.00941V6.31646C34.1094 9.89777 29.945 12.4188 25.1946 13.1947V20.3322H22.0168V19.0398H23.8945V13.3599C23.3012 13.4153 22.7016 13.4509 22.0926 13.4509C21.4846 13.4509 20.8829 13.4153 20.2886 13.3599L20.2875 24.177H18.9905V13.1947C14.236 12.4188 10.0736 9.89777 7.19354 6.31541V5.00837L20.2854 5L20.2886 12.0654C20.8829 12.125 21.4846 12.1616 22.0926 12.1616C22.7027 12.1616 23.3012 12.125 23.8945 12.0654V5L36.9874 5.00941ZM18.9905 11.8897L18.9884 6.23595H8.82819C11.4306 9.14073 14.9744 11.186 18.9905 11.8897ZM35.358 6.23595H25.1946V11.8918C29.2086 11.1881 32.7546 9.14073 35.358 6.23595Z" fill="#03568E"/>
</svg>
