<svg width="44" height="44" viewBox="0 0 44 44" fill="none" xmlns="http://www.w3.org/2000/svg">
<circle cx="22" cy="22" r="22" fill="#03568E"/>
<mask id="mask0_21_4132" style="mask-type:alpha" maskUnits="userSpaceOnUse" x="0" y="0" width="44" height="44">
<circle cx="22" cy="22" r="22" fill="#03568E"/>
</mask>
<g mask="url(#mask0_21_4132)">
<mask id="mask1_21_4132" style="mask-type:alpha" maskUnits="userSpaceOnUse" x="-5" y="0" width="54" height="53">
<circle cx="22" cy="26.5" r="26.5" fill="#03568E"/>
</mask>
<g mask="url(#mask1_21_4132)">
<path d="M13.3524 28.5247C6.49632 39.4715 -7.27465 43.8384 -3.52661 55.5102C-3.28083 56.276 5.89473 51.3385 10.2802 56.8777C17.8507 66.4388 25.5336 66.2845 28.5929 64.9664C28.0528 58.5894 27.4358 56.0268 28.5571 49.7268C29.0051 47.2056 29.5862 44.7046 29.9318 42.1652C30.1827 40.317 30.3109 38.451 30.3415 36.5876C30.3721 34.8477 30.3005 33.0328 29.4865 31.4985C28.5828 29.7918 27.5689 29.9332 25.7332 29.3522C24.5094 28.9667 20.3825 28.6918 13.3524 28.5247Z" fill="#FF9946"/>
<path d="M31.6778 46.1849C31.0379 45.2239 37.0696 44.0543 38.8898 42.4147C40.1034 41.3197 40.6386 40.0731 40.6974 38.4821C40.7562 36.9116 40.1775 35.4106 39.074 34.2539C36.9826 32.0666 34.6554 30.8124 31.8315 29.4013C30.7665 28.8692 29.4736 29.3063 28.9436 30.3729C28.4138 31.442 28.8361 32.3623 29.9011 32.8916C32.4279 34.1537 34.3533 35.5572 35.9661 37.2457C36.3373 37.6364 36.404 38.0451 36.3936 38.3202C36.3783 38.7314 36.1837 39.1245 35.8433 39.4305C34.5376 40.6077 32.9196 41.9648 31.2044 42.3966C30.0495 42.6871 29.5812 43.5867 29.8705 44.7458C30.1162 45.7276 30.7154 46.1849 31.6778 46.1849Z" fill="#C8DCE5" stroke="#00121D" stroke-width="0.207031"/>
<path d="M30.9813 42.0495C32.292 41.4507 33.4083 40.8646 34.3248 40.2968C35.1774 39.7672 36.232 39.7827 37.2357 39.8212C38.4209 39.8649 39.97 40.0885 41.3755 40.8081C41.5956 40.9212 41.5929 41.2373 41.3778 41.353C39.678 42.2501 34.1275 45.2034 32.5019 46.2826C32.3688 46.3727 32.2253 46.5733 32.1845 46.7302L32.0028 47.4238C31.9183 47.7555 31.6545 48.0074 31.3216 48.0768L30.0979 48.3337L29.9265 44.0082C29.8956 43.2113 30.3001 42.4608 30.9813 42.0495Z" fill="#78ADD2" stroke="#00121D" stroke-width="0.207031"/>
<path d="M30.2986 28.4528L30.7491 32.1796L30.9565 47.5036C26.0793 49.2899 20.0911 48.7373 12.8486 47.7556C12.9151 45.5863 12.5337 37.9063 12.7769 32.8222L12.9049 28.188C14.8915 28.224 19.8224 28.6199 20.7337 28.6455H22.0575C22.8281 28.6248 23.5883 28.4501 25.2089 28.4168C25.6749 28.4091 25.959 27.7741 26.448 27.7665L30.2986 28.4528Z" fill="#C8DCE5" stroke="#00121D" stroke-width="0.207031"/>
<path d="M24.4842 30.1026L21.7396 32.277L18.8697 30.1026L14.4458 30.0974C13.6189 30.7657 12.9123 31.6628 12.7766 32.8219L13.8391 33.0534L17.1135 36.7108L18.0505 39.5252L21.7396 41.2576L25.4314 39.5252L26.3684 36.7108L28.8542 32.9093L30.7053 32.8219C30.5875 31.8197 30.0448 31.0152 29.3637 30.3827L24.4842 30.1026Z" fill="#78ADD2" stroke="#00121D" stroke-width="0.207031"/>
<path d="M0.266845 42.5353C-1.93744 47.0383 -2.17296 50.2154 -0.432071 52.0658C-0.252865 52.2561 -0.332241 52.5697 -0.577987 52.6594C-1.56364 53.0246 -3.42487 53.9038 -3.52216 55.3789C-3.52471 55.415 -3.56824 55.4253 -3.5836 55.3943C-3.99066 54.5334 -6.24102 48.9583 0.266845 42.5353Z" fill="#FE8522" stroke="#00121D" stroke-width="0.207031"/>
<path d="M12.551 32.884H12.5529H12.551Z" fill="#402318" stroke="#00121D" stroke-width="0.207031"/>
<path d="M30.7407 33.1022C32.3384 34.5338 34.4068 34.2922 36.9517 32.3826C35.6614 31.3056 34.9037 30.7068 34.6758 30.5886L30.7407 33.1022Z" fill="#78ADD2" stroke="#00121D" stroke-width="0.207031"/>
<path d="M31.5493 28.6765C31.5058 28.3757 35.4406 29.296 35.6352 30.103C35.7069 30.4088 33.674 33.4238 30.776 33.0151C30.6942 33.0049 30.6404 32.9225 30.6582 32.8428L31.5493 28.6765Z" fill="#78ADD2" stroke="#00121D" stroke-width="0.207031"/>
<path d="M30.6277 32.8224C29.7163 31.0386 28.6079 29.6326 26.6108 28.4863C28.6385 27.8439 30.9784 27.7847 33.6358 28.3116C33.9021 28.3656 34.0404 28.6662 33.9048 28.9026C32.9344 30.5862 32.1816 31.7017 30.6277 32.8224Z" fill="#78ADD2" stroke="#00121D" stroke-width="0.207031"/>
<path d="M17.3204 48.0666C17.2281 48.0666 17.1463 48.0026 17.1258 47.9076L16.4064 44.3576C16.2861 43.7614 15.9199 43.2397 15.4002 42.9287L12.817 41.371C12.7223 41.3145 12.6916 41.1911 12.7505 41.0985C12.8068 41.0035 12.9271 40.9727 13.0218 41.0292L15.605 42.5842C16.2194 42.9544 16.6546 43.5713 16.7981 44.2781L17.5175 47.8277C17.538 47.9353 17.4688 48.0409 17.3612 48.0639C17.3486 48.0666 17.3357 48.0666 17.3204 48.0666Z" fill="#00121D"/>
<path d="M26.5013 48.0666C26.4884 48.0666 26.4756 48.0666 26.4603 48.0639C26.3528 48.0409 26.2837 47.9353 26.3067 47.8277L27.0261 44.2779C27.1696 43.5711 27.602 42.9542 28.2165 42.584L30.7433 41.0497C30.8382 40.9932 30.9611 41.024 31.0174 41.119C31.0738 41.2141 31.0429 41.3375 30.9483 41.394L28.4215 42.9285C27.9043 43.2395 27.5356 43.7614 27.4153 44.3576L26.6959 47.907C26.6779 48.002 26.5934 48.0666 26.5013 48.0666Z" fill="#00121D"/>
<path d="M13.7336 27.9646C14.6399 28.0828 15.152 28.756 15.262 29.9821H17.4918C17.8554 27.8128 17.5278 26.5302 16.5113 26.1344L15.6717 26.8207C14.7116 26.8027 14.0665 27.183 13.7336 27.9646Z" fill="#FF6664" stroke="#00121D" stroke-width="0.207031"/>
<path d="M25.6616 27.6766C26.0407 28.476 26.2659 29.242 26.3376 29.9823H28.7671C29.443 28.8693 29.5174 27.9903 28.9847 27.3451C28.8004 27.124 28.5367 26.9878 28.2578 26.9313C27.7073 26.8234 26.5858 26.759 25.6616 27.6766Z" fill="#FF6664" stroke="#00121D" stroke-width="0.207031"/>
<path d="M24.0259 28.7456L19.0721 28.6403C16.7347 28.5914 14.8632 26.6302 14.9144 24.281L14.9886 20.7881C15.0373 18.4414 16.9933 16.5625 19.3282 16.6139L24.282 16.7193C26.6219 16.7707 28.4934 18.7318 28.4421 21.0785L28.368 24.5715C28.3193 26.9182 26.3633 28.797 24.0259 28.7456Z" fill="#DDC0BD" stroke="#00121D" stroke-width="0.207031"/>
<path d="M16.6646 17.4677C17.4685 16.0592 18.769 15.2418 20.5712 15.0131C22.7807 14.7303 25.9963 16.3188 27.1867 15.7867C27.983 15.4346 28.751 14.8049 29.491 13.9027C30.223 15.7713 30.0593 17.2286 28.9993 18.2748C27.9395 19.3183 25.369 19.5265 22.8703 18.2825C20.6507 17.1773 18.5821 16.9048 16.6646 17.4677Z" fill="#BE9353" stroke="#00121D" stroke-width="0.207031"/>
<path d="M24.1455 22.6925C24.1455 22.1322 24.4349 21.6773 24.7958 21.6773C25.1542 21.6773 25.4461 22.1322 25.4461 22.6925" stroke="#00121D" stroke-width="0.414062" stroke-linecap="round"/>
<path d="M18.3396 22.6925C18.3396 22.1322 18.6313 21.6773 18.9897 21.6773C19.3507 21.6773 19.64 22.1322 19.64 22.6925" stroke="#00121D" stroke-width="0.414062" stroke-linecap="round"/>
<path fill-rule="evenodd" clip-rule="evenodd" d="M21.8927 25.4274C21.1298 25.4274 20.9275 24.7771 20.9275 24.4329C20.9275 24.3223 21.0171 24.2322 21.1273 24.2322C21.2347 24.2322 21.3244 24.3223 21.3244 24.4329C21.3271 24.5304 21.3602 25.0291 21.8927 25.0291C22.433 25.0291 22.4842 24.5743 22.4866 24.4842C22.4918 24.3736 22.5866 24.289 22.6941 24.2915C22.8042 24.2966 22.8887 24.3892 22.886 24.4997C22.8734 24.8208 22.6531 25.4274 21.8927 25.4274ZM21.3244 24.4329H21.3271H21.3244Z" fill="black"/>
<path d="M12.6581 32.8018C13.0012 32.6167 10.1031 29.6198 9.04581 24.9059C7.62487 18.5701 8.92033 12.4503 12.7938 7.20435L16.6775 10.0959C9.3837 19.9709 16.2885 30.0438 16.3601 30.1467L12.6581 32.8018Z" fill="#C8DCE5" stroke="#00121D" stroke-width="0.207031"/>
<path d="M22.031 35.4311L23.1575 37.7238C23.2241 37.8573 23.3496 37.9499 23.498 37.9731L26.0172 38.3407C26.3909 38.3946 26.5393 38.8521 26.2706 39.1169L24.4452 40.9007C24.3402 41.0061 24.2916 41.1551 24.3148 41.3042L24.7473 43.8229C24.8087 44.1958 24.4222 44.4784 24.0893 44.3037L21.8339 43.1136C21.7033 43.0443 21.5447 43.0443 21.4116 43.1136L19.1587 44.3037C18.8257 44.4784 18.4365 44.1958 18.5007 43.8229L18.9307 41.3042C18.9564 41.1551 18.9077 41.0061 18.8001 40.9007L16.9774 39.1169C16.7084 38.8521 16.8571 38.3946 17.2283 38.3407L19.7499 37.9731C19.8959 37.9499 20.0238 37.8573 20.0905 37.7238L21.217 35.4311C21.3834 35.0918 21.8645 35.0918 22.031 35.4311Z" fill="#FFCB35" stroke="#00121D" stroke-width="0.207031"/>
<path d="M13.8214 23.667L13.5295 22.1917C13.4732 21.8986 13.1686 21.7264 12.887 21.8266C11.5045 22.3151 8.64478 25.3992 11.1281 30.4936L12.91 27.9875L13.8214 23.667Z" fill="#78ADD2" stroke="#00121D" stroke-width="0.207031"/>
<path d="M15.0187 27.5969C15.0187 27.453 14.4964 24.762 14.2813 23.667C14.2404 23.4536 13.9511 23.3586 13.7617 23.4973C12.3101 24.5537 7.94505 28.3501 13.0832 32.8224L15.0187 27.5969Z" fill="#78ADD2" stroke="#00121D" stroke-width="0.207031"/>
<path d="M16.3602 30.1466C16.2553 28.7587 15.861 26.9544 14.8447 25.3093C14.6501 24.9957 14.2021 24.9572 13.9537 25.2323C13.05 26.2269 11.3834 28.7535 12.7761 32.8223C14.4197 32.4521 15.6383 31.5859 16.3602 30.1466Z" fill="#78ADD2" stroke="#00121D" stroke-width="0.207031"/>
<path d="M9.63818 12.9231C10.0529 12.7894 13.783 12.9719 15.7031 11.7716C17.3108 9.73079 18.7139 8.07298 19.9147 6.79552L15.6622 3.95795C12.1266 6.66447 10.1169 9.6511 9.63818 12.9231Z" fill="#78ADD2" stroke="#00121D" stroke-width="0.207031"/>
<path d="M14.7637 4.74189C17.1011 2.48262 19.2337 1.46479 21.1666 1.68583C21.6299 1.7398 22.0063 2.08936 22.1342 2.53916L22.1624 2.63426C22.2725 3.02494 22.1777 3.44647 21.909 3.75234L20.2347 5.81371L18.4093 7.18879" fill="#78ADD2"/>
<path d="M14.7637 4.74189C17.1011 2.48262 19.2337 1.46479 21.1666 1.68583C21.6299 1.7398 22.0063 2.08936 22.1342 2.53916L22.1624 2.63426C22.2725 3.02494 22.1777 3.44647 21.909 3.75234L20.2347 5.81371L18.4093 7.18879" stroke="#00121D" stroke-width="0.207031"/>
<path d="M16.8108 8.18367C16.3396 6.81368 16.9362 6.02204 18.5976 5.81385C18.9024 5.77528 20.4615 4.59296 21.1477 5.2047C21.6033 5.61081 21.1936 6.14029 19.9135 6.79569L17.9525 9.02414" fill="#78ADD2"/>
<path d="M16.8108 8.18367C16.3396 6.81368 16.9362 6.02204 18.5976 5.81385C18.9024 5.77528 20.4615 4.59296 21.1477 5.2047C21.6033 5.61081 21.1936 6.14029 19.9135 6.79569L17.9525 9.02414" stroke="#00121D" stroke-width="0.207031" stroke-linecap="round"/>
<path d="M10.4597 11.6843C12.5514 11.9233 14.131 11.6303 15.1934 10.8052L10.4597 11.6843Z" fill="#78ADD2"/>
<path d="M10.4597 11.6843C12.5514 11.9233 14.131 11.6303 15.1934 10.8052" stroke="#00121D" stroke-width="0.207031" stroke-linecap="round"/>
<path d="M17.4641 3.34888C18.4906 3.88093 19.1359 4.55434 19.3918 5.36141L17.4641 3.34888Z" fill="#78ADD2"/>
<path d="M17.4641 3.34888C18.4906 3.88093 19.1359 4.55434 19.3918 5.36141" stroke="#00121D" stroke-width="0.207031" stroke-linecap="round"/>
</g>
</g>
</svg>
