<svg width="48" height="48" viewBox="0 0 48 48" fill="none" xmlns="http://www.w3.org/2000/svg">
<circle cx="24" cy="24" r="24" fill="#FAB600"/>
<mask id="mask0" mask-type="alpha" maskUnits="userSpaceOnUse" x="0" y="0" width="48" height="48">
<circle cx="24" cy="24" r="24" fill="#FAB600"/>
</mask>
<g mask="url(#mask0)">
<path d="M11 47V37C11 34 12 32 14 30C16 28 18 27 21 27H27C30 27 32 28 34 30C36 32 37 34 37 37V47M23.9998 22.3333C22.2317 22.3333 20.536 21.631 19.2858 20.3807C18.0355 19.1305 17.3332 17.4348 17.3332 15.6667C17.3332 13.8986 18.0355 12.2029 19.2858 10.9526C20.536 9.70238 22.2317 9 23.9998 9C25.7679 9 27.4636 9.70238 28.7139 10.9526C29.9641 12.2029 30.6665 13.8986 30.6665 15.6667C30.6665 17.4348 29.9641 19.1305 28.7139 20.3807C27.4636 21.631 25.7679 22.3333 23.9998 22.3333Z" stroke="#00121D" stroke-width="2"/>
</g>
</svg>
